G04*
G04 #@! TF.GenerationSoftware,Altium Limited,Altium Designer,25.6.2 (33)*
G04*
G04 Layer_Physical_Order=4*
G04 Layer_Color=16711680*
%FSLAX44Y44*%
%MOMM*%
G71*
G04*
G04 #@! TF.SameCoordinates,F5E6062F-8FAF-4D23-8B74-0684357ABDF0*
G04*
G04*
G04 #@! TF.FilePolarity,Positive*
G04*
G01*
G75*
%ADD17C,0.2540*%
%ADD19R,0.9000X1.0500*%
%ADD55C,1.0000*%
%ADD56C,0.5000*%
%ADD57C,2.0000*%
%ADD58C,1.1300*%
%ADD59R,1.1300X1.1300*%
%ADD60C,1.9200*%
%ADD61C,1.5080*%
%ADD62R,2.0000X2.0000*%
%ADD63C,0.5000*%
%ADD64R,0.9700X0.6700*%
%ADD65R,0.9542X2.7062*%
%ADD66R,2.0000X1.4000*%
%ADD67R,0.9000X2.1500*%
%ADD68R,3.2500X2.1500*%
%ADD69C,0.3000*%
G36*
X693451Y2549D02*
X691731D01*
X691428Y3549D01*
X691442Y3558D01*
X691884Y4220D01*
X692039Y5000D01*
Y6419D01*
X691972Y6759D01*
X691921Y7102D01*
X691894Y7147D01*
X691884Y7199D01*
X691691Y7488D01*
X691514Y7785D01*
X691471Y7817D01*
X691442Y7861D01*
X691153Y8054D01*
X690876Y8261D01*
X690824Y8274D01*
X690780Y8303D01*
X690440Y8371D01*
X690104Y8455D01*
X690021Y8460D01*
Y20500D01*
X682250D01*
Y23500D01*
X690021D01*
Y35540D01*
X690104Y35545D01*
X690440Y35629D01*
X690780Y35697D01*
X690824Y35726D01*
X690876Y35740D01*
X691154Y35947D01*
X691442Y36139D01*
X691471Y36183D01*
X691514Y36215D01*
X691691Y36513D01*
X691884Y36801D01*
X691894Y36853D01*
X691921Y36898D01*
X691972Y37241D01*
X692039Y37581D01*
Y45265D01*
X692000Y45462D01*
X692000Y45662D01*
X691923Y45848D01*
X691884Y46045D01*
X691772Y46212D01*
X691695Y46398D01*
X691554Y46540D01*
X691442Y46707D01*
X691275Y46818D01*
X691133Y46960D01*
X690302Y47516D01*
X690116Y47593D01*
X689949Y47704D01*
X689752Y47744D01*
X689566Y47820D01*
X689365D01*
X689168Y47860D01*
X688972Y47820D01*
X688771D01*
X688585Y47744D01*
X688388Y47704D01*
X687990Y47539D01*
X687010D01*
X686106Y47914D01*
X685942Y48078D01*
X685906Y48102D01*
X685880Y48138D01*
X685576Y48322D01*
X685280Y48520D01*
X685237Y48529D01*
X685200Y48551D01*
X684849Y48606D01*
X684500Y48675D01*
Y51325D01*
X684849Y51394D01*
X685200Y51449D01*
X685238Y51471D01*
X685280Y51480D01*
X685576Y51677D01*
X685880Y51862D01*
X685906Y51898D01*
X685942Y51922D01*
X686106Y52086D01*
X687010Y52461D01*
X687990D01*
X688388Y52296D01*
X688585Y52256D01*
X688771Y52180D01*
X688972D01*
X689168Y52140D01*
X689365Y52180D01*
X689566D01*
X689752Y52256D01*
X689949Y52296D01*
X690116Y52407D01*
X690302Y52484D01*
X691133Y53040D01*
X691275Y53182D01*
X691442Y53293D01*
X691554Y53460D01*
X691695Y53602D01*
X691772Y53788D01*
X691884Y53955D01*
X691923Y54152D01*
X692000Y54337D01*
Y54538D01*
X692039Y54735D01*
Y145000D01*
X691884Y145780D01*
X691442Y146442D01*
X690780Y146884D01*
X690000Y147039D01*
X664060D01*
Y172090D01*
X664602Y172632D01*
X666182Y175368D01*
X667000Y178420D01*
Y181580D01*
X666182Y184632D01*
X664602Y187368D01*
X662368Y189602D01*
X659632Y191182D01*
X656580Y192000D01*
X653420D01*
X650368Y191182D01*
X647632Y189602D01*
X645398Y187368D01*
X643818Y184632D01*
X643000Y181580D01*
Y178420D01*
X643818Y175368D01*
X645398Y172632D01*
X647632Y170398D01*
X649940Y169065D01*
Y147039D01*
X600834D01*
Y248500D01*
X600580Y249776D01*
X599858Y250858D01*
X473334Y377381D01*
Y479000D01*
X473080Y480276D01*
X472358Y481357D01*
X449500Y504215D01*
Y504895D01*
X448815Y506549D01*
X447549Y507815D01*
X445895Y508500D01*
X444105D01*
X442451Y507815D01*
X441185Y506549D01*
X440500Y504895D01*
Y503105D01*
X441185Y501451D01*
X442451Y500185D01*
X444105Y499500D01*
X444785D01*
X466666Y477619D01*
Y376000D01*
X466920Y374724D01*
X467643Y373643D01*
X594166Y247119D01*
Y128030D01*
X593685Y127549D01*
X593000Y125895D01*
Y124105D01*
X593685Y122451D01*
X594136Y122000D01*
X593722Y121000D01*
X593000D01*
Y103000D01*
X593000Y103000D01*
X592964Y102015D01*
X592961Y102000D01*
Y86095D01*
X592000Y86000D01*
X591060Y86146D01*
Y137481D01*
X590820Y139308D01*
X590115Y141011D01*
X588993Y142473D01*
X575289Y156177D01*
X575484Y157158D01*
X575549Y157185D01*
X576815Y158451D01*
X577500Y160105D01*
Y161895D01*
X576815Y163549D01*
X575549Y164815D01*
X573895Y165500D01*
X572105D01*
X570451Y164815D01*
X569185Y163549D01*
X568500Y161895D01*
Y160105D01*
X568123Y159541D01*
X566925D01*
X560301Y166165D01*
X560868Y167013D01*
X562105Y166500D01*
X563895D01*
X565549Y167185D01*
X566815Y168451D01*
X567500Y170105D01*
Y171895D01*
X566815Y173549D01*
X566334Y174030D01*
Y252000D01*
X566080Y253276D01*
X565358Y254357D01*
X452500Y367215D01*
Y367895D01*
X451815Y369549D01*
X450549Y370815D01*
X448895Y371500D01*
X447105D01*
X445451Y370815D01*
X444185Y369549D01*
X443500Y367895D01*
Y366105D01*
X444185Y364451D01*
X445451Y363185D01*
X447105Y362500D01*
X447785D01*
X559666Y250619D01*
Y174030D01*
X559185Y173549D01*
X558500Y171895D01*
Y170105D01*
X559013Y168867D01*
X558165Y168301D01*
X501060Y225405D01*
Y236399D01*
X501115Y236470D01*
X501820Y238173D01*
X502060Y240000D01*
X501820Y241827D01*
X501115Y243530D01*
X499992Y244992D01*
X498530Y246115D01*
X496827Y246820D01*
X495000Y247060D01*
X493173Y246820D01*
X491470Y246115D01*
X490008Y244992D01*
X489008Y243993D01*
X487886Y242530D01*
X487180Y240827D01*
X486940Y239000D01*
Y222481D01*
X487180Y220653D01*
X487886Y218951D01*
X489008Y217488D01*
X559008Y147488D01*
X560470Y146366D01*
X562173Y145661D01*
X564000Y145421D01*
X566076D01*
X572441Y139055D01*
X571782Y138300D01*
X570878Y138300D01*
X558150D01*
Y136519D01*
X556500D01*
Y141250D01*
X543500D01*
Y126750D01*
X546431D01*
Y121250D01*
X543500D01*
Y107472D01*
X543500Y106750D01*
X543639Y105808D01*
Y99779D01*
X551139D01*
X558639D01*
Y106529D01*
X557408D01*
X556500Y106750D01*
X556500Y107529D01*
Y121250D01*
X553568D01*
Y126750D01*
X556500D01*
Y129381D01*
X558150D01*
Y127600D01*
X571850D01*
Y137302D01*
X571850Y138232D01*
X572605Y138891D01*
X576940Y134556D01*
Y125731D01*
X575940Y125067D01*
X574895Y125500D01*
X573105D01*
X571451Y124815D01*
X571036Y124400D01*
X558150D01*
Y113700D01*
X565962D01*
X566500Y112895D01*
Y112215D01*
X564781Y110496D01*
X564059Y109415D01*
X563805Y108139D01*
Y105529D01*
X560639D01*
Y91029D01*
X563571D01*
Y87527D01*
X560639D01*
Y73026D01*
X573639D01*
Y87527D01*
X570708D01*
Y91029D01*
X573639D01*
Y105529D01*
X570473D01*
Y106758D01*
X571215Y107500D01*
X571895D01*
X573549Y108185D01*
X574815Y109451D01*
X575500Y111105D01*
Y112895D01*
X574815Y114549D01*
X573864Y115500D01*
X574278Y116500D01*
X574895D01*
X575940Y116933D01*
X576940Y116269D01*
Y54750D01*
X577180Y52923D01*
X577886Y51220D01*
X579008Y49758D01*
X580470Y48636D01*
X582173Y47930D01*
X584000Y47690D01*
X592961D01*
Y5000D01*
X593116Y4220D01*
X593558Y3558D01*
X593572Y3549D01*
X593269Y2549D01*
X2549D01*
Y547451D01*
X140266D01*
X140605Y546451D01*
X140007Y545993D01*
X127008Y532993D01*
X125885Y531530D01*
X125180Y529827D01*
X124940Y528000D01*
Y477000D01*
Y345000D01*
Y84000D01*
X125180Y82173D01*
X125885Y80470D01*
X127008Y79008D01*
X128470Y77885D01*
X130173Y77180D01*
X132000Y76940D01*
X133827Y77180D01*
X135530Y77885D01*
X136992Y79008D01*
X138115Y80470D01*
X138820Y82173D01*
X139060Y84000D01*
Y345000D01*
Y477000D01*
Y525075D01*
X147924Y533940D01*
X570075D01*
X570940Y533075D01*
Y482924D01*
X540945Y452930D01*
X540021Y453312D01*
Y482531D01*
X538764D01*
X538350Y483531D01*
X539122Y484303D01*
X540129Y486047D01*
X540650Y487993D01*
Y490007D01*
X540129Y491953D01*
X540061Y492071D01*
Y508000D01*
X539820Y509827D01*
X539115Y511530D01*
X537993Y512992D01*
X527992Y522993D01*
X526530Y524114D01*
X524827Y524820D01*
X523000Y525060D01*
X307000D01*
X305173Y524820D01*
X303470Y524114D01*
X302008Y522993D01*
X300008Y520993D01*
X298885Y519530D01*
X298180Y517827D01*
X297940Y516000D01*
Y470038D01*
X297940Y262000D01*
Y72000D01*
X298180Y70173D01*
X298885Y68470D01*
X300007Y67008D01*
X301470Y65886D01*
X303173Y65180D01*
X305000Y64940D01*
X306827Y65180D01*
X308530Y65886D01*
X309992Y67008D01*
X311114Y68470D01*
X311820Y70173D01*
X312060Y72000D01*
Y262000D01*
X312060Y470038D01*
Y510940D01*
X520075D01*
X525940Y505075D01*
Y492071D01*
X525872Y491953D01*
X525350Y490007D01*
Y487993D01*
X525872Y486047D01*
X526879Y484303D01*
X527650Y483531D01*
X527236Y482531D01*
X526479D01*
Y451469D01*
X538177D01*
X538560Y450545D01*
X533258Y445243D01*
X532136Y443780D01*
X531430Y442077D01*
X531190Y440250D01*
Y420000D01*
X531430Y418173D01*
X531479Y418054D01*
Y404469D01*
X533662D01*
Y399650D01*
X531993D01*
X530047Y399129D01*
X528303Y398121D01*
X526879Y396697D01*
X525871Y394953D01*
X525350Y393007D01*
Y390993D01*
X525871Y389047D01*
X526879Y387303D01*
X528303Y385878D01*
X530047Y384871D01*
X531993Y384350D01*
X534007D01*
X535953Y384871D01*
X537697Y385878D01*
X539122Y387303D01*
X540129Y389047D01*
X540650Y390993D01*
Y392161D01*
X541494Y393006D01*
X542489Y394494D01*
X542838Y396250D01*
Y404469D01*
X545021D01*
Y418054D01*
X545070Y418173D01*
X545310Y420000D01*
Y437326D01*
X582993Y475008D01*
X584114Y476470D01*
X584820Y478173D01*
X585060Y480000D01*
Y536000D01*
X584820Y537827D01*
X584114Y539530D01*
X582993Y540992D01*
X577992Y545993D01*
X577395Y546451D01*
X577734Y547451D01*
X693451D01*
Y2549D01*
D02*
G37*
G36*
X690000Y54735D02*
X689168Y54180D01*
X688395Y54500D01*
X686605D01*
X684951Y53815D01*
X684500Y53364D01*
X683500Y53406D01*
Y67500D01*
X670500D01*
Y42000D01*
X683500D01*
Y46594D01*
X684500Y46636D01*
X684951Y46185D01*
X686605Y45500D01*
X688395D01*
X689168Y45820D01*
X690000Y45265D01*
Y37581D01*
X689021Y37531D01*
X689000Y37531D01*
X675479D01*
Y6469D01*
X689000D01*
X689021Y6469D01*
X690000Y6419D01*
Y5000D01*
X658326D01*
X657521Y5469D01*
X657521Y6000D01*
Y20500D01*
X649750D01*
X641979D01*
Y6000D01*
X641979Y5469D01*
X641173Y5000D01*
X595000D01*
Y47690D01*
X623940D01*
Y29000D01*
X624180Y27173D01*
X624885Y25470D01*
X625500Y24669D01*
Y20750D01*
X638500D01*
Y25401D01*
X638820Y26173D01*
X639060Y28000D01*
X638820Y29827D01*
X638500Y30600D01*
Y35250D01*
X638060D01*
Y54750D01*
X637820Y56577D01*
X637500Y57350D01*
Y61722D01*
X638500Y62136D01*
X639451Y61185D01*
X641105Y60500D01*
X642895D01*
X644549Y61185D01*
X645500Y62136D01*
X646500Y61722D01*
Y56250D01*
X652500D01*
Y68500D01*
X646500D01*
Y68278D01*
X645500Y67864D01*
X644549Y68815D01*
X642895Y69500D01*
X641105D01*
X639451Y68815D01*
X638393Y67757D01*
X637562Y67518D01*
X637206Y67500D01*
X637082Y67500D01*
X624500D01*
Y61810D01*
X602031D01*
X601500Y62605D01*
Y64395D01*
X600815Y66049D01*
X601278Y67000D01*
X617000D01*
Y85000D01*
X595000D01*
Y102000D01*
X603500D01*
Y112000D01*
Y122000D01*
X602170D01*
X601542Y123000D01*
X602000Y124105D01*
Y125895D01*
X601315Y127549D01*
X600834Y128030D01*
Y145000D01*
X690000D01*
Y54735D01*
D02*
G37*
%LPC*%
G36*
X96927Y504868D02*
X96768D01*
Y493768D01*
X107868D01*
Y493927D01*
X107009Y497131D01*
X105351Y500005D01*
X103005Y502351D01*
X100132Y504009D01*
X96927Y504868D01*
D02*
G37*
G36*
X48927D02*
X48768D01*
Y493768D01*
X59868D01*
Y493927D01*
X59010Y497131D01*
X57351Y500005D01*
X55005Y502351D01*
X52132Y504009D01*
X48927Y504868D01*
D02*
G37*
G36*
X93768D02*
X93609D01*
X90405Y504009D01*
X87532Y502351D01*
X85186Y500005D01*
X83527Y497131D01*
X82668Y493927D01*
Y493768D01*
X93768D01*
Y504868D01*
D02*
G37*
G36*
X45768D02*
X45609D01*
X42405Y504009D01*
X39532Y502351D01*
X37186Y500005D01*
X35527Y497131D01*
X34668Y493927D01*
Y493768D01*
X45768D01*
Y504868D01*
D02*
G37*
G36*
X509500Y497553D02*
Y490500D01*
X516553D01*
X516060Y492339D01*
X514922Y494311D01*
X513311Y495922D01*
X511339Y497060D01*
X509500Y497553D01*
D02*
G37*
G36*
X669650Y497650D02*
X662500D01*
Y490500D01*
X669650D01*
Y497650D01*
D02*
G37*
G36*
X506500Y497553D02*
X504661Y497060D01*
X502689Y495922D01*
X501078Y494311D01*
X499939Y492339D01*
X499447Y490500D01*
X506500D01*
Y497553D01*
D02*
G37*
G36*
X659500Y497650D02*
X652350D01*
Y490500D01*
X659500D01*
Y497650D01*
D02*
G37*
G36*
X612007Y496650D02*
X609993D01*
X608047Y496129D01*
X606303Y495121D01*
X604879Y493697D01*
X603871Y491953D01*
X603350Y490007D01*
Y487993D01*
X603871Y486047D01*
X604879Y484303D01*
X606303Y482878D01*
X608047Y481871D01*
X609993Y481350D01*
X612007D01*
X613953Y481871D01*
X615697Y482878D01*
X617122Y484303D01*
X618129Y486047D01*
X618650Y487993D01*
Y490007D01*
X618129Y491953D01*
X617122Y493697D01*
X615697Y495121D01*
X613953Y496129D01*
X612007Y496650D01*
D02*
G37*
G36*
X559007D02*
X556993D01*
X555047Y496129D01*
X553303Y495121D01*
X551878Y493697D01*
X550871Y491953D01*
X550350Y490007D01*
Y487993D01*
X550871Y486047D01*
X551878Y484303D01*
X553303Y482878D01*
X555047Y481871D01*
X556993Y481350D01*
X559007D01*
X560953Y481871D01*
X562697Y482878D01*
X564121Y484303D01*
X565129Y486047D01*
X565650Y487993D01*
Y490007D01*
X565129Y491953D01*
X564121Y493697D01*
X562697Y495121D01*
X560953Y496129D01*
X559007Y496650D01*
D02*
G37*
G36*
X484007D02*
X481993D01*
X480047Y496129D01*
X478303Y495121D01*
X476878Y493697D01*
X475871Y491953D01*
X475350Y490007D01*
Y487993D01*
X475871Y486047D01*
X476878Y484303D01*
X478303Y482878D01*
X480047Y481871D01*
X481993Y481350D01*
X484007D01*
X485953Y481871D01*
X487697Y482878D01*
X489121Y484303D01*
X490129Y486047D01*
X490650Y487993D01*
Y490007D01*
X490129Y491953D01*
X489121Y493697D01*
X487697Y495121D01*
X485953Y496129D01*
X484007Y496650D01*
D02*
G37*
G36*
X669650Y487500D02*
X662500D01*
Y480350D01*
X669650D01*
Y487500D01*
D02*
G37*
G36*
X659500D02*
X652350D01*
Y480350D01*
X659500D01*
Y487500D01*
D02*
G37*
G36*
X107868Y490768D02*
X96768D01*
Y479668D01*
X96927D01*
X100132Y480527D01*
X103005Y482186D01*
X105351Y484531D01*
X107009Y487405D01*
X107868Y490609D01*
Y490768D01*
D02*
G37*
G36*
X93768D02*
X82668D01*
Y490609D01*
X83527Y487405D01*
X85186Y484531D01*
X87532Y482186D01*
X90405Y480527D01*
X93609Y479668D01*
X93768D01*
Y490768D01*
D02*
G37*
G36*
X59868D02*
X48768D01*
Y479668D01*
X48927D01*
X52132Y480527D01*
X55005Y482186D01*
X57351Y484531D01*
X59010Y487405D01*
X59868Y490609D01*
Y490768D01*
D02*
G37*
G36*
X45768D02*
X34668D01*
Y490609D01*
X35527Y487405D01*
X37186Y484531D01*
X39532Y482186D01*
X42405Y480527D01*
X45609Y479668D01*
X45768D01*
Y490768D01*
D02*
G37*
G36*
X516553Y487500D02*
X508000D01*
X499447D01*
X499939Y485661D01*
X500592Y484531D01*
X500015Y483531D01*
X492979D01*
Y468500D01*
X508521D01*
Y480350D01*
X509139D01*
X511339Y480939D01*
X513311Y482078D01*
X514922Y483689D01*
X516060Y485661D01*
X516553Y487500D01*
D02*
G37*
G36*
X72524Y477808D02*
X70012D01*
X67586Y477157D01*
X65410Y475901D01*
X63634Y474125D01*
X62378Y471950D01*
X61728Y469524D01*
Y467012D01*
X62378Y464585D01*
X63634Y462410D01*
X65410Y460634D01*
X67586Y459378D01*
X70012Y458728D01*
X72524D01*
X74950Y459378D01*
X77126Y460634D01*
X78902Y462410D01*
X80158Y464585D01*
X80808Y467012D01*
Y469524D01*
X80158Y471950D01*
X78902Y474125D01*
X77126Y475901D01*
X74950Y477157D01*
X72524Y477808D01*
D02*
G37*
G36*
X508521Y465500D02*
X502250D01*
Y450469D01*
X508521D01*
Y465500D01*
D02*
G37*
G36*
X499250D02*
X492979D01*
Y450469D01*
X499250D01*
Y465500D01*
D02*
G37*
G36*
X96927Y456868D02*
X96768D01*
Y445768D01*
X107868D01*
Y445926D01*
X107009Y449131D01*
X105351Y452004D01*
X103005Y454350D01*
X100132Y456009D01*
X96927Y456868D01*
D02*
G37*
G36*
X48927D02*
X48768D01*
Y445768D01*
X59868D01*
Y445926D01*
X59010Y449131D01*
X57351Y452004D01*
X55005Y454350D01*
X52132Y456009D01*
X48927Y456868D01*
D02*
G37*
G36*
X93768D02*
X93609D01*
X90405Y456009D01*
X87532Y454350D01*
X85186Y452004D01*
X83527Y449131D01*
X82668Y445926D01*
Y445768D01*
X93768D01*
Y456868D01*
D02*
G37*
G36*
X45768D02*
X45609D01*
X42405Y456009D01*
X39532Y454350D01*
X37186Y452004D01*
X35527Y449131D01*
X34668Y445926D01*
Y445768D01*
X45768D01*
Y456868D01*
D02*
G37*
G36*
X107868Y442768D02*
X96768D01*
Y431668D01*
X96927D01*
X100132Y432526D01*
X103005Y434185D01*
X105351Y436531D01*
X107009Y439404D01*
X107868Y442609D01*
Y442768D01*
D02*
G37*
G36*
X93768D02*
X82668D01*
Y442609D01*
X83527Y439404D01*
X85186Y436531D01*
X87532Y434185D01*
X90405Y432526D01*
X93609Y431668D01*
X93768D01*
Y442768D01*
D02*
G37*
G36*
X59868D02*
X48768D01*
Y431668D01*
X48927D01*
X52132Y432526D01*
X55005Y434185D01*
X57351Y436531D01*
X59010Y439404D01*
X59868Y442609D01*
Y442768D01*
D02*
G37*
G36*
X45768D02*
X34668D01*
Y442609D01*
X35527Y439404D01*
X37186Y436531D01*
X39532Y434185D01*
X42405Y432526D01*
X45609Y431668D01*
X45768D01*
Y442768D01*
D02*
G37*
G36*
X513521Y436531D02*
X507250D01*
Y421500D01*
X513521D01*
Y436531D01*
D02*
G37*
G36*
X504250D02*
X497979D01*
Y421500D01*
X504250D01*
Y436531D01*
D02*
G37*
G36*
X513521Y418500D02*
X507250D01*
Y403469D01*
X513521D01*
Y418500D01*
D02*
G37*
G36*
X504250D02*
X497979D01*
Y403469D01*
X504250D01*
Y418500D01*
D02*
G37*
G36*
X669650Y400650D02*
X662500D01*
Y393500D01*
X669650D01*
Y400650D01*
D02*
G37*
G36*
X509500Y400553D02*
Y393500D01*
X516553D01*
X516060Y395339D01*
X514922Y397311D01*
X513311Y398922D01*
X511339Y400061D01*
X509500Y400553D01*
D02*
G37*
G36*
X506500D02*
X504661Y400061D01*
X502689Y398922D01*
X501078Y397311D01*
X499939Y395339D01*
X499447Y393500D01*
X506500D01*
Y400553D01*
D02*
G37*
G36*
X659500Y400650D02*
X652350D01*
Y393500D01*
X659500D01*
Y400650D01*
D02*
G37*
G36*
X612007Y399650D02*
X609993D01*
X608047Y399129D01*
X606303Y398121D01*
X604879Y396697D01*
X603871Y394953D01*
X603350Y393007D01*
Y390993D01*
X603871Y389047D01*
X604879Y387303D01*
X606303Y385878D01*
X608047Y384871D01*
X609993Y384350D01*
X612007D01*
X613953Y384871D01*
X615697Y385878D01*
X617122Y387303D01*
X618129Y389047D01*
X618650Y390993D01*
Y393007D01*
X618129Y394953D01*
X617122Y396697D01*
X615697Y398121D01*
X613953Y399129D01*
X612007Y399650D01*
D02*
G37*
G36*
X559007D02*
X556993D01*
X555047Y399129D01*
X553303Y398121D01*
X551879Y396697D01*
X550871Y394953D01*
X550350Y393007D01*
Y390993D01*
X550871Y389047D01*
X551879Y387303D01*
X553303Y385878D01*
X555047Y384871D01*
X556993Y384350D01*
X559007D01*
X560953Y384871D01*
X562697Y385878D01*
X564122Y387303D01*
X565129Y389047D01*
X565650Y390993D01*
Y393007D01*
X565129Y394953D01*
X564122Y396697D01*
X562697Y398121D01*
X560953Y399129D01*
X559007Y399650D01*
D02*
G37*
G36*
X484007D02*
X481993D01*
X480047Y399129D01*
X478303Y398121D01*
X476879Y396697D01*
X475871Y394953D01*
X475350Y393007D01*
Y390993D01*
X475871Y389047D01*
X476879Y387303D01*
X478303Y385878D01*
X480047Y384871D01*
X481993Y384350D01*
X484007D01*
X485953Y384871D01*
X487697Y385878D01*
X489122Y387303D01*
X490129Y389047D01*
X490650Y390993D01*
Y393007D01*
X490129Y394953D01*
X489122Y396697D01*
X487697Y398121D01*
X485953Y399129D01*
X484007Y399650D01*
D02*
G37*
G36*
X516553Y390500D02*
X509500D01*
Y383447D01*
X511339Y383940D01*
X513311Y385078D01*
X514922Y386689D01*
X516060Y388661D01*
X516553Y390500D01*
D02*
G37*
G36*
X506500D02*
X499447D01*
X499939Y388661D01*
X501078Y386689D01*
X502689Y385078D01*
X504661Y383940D01*
X506500Y383447D01*
Y390500D01*
D02*
G37*
G36*
X669650D02*
X662500D01*
Y383350D01*
X669650D01*
Y390500D01*
D02*
G37*
G36*
X659500D02*
X652350D01*
Y383350D01*
X659500D01*
Y390500D01*
D02*
G37*
G36*
X99427Y372368D02*
X99268D01*
Y361268D01*
X110368D01*
Y361426D01*
X109509Y364631D01*
X107851Y367504D01*
X105505Y369850D01*
X102632Y371509D01*
X99427Y372368D01*
D02*
G37*
G36*
X51427D02*
X51268D01*
Y361268D01*
X62368D01*
Y361426D01*
X61510Y364631D01*
X59851Y367504D01*
X57505Y369850D01*
X54632Y371509D01*
X51427Y372368D01*
D02*
G37*
G36*
X96268D02*
X96109D01*
X92905Y371509D01*
X90032Y369850D01*
X87686Y367504D01*
X86027Y364631D01*
X85168Y361426D01*
Y361268D01*
X96268D01*
Y372368D01*
D02*
G37*
G36*
X48268D02*
X48109D01*
X44905Y371509D01*
X42032Y369850D01*
X39686Y367504D01*
X38027Y364631D01*
X37168Y361426D01*
Y361268D01*
X48268D01*
Y372368D01*
D02*
G37*
G36*
X110368Y358268D02*
X99268D01*
Y347168D01*
X99427D01*
X102632Y348026D01*
X105505Y349685D01*
X107851Y352031D01*
X109509Y354904D01*
X110368Y358109D01*
Y358268D01*
D02*
G37*
G36*
X96268D02*
X85168D01*
Y358109D01*
X86027Y354904D01*
X87686Y352031D01*
X90032Y349685D01*
X92905Y348026D01*
X96109Y347168D01*
X96268D01*
Y358268D01*
D02*
G37*
G36*
X62368D02*
X51268D01*
Y347168D01*
X51427D01*
X54632Y348026D01*
X57505Y349685D01*
X59851Y352031D01*
X61510Y354904D01*
X62368Y358109D01*
Y358268D01*
D02*
G37*
G36*
X48268D02*
X37168D01*
Y358109D01*
X38027Y354904D01*
X39686Y352031D01*
X42032Y349685D01*
X44905Y348026D01*
X48109Y347168D01*
X48268D01*
Y358268D01*
D02*
G37*
G36*
X75024Y345308D02*
X72512D01*
X70086Y344657D01*
X67910Y343401D01*
X66134Y341625D01*
X64878Y339450D01*
X64228Y337024D01*
Y334512D01*
X64878Y332085D01*
X66134Y329910D01*
X67910Y328134D01*
X70086Y326878D01*
X72512Y326228D01*
X75024D01*
X77450Y326878D01*
X79626Y328134D01*
X81402Y329910D01*
X82658Y332085D01*
X83308Y334512D01*
Y337024D01*
X82658Y339450D01*
X81402Y341625D01*
X79626Y343401D01*
X77450Y344657D01*
X75024Y345308D01*
D02*
G37*
G36*
X99427Y324368D02*
X99268D01*
Y313268D01*
X110368D01*
Y313426D01*
X109509Y316631D01*
X107851Y319504D01*
X105505Y321850D01*
X102632Y323509D01*
X99427Y324368D01*
D02*
G37*
G36*
X51427D02*
X51268D01*
Y313268D01*
X62368D01*
Y313426D01*
X61510Y316631D01*
X59851Y319504D01*
X57505Y321850D01*
X54632Y323509D01*
X51427Y324368D01*
D02*
G37*
G36*
X96268D02*
X96109D01*
X92905Y323509D01*
X90032Y321850D01*
X87686Y319504D01*
X86027Y316631D01*
X85168Y313426D01*
Y313268D01*
X96268D01*
Y324368D01*
D02*
G37*
G36*
X48268D02*
X48109D01*
X44905Y323509D01*
X42032Y321850D01*
X39686Y319504D01*
X38027Y316631D01*
X37168Y313426D01*
Y313268D01*
X48268D01*
Y324368D01*
D02*
G37*
G36*
X110368Y310268D02*
X99268D01*
Y299168D01*
X99427D01*
X102632Y300026D01*
X105505Y301685D01*
X107851Y304031D01*
X109509Y306904D01*
X110368Y310109D01*
Y310268D01*
D02*
G37*
G36*
X96268D02*
X85168D01*
Y310109D01*
X86027Y306904D01*
X87686Y304031D01*
X90032Y301685D01*
X92905Y300026D01*
X96109Y299168D01*
X96268D01*
Y310268D01*
D02*
G37*
G36*
X62368D02*
X51268D01*
Y299168D01*
X51427D01*
X54632Y300026D01*
X57505Y301685D01*
X59851Y304031D01*
X61510Y306904D01*
X62368Y310109D01*
Y310268D01*
D02*
G37*
G36*
X48268D02*
X37168D01*
Y310109D01*
X38027Y306904D01*
X39686Y304031D01*
X42032Y301685D01*
X44905Y300026D01*
X48109Y299168D01*
X48268D01*
Y310268D01*
D02*
G37*
G36*
X99427Y239867D02*
X99268D01*
Y228768D01*
X110368D01*
Y228926D01*
X109509Y232131D01*
X107851Y235004D01*
X105505Y237350D01*
X102632Y239009D01*
X99427Y239867D01*
D02*
G37*
G36*
X51427D02*
X51268D01*
Y228768D01*
X62368D01*
Y228926D01*
X61510Y232131D01*
X59851Y235004D01*
X57505Y237350D01*
X54632Y239009D01*
X51427Y239867D01*
D02*
G37*
G36*
X96268D02*
X96109D01*
X92905Y239009D01*
X90032Y237350D01*
X87686Y235004D01*
X86027Y232131D01*
X85168Y228926D01*
Y228768D01*
X96268D01*
Y239867D01*
D02*
G37*
G36*
X48268D02*
X48109D01*
X44905Y239009D01*
X42032Y237350D01*
X39686Y235004D01*
X38027Y232131D01*
X37168Y228926D01*
Y228768D01*
X48268D01*
Y239867D01*
D02*
G37*
G36*
X637007Y496650D02*
X634993D01*
X633047Y496129D01*
X631303Y495121D01*
X629879Y493697D01*
X628872Y491953D01*
X628350Y490007D01*
Y487993D01*
X628872Y486047D01*
X628940Y485929D01*
Y395071D01*
X628871Y394953D01*
X628836Y394821D01*
X624608Y390592D01*
X623485Y389130D01*
X622780Y387427D01*
X622540Y385600D01*
Y293600D01*
X617600D01*
Y269600D01*
X625518D01*
X625649Y268600D01*
X624582Y268314D01*
X621618Y266603D01*
X619197Y264182D01*
X617486Y261218D01*
X616600Y257911D01*
Y257700D01*
X629600D01*
Y254700D01*
X616600D01*
Y254489D01*
X617486Y251182D01*
X619197Y248218D01*
X621618Y245798D01*
X624582Y244086D01*
X626769Y243500D01*
Y242465D01*
X624968Y241982D01*
X622232Y240402D01*
X619998Y238168D01*
X618418Y235432D01*
X617600Y232380D01*
Y229220D01*
X618418Y226168D01*
X619998Y223432D01*
X622232Y221198D01*
X624968Y219618D01*
X626769Y219135D01*
Y218100D01*
X624582Y217514D01*
X621618Y215803D01*
X619197Y213382D01*
X617486Y210418D01*
X616600Y207111D01*
Y206900D01*
X629600D01*
Y203900D01*
X616600D01*
Y203689D01*
X617486Y200382D01*
X619197Y197418D01*
X621618Y194998D01*
X624582Y193286D01*
X626769Y192700D01*
Y191665D01*
X624968Y191182D01*
X622232Y189602D01*
X619998Y187368D01*
X618418Y184632D01*
X617600Y181580D01*
Y178420D01*
X618418Y175368D01*
X619998Y172632D01*
X622232Y170398D01*
X624968Y168818D01*
X628020Y168000D01*
X631180D01*
X634232Y168818D01*
X636968Y170398D01*
X639202Y172632D01*
X640782Y175368D01*
X641600Y178420D01*
Y181580D01*
X640782Y184632D01*
X639202Y187368D01*
X636968Y189602D01*
X634232Y191182D01*
X632431Y191665D01*
Y192700D01*
X634618Y193286D01*
X637582Y194998D01*
X640003Y197418D01*
X641714Y200382D01*
X642300Y202569D01*
X643335D01*
X643818Y200768D01*
X645398Y198032D01*
X647632Y195798D01*
X650368Y194218D01*
X653420Y193400D01*
X656580D01*
X659632Y194218D01*
X662368Y195798D01*
X664602Y198032D01*
X666182Y200768D01*
X667000Y203820D01*
Y206980D01*
X666182Y210032D01*
X664602Y212768D01*
X662368Y215002D01*
X659632Y216582D01*
X656580Y217400D01*
X653420D01*
X650368Y216582D01*
X647632Y215002D01*
X645398Y212768D01*
X643818Y210032D01*
X643335Y208231D01*
X642300D01*
X641714Y210418D01*
X640003Y213382D01*
X637582Y215803D01*
X634618Y217514D01*
X632431Y218100D01*
Y219135D01*
X634232Y219618D01*
X636968Y221198D01*
X639202Y223432D01*
X640782Y226168D01*
X641600Y229220D01*
Y232380D01*
X640782Y235432D01*
X639202Y238168D01*
X636968Y240402D01*
X634232Y241982D01*
X632431Y242465D01*
Y243500D01*
X634618Y244086D01*
X637582Y245798D01*
X640003Y248218D01*
X641714Y251182D01*
X641800Y251503D01*
X642800D01*
X642886Y251182D01*
X644597Y248218D01*
X647018Y245798D01*
X649982Y244086D01*
X652169Y243500D01*
Y242465D01*
X650368Y241982D01*
X647632Y240402D01*
X645398Y238168D01*
X643818Y235432D01*
X643000Y232380D01*
Y229220D01*
X643818Y226168D01*
X645398Y223432D01*
X647632Y221198D01*
X650368Y219618D01*
X653420Y218800D01*
X656580D01*
X659632Y219618D01*
X662368Y221198D01*
X664602Y223432D01*
X666182Y226168D01*
X667000Y229220D01*
Y232380D01*
X666182Y235432D01*
X664602Y238168D01*
X662368Y240402D01*
X659632Y241982D01*
X657831Y242465D01*
Y243500D01*
X660018Y244086D01*
X662982Y245798D01*
X665403Y248218D01*
X667114Y251182D01*
X668000Y254489D01*
Y254700D01*
X655000D01*
Y257700D01*
X668000D01*
Y257911D01*
X667114Y261218D01*
X665403Y264182D01*
X662982Y266603D01*
X660018Y268314D01*
X657831Y268900D01*
Y269935D01*
X659632Y270418D01*
X662368Y271998D01*
X664602Y274232D01*
X666182Y276968D01*
X667000Y280020D01*
Y283180D01*
X666182Y286232D01*
X664602Y288968D01*
X662368Y291202D01*
X659632Y292782D01*
X656580Y293600D01*
X653420D01*
X650368Y292782D01*
X647632Y291202D01*
X645398Y288968D01*
X643818Y286232D01*
X643000Y283180D01*
Y280020D01*
X643818Y276968D01*
X645398Y274232D01*
X647632Y271998D01*
X650368Y270418D01*
X652169Y269935D01*
Y268900D01*
X649982Y268314D01*
X647018Y266603D01*
X644597Y264182D01*
X642886Y261218D01*
X642800Y260897D01*
X641800D01*
X641714Y261218D01*
X640003Y264182D01*
X637582Y266603D01*
X634618Y268314D01*
X633551Y268600D01*
X633682Y269600D01*
X641600D01*
Y293600D01*
X636660D01*
Y382676D01*
X638821Y384836D01*
X638953Y384871D01*
X640697Y385878D01*
X642122Y387303D01*
X643129Y389047D01*
X643650Y390993D01*
Y393007D01*
X643129Y394953D01*
X643061Y395071D01*
Y485929D01*
X643129Y486047D01*
X643650Y487993D01*
Y490007D01*
X643129Y491953D01*
X642122Y493697D01*
X640697Y495121D01*
X638953Y496129D01*
X637007Y496650D01*
D02*
G37*
G36*
X110368Y225767D02*
X99268D01*
Y214667D01*
X99427D01*
X102632Y215526D01*
X105505Y217185D01*
X107851Y219531D01*
X109509Y222404D01*
X110368Y225609D01*
Y225767D01*
D02*
G37*
G36*
X96268D02*
X85168D01*
Y225609D01*
X86027Y222404D01*
X87686Y219531D01*
X90032Y217185D01*
X92905Y215526D01*
X96109Y214667D01*
X96268D01*
Y225767D01*
D02*
G37*
G36*
X62368D02*
X51268D01*
Y214667D01*
X51427D01*
X54632Y215526D01*
X57505Y217185D01*
X59851Y219531D01*
X61510Y222404D01*
X62368Y225609D01*
Y225767D01*
D02*
G37*
G36*
X48268D02*
X37168D01*
Y225609D01*
X38027Y222404D01*
X39686Y219531D01*
X42032Y217185D01*
X44905Y215526D01*
X48109Y214667D01*
X48268D01*
Y225767D01*
D02*
G37*
G36*
X75024Y212808D02*
X72512D01*
X70086Y212157D01*
X67910Y210902D01*
X66134Y209125D01*
X64878Y206950D01*
X64228Y204524D01*
Y202012D01*
X64878Y199585D01*
X66134Y197410D01*
X67910Y195634D01*
X70086Y194378D01*
X72512Y193728D01*
X75024D01*
X77450Y194378D01*
X79626Y195634D01*
X81402Y197410D01*
X82658Y199585D01*
X83308Y202012D01*
Y204524D01*
X82658Y206950D01*
X81402Y209125D01*
X79626Y210902D01*
X77450Y212157D01*
X75024Y212808D01*
D02*
G37*
G36*
X99427Y191868D02*
X99268D01*
Y180768D01*
X110368D01*
Y180926D01*
X109509Y184131D01*
X107851Y187004D01*
X105505Y189350D01*
X102632Y191009D01*
X99427Y191868D01*
D02*
G37*
G36*
X51427D02*
X51268D01*
Y180768D01*
X62368D01*
Y180926D01*
X61510Y184131D01*
X59851Y187004D01*
X57505Y189350D01*
X54632Y191009D01*
X51427Y191868D01*
D02*
G37*
G36*
X96268D02*
X96109D01*
X92905Y191009D01*
X90032Y189350D01*
X87686Y187004D01*
X86027Y184131D01*
X85168Y180926D01*
Y180768D01*
X96268D01*
Y191868D01*
D02*
G37*
G36*
X48268D02*
X48109D01*
X44905Y191009D01*
X42032Y189350D01*
X39686Y187004D01*
X38027Y184131D01*
X37168Y180926D01*
Y180768D01*
X48268D01*
Y191868D01*
D02*
G37*
G36*
X110368Y177768D02*
X99268D01*
Y166668D01*
X99427D01*
X102632Y167526D01*
X105505Y169185D01*
X107851Y171531D01*
X109509Y174404D01*
X110368Y177609D01*
Y177768D01*
D02*
G37*
G36*
X96268D02*
X85168D01*
Y177609D01*
X86027Y174404D01*
X87686Y171531D01*
X90032Y169185D01*
X92905Y167526D01*
X96109Y166668D01*
X96268D01*
Y177768D01*
D02*
G37*
G36*
X62368D02*
X51268D01*
Y166668D01*
X51427D01*
X54632Y167526D01*
X57505Y169185D01*
X59851Y171531D01*
X61510Y174404D01*
X62368Y177609D01*
Y177768D01*
D02*
G37*
G36*
X48268D02*
X37168D01*
Y177609D01*
X38027Y174404D01*
X39686Y171531D01*
X42032Y169185D01*
X44905Y167526D01*
X48109Y166668D01*
X48268D01*
Y177768D01*
D02*
G37*
G36*
X494895Y158500D02*
X493105D01*
X491451Y157815D01*
X490185Y156549D01*
X489500Y154895D01*
Y153105D01*
X490185Y151451D01*
X491451Y150185D01*
X493105Y149500D01*
X494895D01*
X496549Y150185D01*
X497815Y151451D01*
X498500Y153105D01*
Y154895D01*
X497815Y156549D01*
X496549Y157815D01*
X494895Y158500D01*
D02*
G37*
G36*
X541500Y142250D02*
X535500D01*
Y135500D01*
X541500D01*
Y142250D01*
D02*
G37*
G36*
X532500D02*
X526500D01*
Y135500D01*
X532500D01*
Y142250D01*
D02*
G37*
G36*
X541500Y132500D02*
X535500D01*
Y125750D01*
X541500D01*
Y132500D01*
D02*
G37*
G36*
X532500D02*
X526500D01*
Y125750D01*
X532500D01*
Y132500D01*
D02*
G37*
G36*
X541500Y122250D02*
X535500D01*
Y115500D01*
X541500D01*
Y122250D01*
D02*
G37*
G36*
X532500D02*
X526500D01*
Y115500D01*
X532500D01*
Y122250D01*
D02*
G37*
G36*
X541500Y112500D02*
X535500D01*
Y105750D01*
X541500D01*
Y112500D01*
D02*
G37*
G36*
X532500D02*
X526500D01*
Y105750D01*
X532500D01*
Y112500D01*
D02*
G37*
G36*
X99427Y107368D02*
X99268D01*
Y96268D01*
X110368D01*
Y96427D01*
X109509Y99631D01*
X107851Y102505D01*
X105505Y104851D01*
X102632Y106509D01*
X99427Y107368D01*
D02*
G37*
G36*
X51427D02*
X51268D01*
Y96268D01*
X62368D01*
Y96427D01*
X61510Y99631D01*
X59851Y102505D01*
X57505Y104851D01*
X54632Y106509D01*
X51427Y107368D01*
D02*
G37*
G36*
X96268D02*
X96109D01*
X92905Y106509D01*
X90032Y104851D01*
X87686Y102505D01*
X86027Y99631D01*
X85168Y96427D01*
Y96268D01*
X96268D01*
Y107368D01*
D02*
G37*
G36*
X48268D02*
X48109D01*
X44905Y106509D01*
X42032Y104851D01*
X39686Y102505D01*
X38027Y99631D01*
X37168Y96427D01*
Y96268D01*
X48268D01*
Y107368D01*
D02*
G37*
G36*
X558639Y96779D02*
X552639D01*
Y90029D01*
X558639D01*
Y96779D01*
D02*
G37*
G36*
X549639D02*
X543639D01*
Y90029D01*
X549639D01*
Y96779D01*
D02*
G37*
G36*
X446895Y242500D02*
X445105D01*
X443451Y241815D01*
X442185Y240549D01*
X441500Y238895D01*
Y237105D01*
X442185Y235451D01*
X443451Y234185D01*
X445105Y233500D01*
X445785D01*
X466666Y212619D01*
Y84000D01*
X466799Y83330D01*
X465878Y82837D01*
X457334Y91381D01*
Y102970D01*
X457815Y103451D01*
X458500Y105105D01*
Y106895D01*
X457815Y108549D01*
X456549Y109815D01*
X454895Y110500D01*
X453105D01*
X451451Y109815D01*
X450185Y108549D01*
X449500Y106895D01*
Y105105D01*
X450185Y103451D01*
X450666Y102970D01*
Y90000D01*
X450920Y88724D01*
X451642Y87642D01*
X498309Y40976D01*
X499391Y40253D01*
X500667Y39999D01*
X548333D01*
X549609Y40253D01*
X550691Y40976D01*
X553215Y43500D01*
X553895D01*
X555549Y44185D01*
X556815Y45451D01*
X557500Y47105D01*
Y48895D01*
X556815Y50549D01*
X555549Y51815D01*
X553895Y52500D01*
X552418D01*
X551832Y53150D01*
X551717Y53422D01*
X552000Y54105D01*
Y55895D01*
X551315Y57549D01*
X550049Y58815D01*
X548395Y59500D01*
X546605D01*
X544951Y58815D01*
X543685Y57549D01*
X543226Y56441D01*
X541119Y54334D01*
X504381D01*
X491139Y67576D01*
X491522Y68500D01*
X491895D01*
X493549Y69185D01*
X494815Y70451D01*
X495500Y72105D01*
Y73895D01*
X494815Y75549D01*
X493549Y76815D01*
X491895Y77500D01*
X490105D01*
X488451Y76815D01*
X487185Y75549D01*
X486500Y73895D01*
Y73522D01*
X485576Y73139D01*
X473334Y85381D01*
Y214000D01*
X473080Y215276D01*
X472357Y216357D01*
X450500Y238215D01*
Y238895D01*
X449815Y240549D01*
X448549Y241815D01*
X446895Y242500D01*
D02*
G37*
G36*
X110368Y93268D02*
X99268D01*
Y82168D01*
X99427D01*
X102632Y83027D01*
X105505Y84685D01*
X107851Y87031D01*
X109509Y89905D01*
X110368Y93109D01*
Y93268D01*
D02*
G37*
G36*
X96268D02*
X85168D01*
Y93109D01*
X86027Y89905D01*
X87686Y87031D01*
X90032Y84685D01*
X92905Y83027D01*
X96109Y82168D01*
X96268D01*
Y93268D01*
D02*
G37*
G36*
X62368D02*
X51268D01*
Y82168D01*
X51427D01*
X54632Y83027D01*
X57505Y84685D01*
X59851Y87031D01*
X61510Y89905D01*
X62368Y93109D01*
Y93268D01*
D02*
G37*
G36*
X48268D02*
X37168D01*
Y93109D01*
X38027Y89905D01*
X39686Y87031D01*
X42032Y84685D01*
X44905Y83027D01*
X48109Y82168D01*
X48268D01*
Y93268D01*
D02*
G37*
G36*
X558639Y88526D02*
X552640D01*
Y81777D01*
X558639D01*
Y88526D01*
D02*
G37*
G36*
X549640D02*
X543640D01*
Y81777D01*
X549640D01*
Y88526D01*
D02*
G37*
G36*
X558639Y78776D02*
X552640D01*
Y72027D01*
X558639D01*
Y78776D01*
D02*
G37*
G36*
X549640D02*
X543640D01*
Y72027D01*
X549640D01*
Y78776D01*
D02*
G37*
G36*
X75024Y80308D02*
X72512D01*
X70086Y79657D01*
X67910Y78401D01*
X66134Y76625D01*
X64878Y74450D01*
X64228Y72024D01*
Y69512D01*
X64878Y67085D01*
X66134Y64910D01*
X67910Y63134D01*
X70086Y61878D01*
X72512Y61228D01*
X75024D01*
X77450Y61878D01*
X79626Y63134D01*
X81402Y64910D01*
X82658Y67085D01*
X83308Y69512D01*
Y72024D01*
X82658Y74450D01*
X81402Y76625D01*
X79626Y78401D01*
X77450Y79657D01*
X75024Y80308D01*
D02*
G37*
G36*
X99427Y59368D02*
X99268D01*
Y48268D01*
X110368D01*
Y48426D01*
X109509Y51631D01*
X107851Y54504D01*
X105505Y56850D01*
X102632Y58509D01*
X99427Y59368D01*
D02*
G37*
G36*
X51427D02*
X51268D01*
Y48268D01*
X62368D01*
Y48426D01*
X61510Y51631D01*
X59851Y54504D01*
X57505Y56850D01*
X54632Y58509D01*
X51427Y59368D01*
D02*
G37*
G36*
X96268D02*
X96109D01*
X92905Y58509D01*
X90032Y56850D01*
X87686Y54504D01*
X86027Y51631D01*
X85168Y48426D01*
Y48268D01*
X96268D01*
Y59368D01*
D02*
G37*
G36*
X48268D02*
X48109D01*
X44905Y58509D01*
X42032Y56850D01*
X39686Y54504D01*
X38027Y51631D01*
X37168Y48426D01*
Y48268D01*
X48268D01*
Y59368D01*
D02*
G37*
G36*
X110368Y45268D02*
X99268D01*
Y34168D01*
X99427D01*
X102632Y35026D01*
X105505Y36685D01*
X107851Y39031D01*
X109509Y41904D01*
X110368Y45109D01*
Y45268D01*
D02*
G37*
G36*
X96268D02*
X85168D01*
Y45109D01*
X86027Y41904D01*
X87686Y39031D01*
X90032Y36685D01*
X92905Y35026D01*
X96109Y34168D01*
X96268D01*
Y45268D01*
D02*
G37*
G36*
X62368D02*
X51268D01*
Y34168D01*
X51427D01*
X54632Y35026D01*
X57505Y36685D01*
X59851Y39031D01*
X61510Y41904D01*
X62368Y45109D01*
Y45268D01*
D02*
G37*
G36*
X48268D02*
X37168D01*
Y45109D01*
X38027Y41904D01*
X39686Y39031D01*
X42032Y36685D01*
X44905Y35026D01*
X48109Y34168D01*
X48268D01*
Y45268D01*
D02*
G37*
G36*
X568395Y54500D02*
X566605D01*
X564951Y53815D01*
X563685Y52549D01*
X563000Y50895D01*
Y49105D01*
X563685Y47451D01*
X563711Y47426D01*
X546619Y30334D01*
X475030D01*
X474549Y30815D01*
X472895Y31500D01*
X471105D01*
X469451Y30815D01*
X468185Y29549D01*
X467500Y27895D01*
Y26105D01*
X468185Y24451D01*
X469451Y23185D01*
X471105Y22500D01*
X472895D01*
X474549Y23185D01*
X475030Y23666D01*
X548000D01*
X549276Y23920D01*
X550358Y24643D01*
X569857Y44142D01*
X570580Y45224D01*
X570834Y46500D01*
Y46970D01*
X571315Y47451D01*
X572000Y49105D01*
Y50895D01*
X571315Y52549D01*
X570049Y53815D01*
X568395Y54500D01*
D02*
G37*
G36*
X673250Y127000D02*
X655500D01*
Y114750D01*
X673250D01*
Y127000D01*
D02*
G37*
G36*
X652500D02*
X634750D01*
Y114750D01*
X652500D01*
Y127000D01*
D02*
G37*
G36*
X618000Y122000D02*
X606500D01*
Y113500D01*
X618000D01*
Y122000D01*
D02*
G37*
G36*
Y110500D02*
X606500D01*
Y102000D01*
X618000D01*
Y110500D01*
D02*
G37*
G36*
X673250Y111750D02*
X655500D01*
Y99500D01*
X673250D01*
Y111750D01*
D02*
G37*
G36*
X652500D02*
X634750D01*
Y99500D01*
X652500D01*
Y111750D01*
D02*
G37*
G36*
X661500Y68500D02*
X655500D01*
Y56250D01*
X661500D01*
Y68500D01*
D02*
G37*
G36*
Y53250D02*
X655500D01*
Y41000D01*
X661500D01*
Y53250D01*
D02*
G37*
G36*
X652500D02*
X646500D01*
Y41000D01*
X652500D01*
Y53250D01*
D02*
G37*
G36*
X657521Y38531D02*
X651250D01*
Y23500D01*
X657521D01*
Y38531D01*
D02*
G37*
G36*
X648250D02*
X641979D01*
Y23500D01*
X648250D01*
Y38531D01*
D02*
G37*
G36*
X622500Y35250D02*
X609500D01*
Y20750D01*
X609500D01*
X609374Y19802D01*
X609164Y19500D01*
X609105D01*
X607451Y18815D01*
X606185Y17549D01*
X605500Y15895D01*
Y14105D01*
X606185Y12451D01*
X607451Y11185D01*
X609105Y10500D01*
X610895D01*
X612549Y11185D01*
X613815Y12451D01*
X614500Y14105D01*
Y14785D01*
X618358Y18642D01*
X619080Y19724D01*
X619284Y20750D01*
X622500D01*
Y35250D01*
D02*
G37*
%LPD*%
D17*
X598000Y72000D02*
Y75000D01*
X597000Y71000D02*
X598000Y72000D01*
X597000Y63500D02*
Y71000D01*
X503000Y51000D02*
X542500D01*
X546500Y55000D01*
X547500D01*
X548000Y27000D02*
X567500Y46500D01*
Y50000D01*
X597500Y125000D02*
Y248500D01*
X470000Y376000D02*
X597500Y248500D01*
X500667Y43333D02*
X548333D01*
X553000Y48000D01*
X445000Y504000D02*
X470000Y479000D01*
X681750Y50000D02*
X687500D01*
X472000Y27000D02*
X548000D01*
X454000Y90000D02*
Y106000D01*
X448000Y367000D02*
X563000Y252000D01*
X616000Y21000D02*
Y28000D01*
X470000Y84000D02*
X503000Y51000D01*
X566950Y121000D02*
X574000D01*
X446000Y238000D02*
X470000Y214000D01*
X610000Y15000D02*
X616000Y21000D01*
X563000Y171000D02*
Y252000D01*
X470000Y376000D02*
Y479000D01*
Y84000D02*
Y214000D01*
X454000Y90000D02*
X500667Y43333D01*
X567139Y108139D02*
X571000Y112000D01*
X677000Y54750D02*
X681750Y50000D01*
X567139Y98279D02*
X567140Y98279D01*
X567139Y98279D02*
Y108139D01*
X550000Y134000D02*
X551050Y132950D01*
X565000Y119050D02*
X566950Y121000D01*
D19*
X632000Y28000D02*
D03*
X616000D02*
D03*
X567139Y98279D02*
D03*
X551139D02*
D03*
X567140Y80276D02*
D03*
X551139D02*
D03*
X550000Y114000D02*
D03*
X534000D02*
D03*
X550000Y134000D02*
D03*
X534000D02*
D03*
D55*
X569000Y152481D02*
X584000Y137481D01*
X564000Y152481D02*
X569000D01*
X494000Y222481D02*
X564000Y152481D01*
X629600Y281600D02*
Y385600D01*
X636000Y392000D01*
X305000Y470038D02*
Y516000D01*
X305000Y72000D02*
Y262000D01*
X132000Y84000D02*
Y345000D01*
X307000Y518000D02*
X523000D01*
X305000Y262000D02*
X305000Y470038D01*
Y516000D02*
X307000Y518000D01*
X132000Y345000D02*
Y477000D01*
Y528000D01*
X523000Y518000D02*
X533000Y508000D01*
X494000Y222481D02*
Y239000D01*
X584000Y54750D02*
Y137481D01*
Y54750D02*
X631000D01*
Y29000D02*
X632000Y28000D01*
X631000Y29000D02*
Y54750D01*
X494000Y239000D02*
X495000Y240000D01*
X636000Y393000D02*
Y489000D01*
X605000Y112000D02*
X606250Y113250D01*
X654000D01*
X657000Y116250D02*
Y180000D01*
X654000Y113250D02*
X657000Y116250D01*
X578000Y480000D02*
Y536000D01*
X538250Y420000D02*
Y440250D01*
X578000Y480000D01*
X533000Y489000D02*
Y508000D01*
X145000Y541000D02*
X573000D01*
X578000Y536000D01*
X132000Y528000D02*
X145000Y541000D01*
D56*
X505750Y420000D02*
X508000Y417750D01*
Y392000D02*
Y417750D01*
X533000Y464593D02*
Y489000D01*
X500750Y481750D02*
X508000Y489000D01*
X500750Y467000D02*
Y481750D01*
X538250Y396250D02*
Y420000D01*
X534000Y392000D02*
X538250Y396250D01*
D57*
X629600Y180000D02*
D03*
X655000Y256200D02*
D03*
X629600Y205400D02*
D03*
Y256200D02*
D03*
Y230800D02*
D03*
X655000Y281600D02*
D03*
Y230800D02*
D03*
Y205400D02*
D03*
Y180000D02*
D03*
D58*
X508000Y392000D02*
D03*
X533000D02*
D03*
X558000D02*
D03*
X483000D02*
D03*
X611000D02*
D03*
X636000D02*
D03*
X508000Y489000D02*
D03*
X533000D02*
D03*
X558000D02*
D03*
X483000D02*
D03*
X611000D02*
D03*
X636000D02*
D03*
D59*
X661000Y392000D02*
D03*
X661000Y489000D02*
D03*
D60*
X95268Y492268D02*
D03*
X47268D02*
D03*
X95268Y444268D02*
D03*
X47268D02*
D03*
X97768Y359767D02*
D03*
Y311768D02*
D03*
X49768Y359767D02*
D03*
Y311768D02*
D03*
X97768Y227267D02*
D03*
X49768D02*
D03*
Y179268D02*
D03*
X97768D02*
D03*
Y94768D02*
D03*
X49768D02*
D03*
X97768Y46768D02*
D03*
X49768D02*
D03*
D61*
X73768Y70768D02*
D03*
Y203268D02*
D03*
Y335768D02*
D03*
X71268Y468268D02*
D03*
D62*
X629600Y281600D02*
D03*
D63*
X597000Y63500D02*
D03*
X573000Y161000D02*
D03*
X642000Y65000D02*
D03*
X494000Y154000D02*
D03*
X567500Y50000D02*
D03*
X597500Y125000D02*
D03*
X605000Y140000D02*
D03*
X547500Y55000D02*
D03*
X553000Y48000D02*
D03*
X563000Y171000D02*
D03*
X305000Y126000D02*
D03*
X685000Y140000D02*
D03*
X635000Y132500D02*
D03*
X132000Y345000D02*
D03*
X472000Y27000D02*
D03*
X670000Y135000D02*
D03*
X571000Y112000D02*
D03*
X132000Y477000D02*
D03*
X447000Y519000D02*
D03*
X610000Y15000D02*
D03*
X306000Y516000D02*
D03*
X305000Y262000D02*
D03*
X306000Y340500D02*
D03*
X615000Y132500D02*
D03*
X645000Y140000D02*
D03*
X306038Y470038D02*
D03*
X495000Y240000D02*
D03*
X491000Y73000D02*
D03*
X307353Y76000D02*
D03*
X448000Y367000D02*
D03*
X454000Y106000D02*
D03*
X574000Y121000D02*
D03*
X132000Y83000D02*
D03*
X687500Y50000D02*
D03*
X645000Y92500D02*
D03*
X445000Y504000D02*
D03*
X625000Y140000D02*
D03*
X306000Y208000D02*
D03*
X305000Y394501D02*
D03*
X133000Y212000D02*
D03*
X446000Y238000D02*
D03*
D64*
X565000Y119050D02*
D03*
Y132950D02*
D03*
D65*
X500750Y467000D02*
D03*
X533250D02*
D03*
X505750Y420000D02*
D03*
X538250D02*
D03*
X682250Y22000D02*
D03*
X649750D02*
D03*
D66*
X605000Y76000D02*
D03*
Y112000D02*
D03*
D67*
X677000Y54750D02*
D03*
X654000D02*
D03*
X631000D02*
D03*
D68*
X654000Y113250D02*
D03*
D69*
X567140Y80276D02*
Y98279D01*
X550000Y114000D02*
Y134000D01*
X551050Y132950D02*
X565000D01*
M02*
