G04*
G04 #@! TF.GenerationSoftware,Altium Limited,Altium Designer,25.6.2 (33)*
G04*
G04 Layer_Color=16711935*
%FSLAX44Y44*%
%MOMM*%
G71*
G04*
G04 #@! TF.SameCoordinates,42BA56CB-4CE2-47E9-A465-7F88C4280AAA*
G04*
G04*
G04 #@! TF.FilePolarity,Negative*
G04*
G01*
G75*
%ADD55C,2.0200*%
%ADD56C,1.6080*%
%ADD57C,2.1000*%
%ADD58C,1.2300*%
%ADD59R,1.2300X1.2300*%
%ADD60R,2.1000X2.1000*%
%ADD61C,0.7000*%
D55*
X109000Y162000D02*
D03*
X61000D02*
D03*
Y210000D02*
D03*
X109000D02*
D03*
X61000Y581000D02*
D03*
Y629000D02*
D03*
X109000D02*
D03*
Y581000D02*
D03*
X60000Y441000D02*
D03*
Y489000D02*
D03*
X108000D02*
D03*
Y441000D02*
D03*
X60000Y301000D02*
D03*
Y349000D02*
D03*
X108000D02*
D03*
Y301000D02*
D03*
D56*
X85000Y186000D02*
D03*
Y605000D02*
D03*
X84000Y465000D02*
D03*
Y325000D02*
D03*
D57*
X837500Y369550D02*
D03*
X862900Y420350D02*
D03*
X837500D02*
D03*
X862900Y344150D02*
D03*
Y369550D02*
D03*
Y394950D02*
D03*
Y445750D02*
D03*
X837500Y344150D02*
D03*
Y394950D02*
D03*
D58*
X597000Y697000D02*
D03*
X622000D02*
D03*
X647000D02*
D03*
X572000D02*
D03*
X700000D02*
D03*
X725000D02*
D03*
D59*
X750000D02*
D03*
D60*
X837500Y445750D02*
D03*
D61*
X321000Y589000D02*
D03*
X275000Y635000D02*
D03*
X222000Y530000D02*
D03*
X320000Y449000D02*
D03*
X274000Y495000D02*
D03*
X221000Y390000D02*
D03*
X321000Y170000D02*
D03*
X275000Y216000D02*
D03*
X222000Y111000D02*
D03*
X320000Y309000D02*
D03*
X274000Y355000D02*
D03*
X221000Y250000D02*
D03*
X579000Y433000D02*
D03*
X661000Y393000D02*
D03*
X604000Y423020D02*
D03*
X607391Y415194D02*
D03*
X790002Y75001D02*
D03*
X780002Y55001D02*
D03*
X790002Y35001D02*
D03*
X780002Y15001D02*
D03*
X770002Y75001D02*
D03*
X760002Y55001D02*
D03*
X770002Y35001D02*
D03*
X760002Y15001D02*
D03*
X750002Y75001D02*
D03*
X740002Y55001D02*
D03*
X750002Y35001D02*
D03*
X740002Y15001D02*
D03*
X730002Y75001D02*
D03*
X720002Y55001D02*
D03*
X730002Y35001D02*
D03*
X720002Y15001D02*
D03*
X710002Y75001D02*
D03*
X700002Y55001D02*
D03*
X710002Y35001D02*
D03*
X700002Y15001D02*
D03*
X690002Y75001D02*
D03*
X680002Y55001D02*
D03*
X690002Y35001D02*
D03*
X680002Y15001D02*
D03*
X670002Y75001D02*
D03*
X660001Y55001D02*
D03*
X670002Y35001D02*
D03*
X660001Y15001D02*
D03*
X650001Y75001D02*
D03*
X640001Y55001D02*
D03*
X650001Y35001D02*
D03*
X640001Y15001D02*
D03*
X630001Y75001D02*
D03*
X620001Y55001D02*
D03*
X630001Y35001D02*
D03*
X620001Y15001D02*
D03*
X610001Y75001D02*
D03*
X600001Y55001D02*
D03*
X610001Y35001D02*
D03*
X600001Y15001D02*
D03*
X590001Y75001D02*
D03*
X580001Y55001D02*
D03*
X590001Y35001D02*
D03*
X580001Y15001D02*
D03*
X570001Y75001D02*
D03*
X560001Y55001D02*
D03*
X570001Y35001D02*
D03*
X560001Y15001D02*
D03*
X550001Y75001D02*
D03*
X540001Y55001D02*
D03*
X550001Y35001D02*
D03*
X540001Y15001D02*
D03*
X530001Y75001D02*
D03*
X520001Y55001D02*
D03*
X530001Y35001D02*
D03*
X520001Y15001D02*
D03*
X510001Y75001D02*
D03*
X500001Y55001D02*
D03*
X510001Y35001D02*
D03*
X500001Y15001D02*
D03*
X490001Y75001D02*
D03*
X480001Y55001D02*
D03*
X490001Y35001D02*
D03*
X480001Y15001D02*
D03*
X470001Y75001D02*
D03*
X460001Y55001D02*
D03*
X470001Y35001D02*
D03*
X460001Y15001D02*
D03*
X450001Y75001D02*
D03*
X440001Y55001D02*
D03*
X450001Y35001D02*
D03*
X440001Y15001D02*
D03*
X430001Y75001D02*
D03*
X420001Y55001D02*
D03*
X430001Y35001D02*
D03*
X420001Y15001D02*
D03*
X410001Y75001D02*
D03*
X400001Y55001D02*
D03*
X410001Y35001D02*
D03*
X400001Y15001D02*
D03*
X390001Y75001D02*
D03*
X380001Y55001D02*
D03*
X390001Y35001D02*
D03*
X380001Y15001D02*
D03*
X370001Y75001D02*
D03*
X360001Y55001D02*
D03*
X370001Y35001D02*
D03*
X360001Y15001D02*
D03*
X350001Y75001D02*
D03*
X340001Y55001D02*
D03*
X350001Y35001D02*
D03*
X340001Y15001D02*
D03*
X330001Y75001D02*
D03*
X320001Y55001D02*
D03*
X330001Y35001D02*
D03*
X320001Y15001D02*
D03*
X310001Y75001D02*
D03*
X300001Y55001D02*
D03*
X310001Y35001D02*
D03*
X300001Y15001D02*
D03*
X290001Y75001D02*
D03*
X280001Y55001D02*
D03*
X290001Y35001D02*
D03*
X280001Y15001D02*
D03*
X510001Y755001D02*
D03*
X500001Y735001D02*
D03*
X510001Y715001D02*
D03*
X500001Y695001D02*
D03*
X490001Y755001D02*
D03*
X480001Y735001D02*
D03*
X490001Y715001D02*
D03*
X480001Y695001D02*
D03*
X470001Y755001D02*
D03*
X460001Y735001D02*
D03*
X470001Y715001D02*
D03*
X460001Y695001D02*
D03*
X450001Y755001D02*
D03*
X440001Y735001D02*
D03*
X450001Y715001D02*
D03*
X440001Y695001D02*
D03*
X430001Y755001D02*
D03*
X420001Y735001D02*
D03*
X430001Y715001D02*
D03*
X420001Y695001D02*
D03*
X410001Y755001D02*
D03*
X400001Y735001D02*
D03*
X410001Y715001D02*
D03*
X400001Y695001D02*
D03*
X390001Y755001D02*
D03*
X380001Y735001D02*
D03*
X390001Y715001D02*
D03*
X380001Y695001D02*
D03*
X370001Y755001D02*
D03*
X360001Y735001D02*
D03*
X370001Y715001D02*
D03*
X360001Y695001D02*
D03*
X350001Y755001D02*
D03*
X340001Y735001D02*
D03*
X350001Y715001D02*
D03*
X340001Y695001D02*
D03*
X330001Y755001D02*
D03*
X320001Y735001D02*
D03*
X330001Y715001D02*
D03*
X320001Y695001D02*
D03*
X310001Y755001D02*
D03*
X300001Y735001D02*
D03*
X310001Y715001D02*
D03*
X300001Y695001D02*
D03*
X290001Y755001D02*
D03*
X280001Y735001D02*
D03*
X290001Y715001D02*
D03*
X280001Y695001D02*
D03*
X481000Y302000D02*
D03*
X652000Y334000D02*
D03*
X480000Y172000D02*
D03*
X659000Y413000D02*
D03*
X480000Y442000D02*
D03*
X636000Y452000D02*
D03*
X612000Y464000D02*
D03*
X488000Y577000D02*
D03*
X767000Y435000D02*
D03*
X621000Y616000D02*
D03*
M02*
