G04*
G04 #@! TF.GenerationSoftware,Altium Limited,Altium Designer,25.6.2 (33)*
G04*
G04 Layer_Color=16711935*
%FSLAX44Y44*%
%MOMM*%
G71*
G04*
G04 #@! TF.SameCoordinates,F5E6062F-8FAF-4D23-8B74-0684357ABDF0*
G04*
G04*
G04 #@! TF.FilePolarity,Negative*
G04*
G01*
G75*
%ADD35R,1.0000X1.1500*%
%ADD48C,2.1000*%
%ADD49C,1.2300*%
%ADD50R,1.2300X1.2300*%
%ADD51C,2.0200*%
%ADD52C,1.6080*%
%ADD53R,2.1000X2.1000*%
%ADD54C,0.6000*%
%ADD70R,1.0700X0.7700*%
%ADD71R,1.0542X2.8062*%
%ADD72R,2.0600X1.4600*%
%ADD73R,2.1000X1.5000*%
%ADD74R,1.0000X2.2500*%
%ADD75R,3.3500X2.2500*%
D35*
X632000Y28000D02*
D03*
X616000D02*
D03*
X567139Y98279D02*
D03*
X551139D02*
D03*
X567140Y80276D02*
D03*
X551139D02*
D03*
X550000Y114000D02*
D03*
X534000D02*
D03*
X550000Y134000D02*
D03*
X534000D02*
D03*
D48*
X629600Y180000D02*
D03*
X655000Y256200D02*
D03*
X629600Y205400D02*
D03*
Y256200D02*
D03*
Y230800D02*
D03*
X655000Y281600D02*
D03*
Y230800D02*
D03*
Y205400D02*
D03*
Y180000D02*
D03*
D49*
X508000Y392000D02*
D03*
X533000D02*
D03*
X558000D02*
D03*
X483000D02*
D03*
X611000D02*
D03*
X636000D02*
D03*
X508000Y489000D02*
D03*
X533000D02*
D03*
X558000D02*
D03*
X483000D02*
D03*
X611000D02*
D03*
X636000D02*
D03*
D50*
X661000Y392000D02*
D03*
X661000Y489000D02*
D03*
D51*
X95268Y492268D02*
D03*
X47268D02*
D03*
X95268Y444268D02*
D03*
X47268D02*
D03*
X97768Y359767D02*
D03*
Y311768D02*
D03*
X49768Y359767D02*
D03*
Y311768D02*
D03*
X97768Y227267D02*
D03*
X49768D02*
D03*
Y179268D02*
D03*
X97768D02*
D03*
Y94768D02*
D03*
X49768D02*
D03*
X97768Y46768D02*
D03*
X49768D02*
D03*
D52*
X73768Y70768D02*
D03*
Y203268D02*
D03*
Y335768D02*
D03*
X71268Y468268D02*
D03*
D53*
X629600Y281600D02*
D03*
D54*
X597000Y63500D02*
D03*
X573000Y161000D02*
D03*
X642000Y65000D02*
D03*
X494000Y154000D02*
D03*
X567500Y50000D02*
D03*
X597500Y125000D02*
D03*
X605000Y140000D02*
D03*
X547500Y55000D02*
D03*
X553000Y48000D02*
D03*
X563000Y171000D02*
D03*
X305000Y126000D02*
D03*
X685000Y140000D02*
D03*
X635000Y132500D02*
D03*
X132000Y345000D02*
D03*
X472000Y27000D02*
D03*
X670000Y135000D02*
D03*
X571000Y112000D02*
D03*
X132000Y477000D02*
D03*
X447000Y519000D02*
D03*
X610000Y15000D02*
D03*
X306000Y516000D02*
D03*
X305000Y262000D02*
D03*
X306000Y340500D02*
D03*
X615000Y132500D02*
D03*
X645000Y140000D02*
D03*
X306038Y470038D02*
D03*
X495000Y240000D02*
D03*
X491000Y73000D02*
D03*
X307353Y76000D02*
D03*
X448000Y367000D02*
D03*
X454000Y106000D02*
D03*
X574000Y121000D02*
D03*
X132000Y83000D02*
D03*
X687500Y50000D02*
D03*
X645000Y92500D02*
D03*
X445000Y504000D02*
D03*
X625000Y140000D02*
D03*
X306000Y208000D02*
D03*
X305000Y394501D02*
D03*
X133000Y212000D02*
D03*
X446000Y238000D02*
D03*
D70*
X565000Y119050D02*
D03*
Y132950D02*
D03*
D71*
X500750Y467000D02*
D03*
X533250D02*
D03*
X505750Y420000D02*
D03*
X538250D02*
D03*
X682250Y22000D02*
D03*
X649750D02*
D03*
D72*
X605000Y76000D02*
D03*
D73*
Y112000D02*
D03*
D74*
X677000Y54750D02*
D03*
X654000D02*
D03*
X631000D02*
D03*
D75*
X654000Y113250D02*
D03*
M02*
