M48
;Layer_Color=9474304
;FILE_FORMAT=4:4
METRIC,LZ
;TYPE=PLATED
T01F00S00C0.2000
T02F00S00C0.7300
T03F00S00C1.0000
T04F00S00C1.2800
%
T01
X00132Y00083
X00307353Y00076
X00305Y00126
X00454Y00106
X00491Y00073
X00472Y00027
X00553Y00048
X005475Y00055
X005675Y0005
X00597Y000635
X00642Y00065
X00645Y000925
Y0014
X00635Y001325
X00625Y0014
X00615Y001325
X00605Y0014
X005975Y00125
X00574Y00121
X00571Y00112
X0067Y00135
X00685Y0014
X006875Y0005
X0061Y00015
X00573Y00161
X00563Y00171
X00494Y00154
X00495Y0024
X00446Y00238
X00448Y00367
X00445Y00504
X00447Y00519
X00306Y00516
X00306038Y00470038
X00305Y00394501
X00306Y003405
X00305Y00262
X00306Y00208
X00133Y00212
X00132Y00345
Y00477
T02
X00558Y00392
X00611
X00636
X00661
X00661Y00489
X00636
X00611
X00558
X00533
X00508
X00483
X00483Y00392
X00508
X00533
T03
X00073768Y00070768
X006296Y0018
Y002054
Y002308
Y002562
X00655
Y002816
X006296
X00655Y002308
Y002054
Y0018
X00073768Y00203268
Y00335768
X00071268Y00468268
T04
X00049768Y00046768
X00097768
Y00094768
X00049768
Y00179268
Y00227267
X00097768
Y00179268
Y00311768
Y00359767
X00049768
Y00311768
X00047268Y00444268
X00095268
Y00492268
X00047268
M30
