G04*
G04 #@! TF.GenerationSoftware,Altium Limited,Altium Designer,25.6.2 (33)*
G04*
G04 Layer_Physical_Order=2*
G04 Layer_Color=36540*
%FSLAX44Y44*%
%MOMM*%
G71*
G04*
G04 #@! TF.SameCoordinates,42BA56CB-4CE2-47E9-A465-7F88C4280AAA*
G04*
G04*
G04 #@! TF.FilePolarity,Positive*
G04*
G01*
G75*
%ADD83C,1.9200*%
%ADD85C,2.0000*%
%ADD86C,1.1300*%
%ADD89C,0.6000*%
G36*
X905367Y786982D02*
X908843Y786050D01*
X912168Y784673D01*
X915284Y782874D01*
X918139Y780683D01*
X920683Y778139D01*
X922874Y775284D01*
X924673Y772167D01*
X926050Y768843D01*
X926981Y765367D01*
X927451Y761799D01*
Y760000D01*
Y30000D01*
Y28201D01*
X926982Y24633D01*
X926050Y21157D01*
X924673Y17832D01*
X922874Y14716D01*
X920683Y11861D01*
X918139Y9317D01*
X915284Y7126D01*
X912167Y5327D01*
X908843Y3950D01*
X905367Y3018D01*
X901799Y2549D01*
X160000D01*
X158201Y2549D01*
X154633Y3018D01*
X151157Y3950D01*
X147832Y5327D01*
X144716Y7126D01*
X141861Y9317D01*
X139317Y11861D01*
X137126Y14716D01*
X135327Y17833D01*
X133950Y21157D01*
X133019Y24633D01*
X132549Y28201D01*
Y30000D01*
Y65000D01*
X132541Y65042D01*
X132548Y65083D01*
X132483Y67045D01*
X132455Y67169D01*
X132463Y67295D01*
X131951Y71185D01*
X131896Y71345D01*
X131885Y71512D01*
X130870Y75303D01*
X130795Y75454D01*
X130763Y75619D01*
X129261Y79244D01*
X129168Y79384D01*
X129114Y79543D01*
X127151Y82942D01*
X127041Y83068D01*
X126966Y83219D01*
X124577Y86332D01*
X124451Y86443D01*
X124357Y86583D01*
X121583Y89357D01*
X121443Y89451D01*
X121332Y89577D01*
X118219Y91966D01*
X118068Y92041D01*
X117942Y92151D01*
X114543Y94114D01*
X114384Y94168D01*
X114244Y94261D01*
X110618Y95763D01*
X110454Y95795D01*
X110303Y95870D01*
X106512Y96885D01*
X106344Y96896D01*
X106185Y96951D01*
X102295Y97463D01*
X102169Y97455D01*
X102045Y97483D01*
X100083Y97547D01*
X100042Y97541D01*
X100000Y97549D01*
X30000Y97549D01*
X28201D01*
X24633Y98019D01*
X21157Y98950D01*
X17832Y100327D01*
X14716Y102126D01*
X11861Y104317D01*
X9317Y106861D01*
X7126Y109716D01*
X5327Y112833D01*
X3950Y116157D01*
X3018Y119633D01*
X2549Y123201D01*
Y125000D01*
Y665000D01*
X2549Y666799D01*
X3018Y670367D01*
X3950Y673843D01*
X5327Y677167D01*
X7126Y680284D01*
X9317Y683139D01*
X11861Y685683D01*
X14716Y687874D01*
X17833Y689673D01*
X21157Y691050D01*
X24633Y691981D01*
X28201Y692451D01*
X30000D01*
X100000Y692451D01*
X100042Y692459D01*
X100083Y692452D01*
X102045Y692517D01*
X102169Y692545D01*
X102295Y692537D01*
X106185Y693049D01*
X106345Y693103D01*
X106512Y693114D01*
X110303Y694130D01*
X110454Y694204D01*
X110618Y694237D01*
X114244Y695739D01*
X114384Y695832D01*
X114543Y695887D01*
X117942Y697849D01*
X118068Y697959D01*
X118219Y698034D01*
X121332Y700423D01*
X121443Y700549D01*
X121583Y700642D01*
X124357Y703417D01*
X124451Y703557D01*
X124577Y703668D01*
X126966Y706781D01*
X127041Y706932D01*
X127151Y707058D01*
X129114Y710457D01*
X129168Y710616D01*
X129261Y710756D01*
X130763Y714381D01*
X130795Y714546D01*
X130870Y714697D01*
X131885Y718488D01*
X131896Y718655D01*
X131951Y718815D01*
X132463Y722705D01*
X132455Y722831D01*
X132483Y722954D01*
X132547Y724917D01*
X132541Y724958D01*
X132549Y725000D01*
X132549Y760000D01*
Y761799D01*
X133019Y765367D01*
X133950Y768843D01*
X135327Y772168D01*
X137126Y775284D01*
X139317Y778139D01*
X141861Y780683D01*
X144716Y782874D01*
X147833Y784673D01*
X151157Y786050D01*
X154633Y786981D01*
X158201Y787451D01*
X901799D01*
X905367Y786982D01*
D02*
G37*
%LPC*%
G36*
X511271Y760472D02*
Y756271D01*
X515472D01*
X514698Y758139D01*
X513139Y759698D01*
X511271Y760472D01*
D02*
G37*
G36*
X508731D02*
X506863Y759698D01*
X505305Y758139D01*
X504531Y756271D01*
X508731D01*
Y760472D01*
D02*
G37*
G36*
X491271D02*
Y756271D01*
X495472D01*
X494698Y758139D01*
X493139Y759698D01*
X491271Y760472D01*
D02*
G37*
G36*
X488731D02*
X486863Y759698D01*
X485305Y758139D01*
X484531Y756271D01*
X488731D01*
Y760472D01*
D02*
G37*
G36*
X471271D02*
Y756271D01*
X475472D01*
X474698Y758139D01*
X473139Y759698D01*
X471271Y760472D01*
D02*
G37*
G36*
X468731D02*
X466863Y759698D01*
X465305Y758139D01*
X464531Y756271D01*
X468731D01*
Y760472D01*
D02*
G37*
G36*
X451271D02*
Y756271D01*
X455472D01*
X454698Y758139D01*
X453139Y759698D01*
X451271Y760472D01*
D02*
G37*
G36*
X448731D02*
X446863Y759698D01*
X445305Y758139D01*
X444531Y756271D01*
X448731D01*
Y760472D01*
D02*
G37*
G36*
X431271D02*
Y756271D01*
X435472D01*
X434698Y758139D01*
X433139Y759698D01*
X431271Y760472D01*
D02*
G37*
G36*
X428731D02*
X426863Y759698D01*
X425305Y758139D01*
X424531Y756271D01*
X428731D01*
Y760472D01*
D02*
G37*
G36*
X411271D02*
Y756271D01*
X415472D01*
X414698Y758139D01*
X413139Y759698D01*
X411271Y760472D01*
D02*
G37*
G36*
X408731D02*
X406863Y759698D01*
X405305Y758139D01*
X404531Y756271D01*
X408731D01*
Y760472D01*
D02*
G37*
G36*
X391271D02*
Y756271D01*
X395472D01*
X394698Y758139D01*
X393139Y759698D01*
X391271Y760472D01*
D02*
G37*
G36*
X388731D02*
X386863Y759698D01*
X385305Y758139D01*
X384531Y756271D01*
X388731D01*
Y760472D01*
D02*
G37*
G36*
X371271D02*
Y756271D01*
X375472D01*
X374698Y758139D01*
X373139Y759698D01*
X371271Y760472D01*
D02*
G37*
G36*
X368731D02*
X366863Y759698D01*
X365305Y758139D01*
X364531Y756271D01*
X368731D01*
Y760472D01*
D02*
G37*
G36*
X351271D02*
Y756271D01*
X355472D01*
X354698Y758139D01*
X353139Y759698D01*
X351271Y760472D01*
D02*
G37*
G36*
X348731D02*
X346863Y759698D01*
X345305Y758139D01*
X344531Y756271D01*
X348731D01*
Y760472D01*
D02*
G37*
G36*
X331271D02*
Y756271D01*
X335472D01*
X334698Y758139D01*
X333139Y759698D01*
X331271Y760472D01*
D02*
G37*
G36*
X328731D02*
X326863Y759698D01*
X325305Y758139D01*
X324531Y756271D01*
X328731D01*
Y760472D01*
D02*
G37*
G36*
X311271D02*
Y756271D01*
X315472D01*
X314698Y758139D01*
X313139Y759698D01*
X311271Y760472D01*
D02*
G37*
G36*
X308731D02*
X306863Y759698D01*
X305305Y758139D01*
X304531Y756271D01*
X308731D01*
Y760472D01*
D02*
G37*
G36*
X291271D02*
Y756271D01*
X295472D01*
X294698Y758139D01*
X293139Y759698D01*
X291271Y760472D01*
D02*
G37*
G36*
X288731D02*
X286863Y759698D01*
X285305Y758139D01*
X284531Y756271D01*
X288731D01*
Y760472D01*
D02*
G37*
G36*
X515472Y753731D02*
X511271D01*
Y749531D01*
X513139Y750305D01*
X514698Y751863D01*
X515472Y753731D01*
D02*
G37*
G36*
X508731D02*
X504531D01*
X505305Y751863D01*
X506863Y750305D01*
X508731Y749531D01*
Y753731D01*
D02*
G37*
G36*
X495472D02*
X491271D01*
Y749531D01*
X493139Y750305D01*
X494698Y751863D01*
X495472Y753731D01*
D02*
G37*
G36*
X488731D02*
X484531D01*
X485305Y751863D01*
X486863Y750305D01*
X488731Y749531D01*
Y753731D01*
D02*
G37*
G36*
X475472D02*
X471271D01*
Y749531D01*
X473139Y750305D01*
X474698Y751863D01*
X475472Y753731D01*
D02*
G37*
G36*
X468731D02*
X464531D01*
X465305Y751863D01*
X466863Y750305D01*
X468731Y749531D01*
Y753731D01*
D02*
G37*
G36*
X455472D02*
X451271D01*
Y749531D01*
X453139Y750305D01*
X454698Y751863D01*
X455472Y753731D01*
D02*
G37*
G36*
X448731D02*
X444531D01*
X445305Y751863D01*
X446863Y750305D01*
X448731Y749531D01*
Y753731D01*
D02*
G37*
G36*
X435472D02*
X431271D01*
Y749531D01*
X433139Y750305D01*
X434698Y751863D01*
X435472Y753731D01*
D02*
G37*
G36*
X428731D02*
X424531D01*
X425305Y751863D01*
X426863Y750305D01*
X428731Y749531D01*
Y753731D01*
D02*
G37*
G36*
X415472D02*
X411271D01*
Y749531D01*
X413139Y750305D01*
X414698Y751863D01*
X415472Y753731D01*
D02*
G37*
G36*
X408731D02*
X404531D01*
X405305Y751863D01*
X406863Y750305D01*
X408731Y749531D01*
Y753731D01*
D02*
G37*
G36*
X395472D02*
X391271D01*
Y749531D01*
X393139Y750305D01*
X394698Y751863D01*
X395472Y753731D01*
D02*
G37*
G36*
X388731D02*
X384531D01*
X385305Y751863D01*
X386863Y750305D01*
X388731Y749531D01*
Y753731D01*
D02*
G37*
G36*
X375472D02*
X371271D01*
Y749531D01*
X373139Y750305D01*
X374698Y751863D01*
X375472Y753731D01*
D02*
G37*
G36*
X368731D02*
X364531D01*
X365305Y751863D01*
X366863Y750305D01*
X368731Y749531D01*
Y753731D01*
D02*
G37*
G36*
X355472D02*
X351271D01*
Y749531D01*
X353139Y750305D01*
X354698Y751863D01*
X355472Y753731D01*
D02*
G37*
G36*
X348731D02*
X344531D01*
X345305Y751863D01*
X346863Y750305D01*
X348731Y749531D01*
Y753731D01*
D02*
G37*
G36*
X335472D02*
X331271D01*
Y749531D01*
X333139Y750305D01*
X334698Y751863D01*
X335472Y753731D01*
D02*
G37*
G36*
X328731D02*
X324531D01*
X325305Y751863D01*
X326863Y750305D01*
X328731Y749531D01*
Y753731D01*
D02*
G37*
G36*
X315472D02*
X311271D01*
Y749531D01*
X313139Y750305D01*
X314698Y751863D01*
X315472Y753731D01*
D02*
G37*
G36*
X308731D02*
X304531D01*
X305305Y751863D01*
X306863Y750305D01*
X308731Y749531D01*
Y753731D01*
D02*
G37*
G36*
X295472D02*
X291271D01*
Y749531D01*
X293139Y750305D01*
X294698Y751863D01*
X295472Y753731D01*
D02*
G37*
G36*
X288731D02*
X284531D01*
X285305Y751863D01*
X286863Y750305D01*
X288731Y749531D01*
Y753731D01*
D02*
G37*
G36*
X501271Y740472D02*
Y736271D01*
X505472D01*
X504698Y738139D01*
X503139Y739698D01*
X501271Y740472D01*
D02*
G37*
G36*
X498731D02*
X496863Y739698D01*
X495305Y738139D01*
X494531Y736271D01*
X498731D01*
Y740472D01*
D02*
G37*
G36*
X481271D02*
Y736271D01*
X485472D01*
X484698Y738139D01*
X483139Y739698D01*
X481271Y740472D01*
D02*
G37*
G36*
X478731D02*
X476863Y739698D01*
X475305Y738139D01*
X474531Y736271D01*
X478731D01*
Y740472D01*
D02*
G37*
G36*
X461271D02*
Y736271D01*
X465472D01*
X464698Y738139D01*
X463139Y739698D01*
X461271Y740472D01*
D02*
G37*
G36*
X458731D02*
X456863Y739698D01*
X455305Y738139D01*
X454531Y736271D01*
X458731D01*
Y740472D01*
D02*
G37*
G36*
X441271D02*
Y736271D01*
X445472D01*
X444698Y738139D01*
X443139Y739698D01*
X441271Y740472D01*
D02*
G37*
G36*
X438731D02*
X436863Y739698D01*
X435305Y738139D01*
X434531Y736271D01*
X438731D01*
Y740472D01*
D02*
G37*
G36*
X421271D02*
Y736271D01*
X425472D01*
X424698Y738139D01*
X423139Y739698D01*
X421271Y740472D01*
D02*
G37*
G36*
X418731D02*
X416863Y739698D01*
X415305Y738139D01*
X414531Y736271D01*
X418731D01*
Y740472D01*
D02*
G37*
G36*
X401271D02*
Y736271D01*
X405472D01*
X404698Y738139D01*
X403139Y739698D01*
X401271Y740472D01*
D02*
G37*
G36*
X398731D02*
X396863Y739698D01*
X395305Y738139D01*
X394531Y736271D01*
X398731D01*
Y740472D01*
D02*
G37*
G36*
X381271D02*
Y736271D01*
X385472D01*
X384698Y738139D01*
X383139Y739698D01*
X381271Y740472D01*
D02*
G37*
G36*
X378731D02*
X376863Y739698D01*
X375305Y738139D01*
X374531Y736271D01*
X378731D01*
Y740472D01*
D02*
G37*
G36*
X361271D02*
Y736271D01*
X365472D01*
X364698Y738139D01*
X363139Y739698D01*
X361271Y740472D01*
D02*
G37*
G36*
X358731D02*
X356863Y739698D01*
X355305Y738139D01*
X354531Y736271D01*
X358731D01*
Y740472D01*
D02*
G37*
G36*
X341271D02*
Y736271D01*
X345472D01*
X344698Y738139D01*
X343139Y739698D01*
X341271Y740472D01*
D02*
G37*
G36*
X338731D02*
X336863Y739698D01*
X335305Y738139D01*
X334531Y736271D01*
X338731D01*
Y740472D01*
D02*
G37*
G36*
X321271D02*
Y736271D01*
X325472D01*
X324698Y738139D01*
X323139Y739698D01*
X321271Y740472D01*
D02*
G37*
G36*
X318731D02*
X316863Y739698D01*
X315305Y738139D01*
X314531Y736271D01*
X318731D01*
Y740472D01*
D02*
G37*
G36*
X301271D02*
Y736271D01*
X305472D01*
X304698Y738139D01*
X303139Y739698D01*
X301271Y740472D01*
D02*
G37*
G36*
X298731D02*
X296863Y739698D01*
X295305Y738139D01*
X294531Y736271D01*
X298731D01*
Y740472D01*
D02*
G37*
G36*
X281271D02*
Y736271D01*
X285472D01*
X284698Y738139D01*
X283139Y739698D01*
X281271Y740472D01*
D02*
G37*
G36*
X278731D02*
X276863Y739698D01*
X275305Y738139D01*
X274531Y736271D01*
X278731D01*
Y740472D01*
D02*
G37*
G36*
X505472Y733731D02*
X501271D01*
Y729531D01*
X503139Y730305D01*
X504698Y731863D01*
X505472Y733731D01*
D02*
G37*
G36*
X498731D02*
X494531D01*
X495305Y731863D01*
X496863Y730305D01*
X498731Y729531D01*
Y733731D01*
D02*
G37*
G36*
X485472D02*
X481271D01*
Y729531D01*
X483139Y730305D01*
X484698Y731863D01*
X485472Y733731D01*
D02*
G37*
G36*
X478731D02*
X474531D01*
X475305Y731863D01*
X476863Y730305D01*
X478731Y729531D01*
Y733731D01*
D02*
G37*
G36*
X465472D02*
X461271D01*
Y729531D01*
X463139Y730305D01*
X464698Y731863D01*
X465472Y733731D01*
D02*
G37*
G36*
X458731D02*
X454531D01*
X455305Y731863D01*
X456863Y730305D01*
X458731Y729531D01*
Y733731D01*
D02*
G37*
G36*
X445472D02*
X441271D01*
Y729531D01*
X443139Y730305D01*
X444698Y731863D01*
X445472Y733731D01*
D02*
G37*
G36*
X438731D02*
X434531D01*
X435305Y731863D01*
X436863Y730305D01*
X438731Y729531D01*
Y733731D01*
D02*
G37*
G36*
X425472D02*
X421271D01*
Y729531D01*
X423139Y730305D01*
X424698Y731863D01*
X425472Y733731D01*
D02*
G37*
G36*
X418731D02*
X414531D01*
X415305Y731863D01*
X416863Y730305D01*
X418731Y729531D01*
Y733731D01*
D02*
G37*
G36*
X405472D02*
X401271D01*
Y729531D01*
X403139Y730305D01*
X404698Y731863D01*
X405472Y733731D01*
D02*
G37*
G36*
X398731D02*
X394531D01*
X395305Y731863D01*
X396863Y730305D01*
X398731Y729531D01*
Y733731D01*
D02*
G37*
G36*
X385472D02*
X381271D01*
Y729531D01*
X383139Y730305D01*
X384698Y731863D01*
X385472Y733731D01*
D02*
G37*
G36*
X378731D02*
X374531D01*
X375305Y731863D01*
X376863Y730305D01*
X378731Y729531D01*
Y733731D01*
D02*
G37*
G36*
X365472D02*
X361271D01*
Y729531D01*
X363139Y730305D01*
X364698Y731863D01*
X365472Y733731D01*
D02*
G37*
G36*
X358731D02*
X354531D01*
X355305Y731863D01*
X356863Y730305D01*
X358731Y729531D01*
Y733731D01*
D02*
G37*
G36*
X345472D02*
X341271D01*
Y729531D01*
X343139Y730305D01*
X344698Y731863D01*
X345472Y733731D01*
D02*
G37*
G36*
X338731D02*
X334531D01*
X335305Y731863D01*
X336863Y730305D01*
X338731Y729531D01*
Y733731D01*
D02*
G37*
G36*
X325472D02*
X321271D01*
Y729531D01*
X323139Y730305D01*
X324698Y731863D01*
X325472Y733731D01*
D02*
G37*
G36*
X318731D02*
X314531D01*
X315305Y731863D01*
X316863Y730305D01*
X318731Y729531D01*
Y733731D01*
D02*
G37*
G36*
X305472D02*
X301271D01*
Y729531D01*
X303139Y730305D01*
X304698Y731863D01*
X305472Y733731D01*
D02*
G37*
G36*
X298731D02*
X294531D01*
X295305Y731863D01*
X296863Y730305D01*
X298731Y729531D01*
Y733731D01*
D02*
G37*
G36*
X285472D02*
X281271D01*
Y729531D01*
X283139Y730305D01*
X284698Y731863D01*
X285472Y733731D01*
D02*
G37*
G36*
X278731D02*
X274531D01*
X275305Y731863D01*
X276863Y730305D01*
X278731Y729531D01*
Y733731D01*
D02*
G37*
G36*
X511271Y720472D02*
Y716271D01*
X515472D01*
X514698Y718139D01*
X513139Y719698D01*
X511271Y720472D01*
D02*
G37*
G36*
X508731D02*
X506863Y719698D01*
X505305Y718139D01*
X504531Y716271D01*
X508731D01*
Y720472D01*
D02*
G37*
G36*
X491271D02*
Y716271D01*
X495472D01*
X494698Y718139D01*
X493139Y719698D01*
X491271Y720472D01*
D02*
G37*
G36*
X488731D02*
X486863Y719698D01*
X485305Y718139D01*
X484531Y716271D01*
X488731D01*
Y720472D01*
D02*
G37*
G36*
X471271D02*
Y716271D01*
X475472D01*
X474698Y718139D01*
X473139Y719698D01*
X471271Y720472D01*
D02*
G37*
G36*
X468731D02*
X466863Y719698D01*
X465305Y718139D01*
X464531Y716271D01*
X468731D01*
Y720472D01*
D02*
G37*
G36*
X451271D02*
Y716271D01*
X455472D01*
X454698Y718139D01*
X453139Y719698D01*
X451271Y720472D01*
D02*
G37*
G36*
X448731D02*
X446863Y719698D01*
X445305Y718139D01*
X444531Y716271D01*
X448731D01*
Y720472D01*
D02*
G37*
G36*
X431271D02*
Y716271D01*
X435472D01*
X434698Y718139D01*
X433139Y719698D01*
X431271Y720472D01*
D02*
G37*
G36*
X428731D02*
X426863Y719698D01*
X425305Y718139D01*
X424531Y716271D01*
X428731D01*
Y720472D01*
D02*
G37*
G36*
X411271D02*
Y716271D01*
X415472D01*
X414698Y718139D01*
X413139Y719698D01*
X411271Y720472D01*
D02*
G37*
G36*
X408731D02*
X406863Y719698D01*
X405305Y718139D01*
X404531Y716271D01*
X408731D01*
Y720472D01*
D02*
G37*
G36*
X391271D02*
Y716271D01*
X395472D01*
X394698Y718139D01*
X393139Y719698D01*
X391271Y720472D01*
D02*
G37*
G36*
X388731D02*
X386863Y719698D01*
X385305Y718139D01*
X384531Y716271D01*
X388731D01*
Y720472D01*
D02*
G37*
G36*
X371271D02*
Y716271D01*
X375472D01*
X374698Y718139D01*
X373139Y719698D01*
X371271Y720472D01*
D02*
G37*
G36*
X368731D02*
X366863Y719698D01*
X365305Y718139D01*
X364531Y716271D01*
X368731D01*
Y720472D01*
D02*
G37*
G36*
X351271D02*
Y716271D01*
X355472D01*
X354698Y718139D01*
X353139Y719698D01*
X351271Y720472D01*
D02*
G37*
G36*
X348731D02*
X346863Y719698D01*
X345305Y718139D01*
X344531Y716271D01*
X348731D01*
Y720472D01*
D02*
G37*
G36*
X331271D02*
Y716271D01*
X335472D01*
X334698Y718139D01*
X333139Y719698D01*
X331271Y720472D01*
D02*
G37*
G36*
X328731D02*
X326863Y719698D01*
X325305Y718139D01*
X324531Y716271D01*
X328731D01*
Y720472D01*
D02*
G37*
G36*
X311271D02*
Y716271D01*
X315472D01*
X314698Y718139D01*
X313139Y719698D01*
X311271Y720472D01*
D02*
G37*
G36*
X308731D02*
X306863Y719698D01*
X305305Y718139D01*
X304531Y716271D01*
X308731D01*
Y720472D01*
D02*
G37*
G36*
X291271D02*
Y716271D01*
X295472D01*
X294698Y718139D01*
X293139Y719698D01*
X291271Y720472D01*
D02*
G37*
G36*
X288731D02*
X286863Y719698D01*
X285305Y718139D01*
X284531Y716271D01*
X288731D01*
Y720472D01*
D02*
G37*
G36*
X515472Y713731D02*
X511271D01*
Y709531D01*
X513139Y710305D01*
X514698Y711863D01*
X515472Y713731D01*
D02*
G37*
G36*
X508731D02*
X504531D01*
X505305Y711863D01*
X506863Y710305D01*
X508731Y709531D01*
Y713731D01*
D02*
G37*
G36*
X495472D02*
X491271D01*
Y709531D01*
X493139Y710305D01*
X494698Y711863D01*
X495472Y713731D01*
D02*
G37*
G36*
X488731D02*
X484531D01*
X485305Y711863D01*
X486863Y710305D01*
X488731Y709531D01*
Y713731D01*
D02*
G37*
G36*
X475472D02*
X471271D01*
Y709531D01*
X473139Y710305D01*
X474698Y711863D01*
X475472Y713731D01*
D02*
G37*
G36*
X468731D02*
X464531D01*
X465305Y711863D01*
X466863Y710305D01*
X468731Y709531D01*
Y713731D01*
D02*
G37*
G36*
X455472D02*
X451271D01*
Y709531D01*
X453139Y710305D01*
X454698Y711863D01*
X455472Y713731D01*
D02*
G37*
G36*
X448731D02*
X444531D01*
X445305Y711863D01*
X446863Y710305D01*
X448731Y709531D01*
Y713731D01*
D02*
G37*
G36*
X435472D02*
X431271D01*
Y709531D01*
X433139Y710305D01*
X434698Y711863D01*
X435472Y713731D01*
D02*
G37*
G36*
X428731D02*
X424531D01*
X425305Y711863D01*
X426863Y710305D01*
X428731Y709531D01*
Y713731D01*
D02*
G37*
G36*
X415472D02*
X411271D01*
Y709531D01*
X413139Y710305D01*
X414698Y711863D01*
X415472Y713731D01*
D02*
G37*
G36*
X408731D02*
X404531D01*
X405305Y711863D01*
X406863Y710305D01*
X408731Y709531D01*
Y713731D01*
D02*
G37*
G36*
X395472D02*
X391271D01*
Y709531D01*
X393139Y710305D01*
X394698Y711863D01*
X395472Y713731D01*
D02*
G37*
G36*
X388731D02*
X384531D01*
X385305Y711863D01*
X386863Y710305D01*
X388731Y709531D01*
Y713731D01*
D02*
G37*
G36*
X375472D02*
X371271D01*
Y709531D01*
X373139Y710305D01*
X374698Y711863D01*
X375472Y713731D01*
D02*
G37*
G36*
X368731D02*
X364531D01*
X365305Y711863D01*
X366863Y710305D01*
X368731Y709531D01*
Y713731D01*
D02*
G37*
G36*
X355472D02*
X351271D01*
Y709531D01*
X353139Y710305D01*
X354698Y711863D01*
X355472Y713731D01*
D02*
G37*
G36*
X348731D02*
X344531D01*
X345305Y711863D01*
X346863Y710305D01*
X348731Y709531D01*
Y713731D01*
D02*
G37*
G36*
X335472D02*
X331271D01*
Y709531D01*
X333139Y710305D01*
X334698Y711863D01*
X335472Y713731D01*
D02*
G37*
G36*
X328731D02*
X324531D01*
X325305Y711863D01*
X326863Y710305D01*
X328731Y709531D01*
Y713731D01*
D02*
G37*
G36*
X315472D02*
X311271D01*
Y709531D01*
X313139Y710305D01*
X314698Y711863D01*
X315472Y713731D01*
D02*
G37*
G36*
X308731D02*
X304531D01*
X305305Y711863D01*
X306863Y710305D01*
X308731Y709531D01*
Y713731D01*
D02*
G37*
G36*
X295472D02*
X291271D01*
Y709531D01*
X293139Y710305D01*
X294698Y711863D01*
X295472Y713731D01*
D02*
G37*
G36*
X288731D02*
X284531D01*
X285305Y711863D01*
X286863Y710305D01*
X288731Y709531D01*
Y713731D01*
D02*
G37*
G36*
X598500Y705553D02*
Y698500D01*
X605553D01*
X605061Y700339D01*
X603922Y702311D01*
X602311Y703922D01*
X600339Y705061D01*
X598500Y705553D01*
D02*
G37*
G36*
X751500Y705553D02*
Y698500D01*
X758553D01*
X758061Y700339D01*
X756922Y702311D01*
X755311Y703922D01*
X753339Y705061D01*
X751500Y705553D01*
D02*
G37*
G36*
X748500Y705553D02*
X746661Y705061D01*
X744689Y703922D01*
X743078Y702311D01*
X741939Y700339D01*
X741447Y698500D01*
X748500D01*
Y705553D01*
D02*
G37*
G36*
X595500Y705553D02*
X593661Y705061D01*
X591689Y703922D01*
X590078Y702311D01*
X588940Y700339D01*
X588447Y698500D01*
X595500D01*
Y705553D01*
D02*
G37*
G36*
X501271Y700472D02*
Y696271D01*
X505472D01*
X504698Y698139D01*
X503139Y699698D01*
X501271Y700472D01*
D02*
G37*
G36*
X498731D02*
X496863Y699698D01*
X495305Y698139D01*
X494531Y696271D01*
X498731D01*
Y700472D01*
D02*
G37*
G36*
X481271D02*
Y696271D01*
X485472D01*
X484698Y698139D01*
X483139Y699698D01*
X481271Y700472D01*
D02*
G37*
G36*
X478731D02*
X476863Y699698D01*
X475305Y698139D01*
X474531Y696271D01*
X478731D01*
Y700472D01*
D02*
G37*
G36*
X461271D02*
Y696271D01*
X465472D01*
X464698Y698139D01*
X463139Y699698D01*
X461271Y700472D01*
D02*
G37*
G36*
X458731D02*
X456863Y699698D01*
X455305Y698139D01*
X454531Y696271D01*
X458731D01*
Y700472D01*
D02*
G37*
G36*
X441271D02*
Y696271D01*
X445472D01*
X444698Y698139D01*
X443139Y699698D01*
X441271Y700472D01*
D02*
G37*
G36*
X438731D02*
X436863Y699698D01*
X435305Y698139D01*
X434531Y696271D01*
X438731D01*
Y700472D01*
D02*
G37*
G36*
X421271D02*
Y696271D01*
X425472D01*
X424698Y698139D01*
X423139Y699698D01*
X421271Y700472D01*
D02*
G37*
G36*
X418731D02*
X416863Y699698D01*
X415305Y698139D01*
X414531Y696271D01*
X418731D01*
Y700472D01*
D02*
G37*
G36*
X401271D02*
Y696271D01*
X405472D01*
X404698Y698139D01*
X403139Y699698D01*
X401271Y700472D01*
D02*
G37*
G36*
X398731D02*
X396863Y699698D01*
X395305Y698139D01*
X394531Y696271D01*
X398731D01*
Y700472D01*
D02*
G37*
G36*
X381271D02*
Y696271D01*
X385472D01*
X384698Y698139D01*
X383139Y699698D01*
X381271Y700472D01*
D02*
G37*
G36*
X378731D02*
X376863Y699698D01*
X375305Y698139D01*
X374531Y696271D01*
X378731D01*
Y700472D01*
D02*
G37*
G36*
X361271D02*
Y696271D01*
X365472D01*
X364698Y698139D01*
X363139Y699698D01*
X361271Y700472D01*
D02*
G37*
G36*
X358731D02*
X356863Y699698D01*
X355305Y698139D01*
X354531Y696271D01*
X358731D01*
Y700472D01*
D02*
G37*
G36*
X341271D02*
Y696271D01*
X345472D01*
X344698Y698139D01*
X343139Y699698D01*
X341271Y700472D01*
D02*
G37*
G36*
X338731D02*
X336863Y699698D01*
X335305Y698139D01*
X334531Y696271D01*
X338731D01*
Y700472D01*
D02*
G37*
G36*
X321271D02*
Y696271D01*
X325472D01*
X324698Y698139D01*
X323139Y699698D01*
X321271Y700472D01*
D02*
G37*
G36*
X318731D02*
X316863Y699698D01*
X315305Y698139D01*
X314531Y696271D01*
X318731D01*
Y700472D01*
D02*
G37*
G36*
X301271D02*
Y696271D01*
X305472D01*
X304698Y698139D01*
X303139Y699698D01*
X301271Y700472D01*
D02*
G37*
G36*
X298731D02*
X296863Y699698D01*
X295305Y698139D01*
X294531Y696271D01*
X298731D01*
Y700472D01*
D02*
G37*
G36*
X281271D02*
Y696271D01*
X285472D01*
X284698Y698139D01*
X283139Y699698D01*
X281271Y700472D01*
D02*
G37*
G36*
X278731D02*
X276863Y699698D01*
X275305Y698139D01*
X274531Y696271D01*
X278731D01*
Y700472D01*
D02*
G37*
G36*
X505472Y693731D02*
X501271D01*
Y689531D01*
X503139Y690305D01*
X504698Y691863D01*
X505472Y693731D01*
D02*
G37*
G36*
X498731D02*
X494531D01*
X495305Y691863D01*
X496863Y690305D01*
X498731Y689531D01*
Y693731D01*
D02*
G37*
G36*
X485472D02*
X481271D01*
Y689531D01*
X483139Y690305D01*
X484698Y691863D01*
X485472Y693731D01*
D02*
G37*
G36*
X478731D02*
X474531D01*
X475305Y691863D01*
X476863Y690305D01*
X478731Y689531D01*
Y693731D01*
D02*
G37*
G36*
X465472D02*
X461271D01*
Y689531D01*
X463139Y690305D01*
X464698Y691863D01*
X465472Y693731D01*
D02*
G37*
G36*
X458731D02*
X454531D01*
X455305Y691863D01*
X456863Y690305D01*
X458731Y689531D01*
Y693731D01*
D02*
G37*
G36*
X445472D02*
X441271D01*
Y689531D01*
X443139Y690305D01*
X444698Y691863D01*
X445472Y693731D01*
D02*
G37*
G36*
X438731D02*
X434531D01*
X435305Y691863D01*
X436863Y690305D01*
X438731Y689531D01*
Y693731D01*
D02*
G37*
G36*
X425472D02*
X421271D01*
Y689531D01*
X423139Y690305D01*
X424698Y691863D01*
X425472Y693731D01*
D02*
G37*
G36*
X418731D02*
X414531D01*
X415305Y691863D01*
X416863Y690305D01*
X418731Y689531D01*
Y693731D01*
D02*
G37*
G36*
X405472D02*
X401271D01*
Y689531D01*
X403139Y690305D01*
X404698Y691863D01*
X405472Y693731D01*
D02*
G37*
G36*
X398731D02*
X394531D01*
X395305Y691863D01*
X396863Y690305D01*
X398731Y689531D01*
Y693731D01*
D02*
G37*
G36*
X385472D02*
X381271D01*
Y689531D01*
X383139Y690305D01*
X384698Y691863D01*
X385472Y693731D01*
D02*
G37*
G36*
X378731D02*
X374531D01*
X375305Y691863D01*
X376863Y690305D01*
X378731Y689531D01*
Y693731D01*
D02*
G37*
G36*
X365472D02*
X361271D01*
Y689531D01*
X363139Y690305D01*
X364698Y691863D01*
X365472Y693731D01*
D02*
G37*
G36*
X358731D02*
X354531D01*
X355305Y691863D01*
X356863Y690305D01*
X358731Y689531D01*
Y693731D01*
D02*
G37*
G36*
X345472D02*
X341271D01*
Y689531D01*
X343139Y690305D01*
X344698Y691863D01*
X345472Y693731D01*
D02*
G37*
G36*
X338731D02*
X334531D01*
X335305Y691863D01*
X336863Y690305D01*
X338731Y689531D01*
Y693731D01*
D02*
G37*
G36*
X325472D02*
X321271D01*
Y689531D01*
X323139Y690305D01*
X324698Y691863D01*
X325472Y693731D01*
D02*
G37*
G36*
X318731D02*
X314531D01*
X315305Y691863D01*
X316863Y690305D01*
X318731Y689531D01*
Y693731D01*
D02*
G37*
G36*
X305472D02*
X301271D01*
Y689531D01*
X303139Y690305D01*
X304698Y691863D01*
X305472Y693731D01*
D02*
G37*
G36*
X298731D02*
X294531D01*
X295305Y691863D01*
X296863Y690305D01*
X298731Y689531D01*
Y693731D01*
D02*
G37*
G36*
X285472D02*
X281271D01*
Y689531D01*
X283139Y690305D01*
X284698Y691863D01*
X285472Y693731D01*
D02*
G37*
G36*
X278731D02*
X274531D01*
X275305Y691863D01*
X276863Y690305D01*
X278731Y689531D01*
Y693731D01*
D02*
G37*
G36*
X726007Y704650D02*
X723993D01*
X722047Y704129D01*
X720303Y703121D01*
X718878Y701697D01*
X717871Y699953D01*
X717350Y698007D01*
Y695993D01*
X717871Y694047D01*
X718878Y692303D01*
X720303Y690879D01*
X722047Y689871D01*
X723993Y689350D01*
X726007D01*
X727953Y689871D01*
X729697Y690879D01*
X731122Y692303D01*
X732129Y694047D01*
X732650Y695993D01*
Y698007D01*
X732129Y699953D01*
X731122Y701697D01*
X729697Y703121D01*
X727953Y704129D01*
X726007Y704650D01*
D02*
G37*
G36*
X701007D02*
X698993D01*
X697047Y704129D01*
X695303Y703121D01*
X693878Y701697D01*
X692871Y699953D01*
X692350Y698007D01*
Y695993D01*
X692871Y694047D01*
X693878Y692303D01*
X695303Y690879D01*
X697047Y689871D01*
X698993Y689350D01*
X701007D01*
X702953Y689871D01*
X704697Y690879D01*
X706122Y692303D01*
X707129Y694047D01*
X707650Y695993D01*
Y698007D01*
X707129Y699953D01*
X706122Y701697D01*
X704697Y703121D01*
X702953Y704129D01*
X701007Y704650D01*
D02*
G37*
G36*
X648007D02*
X645993D01*
X644047Y704129D01*
X642303Y703121D01*
X640879Y701697D01*
X639871Y699953D01*
X639350Y698007D01*
Y695993D01*
X639871Y694047D01*
X640879Y692303D01*
X642303Y690879D01*
X644047Y689871D01*
X645993Y689350D01*
X648007D01*
X649953Y689871D01*
X651697Y690879D01*
X653121Y692303D01*
X654129Y694047D01*
X654650Y695993D01*
Y698007D01*
X654129Y699953D01*
X653121Y701697D01*
X651697Y703121D01*
X649953Y704129D01*
X648007Y704650D01*
D02*
G37*
G36*
X623007D02*
X620993D01*
X619047Y704129D01*
X617303Y703121D01*
X615878Y701697D01*
X614871Y699953D01*
X614350Y698007D01*
Y695993D01*
X614871Y694047D01*
X615878Y692303D01*
X617303Y690879D01*
X619047Y689871D01*
X620993Y689350D01*
X623007D01*
X624953Y689871D01*
X626697Y690879D01*
X628121Y692303D01*
X629129Y694047D01*
X629650Y695993D01*
Y698007D01*
X629129Y699953D01*
X628121Y701697D01*
X626697Y703121D01*
X624953Y704129D01*
X623007Y704650D01*
D02*
G37*
G36*
X573007D02*
X570993D01*
X569047Y704129D01*
X567303Y703121D01*
X565878Y701697D01*
X564871Y699953D01*
X564350Y698007D01*
Y695993D01*
X564871Y694047D01*
X565878Y692303D01*
X567303Y690879D01*
X569047Y689871D01*
X570993Y689350D01*
X573007D01*
X574953Y689871D01*
X576697Y690879D01*
X578121Y692303D01*
X579129Y694047D01*
X579650Y695993D01*
Y698007D01*
X579129Y699953D01*
X578121Y701697D01*
X576697Y703121D01*
X574953Y704129D01*
X573007Y704650D01*
D02*
G37*
G36*
X748500Y695500D02*
X741447D01*
X741939Y693661D01*
X743078Y691689D01*
X744689Y690078D01*
X746661Y688940D01*
X748500Y688447D01*
Y695500D01*
D02*
G37*
G36*
X605553D02*
X598500D01*
Y688447D01*
X600339Y688940D01*
X602311Y690078D01*
X603922Y691689D01*
X605061Y693661D01*
X605553Y695500D01*
D02*
G37*
G36*
X595500D02*
X588447D01*
X588940Y693661D01*
X590078Y691689D01*
X591689Y690078D01*
X593661Y688940D01*
X595500Y688447D01*
Y695500D01*
D02*
G37*
G36*
X758553D02*
X751500D01*
Y688447D01*
X753339Y688940D01*
X755311Y690078D01*
X756922Y691689D01*
X758061Y693661D01*
X758553Y695500D01*
D02*
G37*
G36*
X110659Y641600D02*
X110500D01*
Y630500D01*
X121600D01*
Y630659D01*
X120741Y633863D01*
X119082Y636737D01*
X116737Y639082D01*
X113863Y640741D01*
X110659Y641600D01*
D02*
G37*
G36*
X62659D02*
X62500D01*
Y630500D01*
X73600D01*
Y630659D01*
X72741Y633863D01*
X71083Y636737D01*
X68737Y639082D01*
X65863Y640741D01*
X62659Y641600D01*
D02*
G37*
G36*
X59500D02*
X59341D01*
X56137Y640741D01*
X53263Y639082D01*
X50918Y636737D01*
X49259Y633863D01*
X48400Y630659D01*
Y630500D01*
X59500D01*
Y641600D01*
D02*
G37*
G36*
X107500D02*
X107341D01*
X104137Y640741D01*
X101263Y639082D01*
X98918Y636737D01*
X97259Y633863D01*
X96400Y630659D01*
Y630500D01*
X107500D01*
Y641600D01*
D02*
G37*
G36*
X275995Y640000D02*
X274005D01*
X272168Y639239D01*
X270761Y637832D01*
X270000Y635995D01*
Y634005D01*
X270761Y632168D01*
X272168Y630761D01*
X274005Y630000D01*
X275995D01*
X277832Y630761D01*
X279239Y632168D01*
X280000Y634005D01*
Y635995D01*
X279239Y637832D01*
X277832Y639239D01*
X275995Y640000D01*
D02*
G37*
G36*
X121600Y627500D02*
X110500D01*
Y616400D01*
X110659D01*
X113863Y617259D01*
X116737Y618918D01*
X119082Y621263D01*
X120741Y624137D01*
X121600Y627341D01*
Y627500D01*
D02*
G37*
G36*
X107500D02*
X96400D01*
Y627341D01*
X97259Y624137D01*
X98918Y621263D01*
X101263Y618918D01*
X104137Y617259D01*
X107341Y616400D01*
X107500D01*
Y627500D01*
D02*
G37*
G36*
X73600D02*
X62500D01*
Y616400D01*
X62659D01*
X65863Y617259D01*
X68737Y618918D01*
X71083Y621263D01*
X72741Y624137D01*
X73600Y627341D01*
Y627500D01*
D02*
G37*
G36*
X59500D02*
X48400D01*
Y627341D01*
X49259Y624137D01*
X50918Y621263D01*
X53263Y618918D01*
X56137Y617259D01*
X59341Y616400D01*
X59500D01*
Y627500D01*
D02*
G37*
G36*
X621995Y621000D02*
X620005D01*
X618168Y620239D01*
X616761Y618832D01*
X616000Y616995D01*
Y615005D01*
X616761Y613168D01*
X618168Y611761D01*
X620005Y611000D01*
X621995D01*
X623832Y611761D01*
X625239Y613168D01*
X626000Y615005D01*
Y616995D01*
X625239Y618832D01*
X623832Y620239D01*
X621995Y621000D01*
D02*
G37*
G36*
X86256Y614540D02*
X83744D01*
X81318Y613890D01*
X79142Y612634D01*
X77366Y610858D01*
X76110Y608682D01*
X75460Y606256D01*
Y603744D01*
X76110Y601318D01*
X77366Y599142D01*
X79142Y597366D01*
X81318Y596110D01*
X83744Y595460D01*
X86256D01*
X88682Y596110D01*
X90858Y597366D01*
X92634Y599142D01*
X93890Y601318D01*
X94540Y603744D01*
Y606256D01*
X93890Y608682D01*
X92634Y610858D01*
X90858Y612634D01*
X88682Y613890D01*
X86256Y614540D01*
D02*
G37*
G36*
X321995Y594000D02*
X320005D01*
X318168Y593239D01*
X316761Y591832D01*
X316000Y589995D01*
Y588005D01*
X316761Y586168D01*
X318168Y584761D01*
X320005Y584000D01*
X321995D01*
X323832Y584761D01*
X325239Y586168D01*
X326000Y588005D01*
Y589995D01*
X325239Y591832D01*
X323832Y593239D01*
X321995Y594000D01*
D02*
G37*
G36*
X110659Y593600D02*
X110500D01*
Y582500D01*
X121600D01*
Y582659D01*
X120741Y585863D01*
X119082Y588737D01*
X116737Y591082D01*
X113863Y592741D01*
X110659Y593600D01*
D02*
G37*
G36*
X62659D02*
X62500D01*
Y582500D01*
X73600D01*
Y582659D01*
X72741Y585863D01*
X71083Y588737D01*
X68737Y591082D01*
X65863Y592741D01*
X62659Y593600D01*
D02*
G37*
G36*
X59500D02*
X59341D01*
X56137Y592741D01*
X53263Y591082D01*
X50918Y588737D01*
X49259Y585863D01*
X48400Y582659D01*
Y582500D01*
X59500D01*
Y593600D01*
D02*
G37*
G36*
X107500D02*
X107341D01*
X104137Y592741D01*
X101263Y591082D01*
X98918Y588737D01*
X97259Y585863D01*
X96400Y582659D01*
Y582500D01*
X107500D01*
Y593600D01*
D02*
G37*
G36*
X488995Y582000D02*
X487005D01*
X485168Y581239D01*
X483761Y579832D01*
X483000Y577995D01*
Y576005D01*
X483761Y574168D01*
X485168Y572761D01*
X487005Y572000D01*
X488995D01*
X490832Y572761D01*
X492239Y574168D01*
X493000Y576005D01*
Y577995D01*
X492239Y579832D01*
X490832Y581239D01*
X488995Y582000D01*
D02*
G37*
G36*
X121600Y579500D02*
X110500D01*
Y568400D01*
X110659D01*
X113863Y569259D01*
X116737Y570918D01*
X119082Y573263D01*
X120741Y576137D01*
X121600Y579341D01*
Y579500D01*
D02*
G37*
G36*
X107500D02*
X96400D01*
Y579341D01*
X97259Y576137D01*
X98918Y573263D01*
X101263Y570918D01*
X104137Y569259D01*
X107341Y568400D01*
X107500D01*
Y579500D01*
D02*
G37*
G36*
X73600D02*
X62500D01*
Y568400D01*
X62659D01*
X65863Y569259D01*
X68737Y570918D01*
X71083Y573263D01*
X72741Y576137D01*
X73600Y579341D01*
Y579500D01*
D02*
G37*
G36*
X59500D02*
X48400D01*
Y579341D01*
X49259Y576137D01*
X50918Y573263D01*
X53263Y570918D01*
X56137Y569259D01*
X59341Y568400D01*
X59500D01*
Y579500D01*
D02*
G37*
G36*
X222995Y535000D02*
X221005D01*
X219168Y534239D01*
X217761Y532832D01*
X217000Y530995D01*
Y529005D01*
X217761Y527168D01*
X219168Y525761D01*
X221005Y525000D01*
X222995D01*
X224832Y525761D01*
X226239Y527168D01*
X227000Y529005D01*
Y530995D01*
X226239Y532832D01*
X224832Y534239D01*
X222995Y535000D01*
D02*
G37*
G36*
X109659Y501600D02*
X109500D01*
Y490500D01*
X120600D01*
Y490659D01*
X119741Y493863D01*
X118083Y496737D01*
X115737Y499082D01*
X112863Y500741D01*
X109659Y501600D01*
D02*
G37*
G36*
X61659D02*
X61500D01*
Y490500D01*
X72600D01*
Y490659D01*
X71741Y493863D01*
X70083Y496737D01*
X67737Y499082D01*
X64863Y500741D01*
X61659Y501600D01*
D02*
G37*
G36*
X58500D02*
X58341D01*
X55137Y500741D01*
X52263Y499082D01*
X49917Y496737D01*
X48259Y493863D01*
X47400Y490659D01*
Y490500D01*
X58500D01*
Y501600D01*
D02*
G37*
G36*
X106500D02*
X106341D01*
X103137Y500741D01*
X100263Y499082D01*
X97917Y496737D01*
X96259Y493863D01*
X95400Y490659D01*
Y490500D01*
X106500D01*
Y501600D01*
D02*
G37*
G36*
X274995Y500000D02*
X273005D01*
X271168Y499239D01*
X269761Y497832D01*
X269000Y495995D01*
Y494005D01*
X269761Y492168D01*
X271168Y490761D01*
X273005Y490000D01*
X274995D01*
X276832Y490761D01*
X278239Y492168D01*
X279000Y494005D01*
Y495995D01*
X278239Y497832D01*
X276832Y499239D01*
X274995Y500000D01*
D02*
G37*
G36*
X120600Y487500D02*
X109500D01*
Y476400D01*
X109659D01*
X112863Y477259D01*
X115737Y478918D01*
X118083Y481263D01*
X119741Y484137D01*
X120600Y487341D01*
Y487500D01*
D02*
G37*
G36*
X106500D02*
X95400D01*
Y487341D01*
X96259Y484137D01*
X97917Y481263D01*
X100263Y478918D01*
X103137Y477259D01*
X106341Y476400D01*
X106500D01*
Y487500D01*
D02*
G37*
G36*
X72600D02*
X61500D01*
Y476400D01*
X61659D01*
X64863Y477259D01*
X67737Y478918D01*
X70083Y481263D01*
X71741Y484137D01*
X72600Y487341D01*
Y487500D01*
D02*
G37*
G36*
X58500D02*
X47400D01*
Y487341D01*
X48259Y484137D01*
X49917Y481263D01*
X52263Y478918D01*
X55137Y477259D01*
X58341Y476400D01*
X58500D01*
Y487500D01*
D02*
G37*
G36*
X612995Y469000D02*
X611005D01*
X609168Y468239D01*
X607761Y466832D01*
X607000Y464995D01*
Y463005D01*
X607761Y461168D01*
X609168Y459761D01*
X611005Y459000D01*
X612995D01*
X614832Y459761D01*
X616239Y461168D01*
X617000Y463005D01*
Y464995D01*
X616239Y466832D01*
X614832Y468239D01*
X612995Y469000D01*
D02*
G37*
G36*
X85256Y474540D02*
X82744D01*
X80318Y473890D01*
X78142Y472634D01*
X76366Y470858D01*
X75110Y468682D01*
X74460Y466256D01*
Y463744D01*
X75110Y461318D01*
X76366Y459142D01*
X78142Y457366D01*
X80318Y456110D01*
X82744Y455460D01*
X85256D01*
X87682Y456110D01*
X89858Y457366D01*
X91634Y459142D01*
X92890Y461318D01*
X93540Y463744D01*
Y466256D01*
X92890Y468682D01*
X91634Y470858D01*
X89858Y472634D01*
X87682Y473890D01*
X85256Y474540D01*
D02*
G37*
G36*
X636995Y457000D02*
X635005D01*
X633168Y456239D01*
X631761Y454832D01*
X631000Y452995D01*
Y451005D01*
X631761Y449168D01*
X633168Y447761D01*
X635005Y447000D01*
X636995D01*
X638832Y447761D01*
X640239Y449168D01*
X641000Y451005D01*
Y452995D01*
X640239Y454832D01*
X638832Y456239D01*
X636995Y457000D01*
D02*
G37*
G36*
X320995Y454000D02*
X319005D01*
X317168Y453239D01*
X315761Y451832D01*
X315000Y449995D01*
Y448005D01*
X315761Y446168D01*
X317168Y444761D01*
X319005Y444000D01*
X320995D01*
X322832Y444761D01*
X324239Y446168D01*
X325000Y448005D01*
Y449995D01*
X324239Y451832D01*
X322832Y453239D01*
X320995Y454000D01*
D02*
G37*
G36*
X109659Y453600D02*
X109500D01*
Y442500D01*
X120600D01*
Y442659D01*
X119741Y445863D01*
X118083Y448737D01*
X115737Y451082D01*
X112863Y452741D01*
X109659Y453600D01*
D02*
G37*
G36*
X61659D02*
X61500D01*
Y442500D01*
X72600D01*
Y442659D01*
X71741Y445863D01*
X70083Y448737D01*
X67737Y451082D01*
X64863Y452741D01*
X61659Y453600D01*
D02*
G37*
G36*
X58500D02*
X58341D01*
X55137Y452741D01*
X52263Y451082D01*
X49917Y448737D01*
X48259Y445863D01*
X47400Y442659D01*
Y442500D01*
X58500D01*
Y453600D01*
D02*
G37*
G36*
X106500D02*
X106341D01*
X103137Y452741D01*
X100263Y451082D01*
X97917Y448737D01*
X96259Y445863D01*
X95400Y442659D01*
Y442500D01*
X106500D01*
Y453600D01*
D02*
G37*
G36*
X480995Y447000D02*
X479005D01*
X477168Y446239D01*
X475761Y444832D01*
X475000Y442995D01*
Y441005D01*
X475761Y439168D01*
X477168Y437761D01*
X479005Y437000D01*
X480995D01*
X482832Y437761D01*
X484239Y439168D01*
X485000Y441005D01*
Y442995D01*
X484239Y444832D01*
X482832Y446239D01*
X480995Y447000D01*
D02*
G37*
G36*
X849500Y457750D02*
X825500D01*
Y433750D01*
X849500D01*
Y457750D01*
D02*
G37*
G36*
X767995Y440000D02*
X766005D01*
X764168Y439239D01*
X762761Y437832D01*
X762000Y435995D01*
Y434005D01*
X762761Y432168D01*
X764168Y430761D01*
X766005Y430000D01*
X767995D01*
X769832Y430761D01*
X771239Y432168D01*
X772000Y434005D01*
Y435995D01*
X771239Y437832D01*
X769832Y439239D01*
X767995Y440000D01*
D02*
G37*
G36*
X120600Y439500D02*
X109500D01*
Y428400D01*
X109659D01*
X112863Y429259D01*
X115737Y430918D01*
X118083Y433263D01*
X119741Y436137D01*
X120600Y439341D01*
Y439500D01*
D02*
G37*
G36*
X106500D02*
X95400D01*
Y439341D01*
X96259Y436137D01*
X97917Y433263D01*
X100263Y430918D01*
X103137Y429259D01*
X106341Y428400D01*
X106500D01*
Y439500D01*
D02*
G37*
G36*
X72600D02*
X61500D01*
Y428400D01*
X61659D01*
X64863Y429259D01*
X67737Y430918D01*
X70083Y433263D01*
X71741Y436137D01*
X72600Y439341D01*
Y439500D01*
D02*
G37*
G36*
X58500D02*
X47400D01*
Y439341D01*
X48259Y436137D01*
X49917Y433263D01*
X52263Y430918D01*
X55137Y429259D01*
X58341Y428400D01*
X58500D01*
Y439500D01*
D02*
G37*
G36*
X864480Y457750D02*
X861320D01*
X858268Y456932D01*
X855532Y455352D01*
X853298Y453118D01*
X851718Y450382D01*
X850900Y447330D01*
Y444170D01*
X851718Y441118D01*
X853298Y438382D01*
X855532Y436148D01*
X858268Y434568D01*
X860069Y434085D01*
Y433050D01*
X857882Y432464D01*
X854918Y430753D01*
X852497Y428332D01*
X850786Y425368D01*
X850200Y423181D01*
X849165D01*
X848682Y424982D01*
X847102Y427718D01*
X844868Y429952D01*
X842132Y431532D01*
X839080Y432350D01*
X835920D01*
X832868Y431532D01*
X830132Y429952D01*
X827898Y427718D01*
X826318Y424982D01*
X825500Y421930D01*
Y418770D01*
X826318Y415718D01*
X827898Y412982D01*
X830132Y410748D01*
X832868Y409168D01*
X835920Y408350D01*
X839080D01*
X842132Y409168D01*
X844868Y410748D01*
X847102Y412982D01*
X848682Y415718D01*
X849165Y417519D01*
X850200D01*
X850786Y415332D01*
X852497Y412368D01*
X854918Y409947D01*
X857882Y408236D01*
X858203Y408150D01*
Y407150D01*
X857882Y407064D01*
X854918Y405353D01*
X852497Y402932D01*
X850786Y399968D01*
X850200Y397781D01*
X849165D01*
X848682Y399582D01*
X847102Y402318D01*
X844868Y404552D01*
X842132Y406132D01*
X839080Y406950D01*
X835920D01*
X832868Y406132D01*
X830132Y404552D01*
X827898Y402318D01*
X826318Y399582D01*
X825500Y396530D01*
Y393370D01*
X826318Y390318D01*
X827898Y387582D01*
X830132Y385348D01*
X832868Y383768D01*
X834669Y383285D01*
Y382250D01*
X832482Y381664D01*
X829518Y379953D01*
X827097Y377532D01*
X825386Y374568D01*
X824500Y371261D01*
Y371050D01*
X837500D01*
Y368050D01*
X824500D01*
Y367839D01*
X825386Y364532D01*
X827097Y361568D01*
X829518Y359147D01*
X832482Y357436D01*
X834669Y356850D01*
Y355815D01*
X832868Y355332D01*
X830132Y353752D01*
X827898Y351518D01*
X826318Y348782D01*
X825500Y345730D01*
Y342570D01*
X826318Y339518D01*
X827898Y336782D01*
X830132Y334548D01*
X832868Y332968D01*
X835920Y332150D01*
X839080D01*
X842132Y332968D01*
X844868Y334548D01*
X847102Y336782D01*
X848682Y339518D01*
X849500Y342570D01*
Y345730D01*
X848682Y348782D01*
X847102Y351518D01*
X844868Y353752D01*
X842132Y355332D01*
X840331Y355815D01*
Y356850D01*
X842518Y357436D01*
X845482Y359147D01*
X847903Y361568D01*
X849614Y364532D01*
X850200Y366719D01*
X851235D01*
X851718Y364918D01*
X853298Y362182D01*
X855532Y359948D01*
X858268Y358368D01*
X861320Y357550D01*
X864480D01*
X867532Y358368D01*
X870268Y359948D01*
X872502Y362182D01*
X874082Y364918D01*
X874900Y367970D01*
Y371130D01*
X874082Y374182D01*
X872502Y376918D01*
X870268Y379152D01*
X867532Y380732D01*
X865731Y381215D01*
Y382250D01*
X867918Y382836D01*
X870882Y384547D01*
X873303Y386968D01*
X875014Y389932D01*
X875900Y393238D01*
Y393450D01*
X862900D01*
Y396450D01*
X875900D01*
Y396661D01*
X875014Y399968D01*
X873303Y402932D01*
X870882Y405353D01*
X867918Y407064D01*
X867597Y407150D01*
Y408150D01*
X867918Y408236D01*
X870882Y409947D01*
X873303Y412368D01*
X875014Y415332D01*
X875900Y418638D01*
Y418850D01*
X862900D01*
Y421850D01*
X875900D01*
Y422062D01*
X875014Y425368D01*
X873303Y428332D01*
X870882Y430753D01*
X867918Y432464D01*
X865731Y433050D01*
Y434085D01*
X867532Y434568D01*
X870268Y436148D01*
X872502Y438382D01*
X874082Y441118D01*
X874900Y444170D01*
Y447330D01*
X874082Y450382D01*
X872502Y453118D01*
X870268Y455352D01*
X867532Y456932D01*
X864480Y457750D01*
D02*
G37*
G36*
X604995Y428020D02*
X603005D01*
X601168Y427259D01*
X599761Y425852D01*
X599000Y424015D01*
Y422025D01*
X599761Y420188D01*
X601168Y418781D01*
X602205Y418352D01*
X602767Y417096D01*
X602391Y416189D01*
Y414200D01*
X603152Y412362D01*
X604559Y410955D01*
X606396Y410194D01*
X608386D01*
X610223Y410955D01*
X611630Y412362D01*
X612391Y414200D01*
Y416189D01*
X611630Y418027D01*
X610223Y419433D01*
X609187Y419863D01*
X608624Y421118D01*
X609000Y422025D01*
Y424015D01*
X608239Y425852D01*
X606832Y427259D01*
X604995Y428020D01*
D02*
G37*
G36*
X659995Y418000D02*
X658005D01*
X656168Y417239D01*
X654761Y415832D01*
X654000Y413995D01*
Y412005D01*
X654761Y410168D01*
X656168Y408761D01*
X658005Y408000D01*
X659995D01*
X661832Y408761D01*
X663239Y410168D01*
X664000Y412005D01*
Y413995D01*
X663239Y415832D01*
X661832Y417239D01*
X659995Y418000D01*
D02*
G37*
G36*
X661995Y398000D02*
X660005D01*
X658168Y397239D01*
X656761Y395832D01*
X656000Y393995D01*
Y392005D01*
X656761Y390168D01*
X658168Y388761D01*
X660005Y388000D01*
X661995D01*
X663832Y388761D01*
X665239Y390168D01*
X666000Y392005D01*
Y393995D01*
X665239Y395832D01*
X663832Y397239D01*
X661995Y398000D01*
D02*
G37*
G36*
X221995Y395000D02*
X220005D01*
X218168Y394239D01*
X216761Y392832D01*
X216000Y390995D01*
Y389005D01*
X216761Y387168D01*
X218168Y385761D01*
X220005Y385000D01*
X221995D01*
X223832Y385761D01*
X225239Y387168D01*
X226000Y389005D01*
Y390995D01*
X225239Y392832D01*
X223832Y394239D01*
X221995Y395000D01*
D02*
G37*
G36*
X109659Y361600D02*
X109500D01*
Y350500D01*
X120600D01*
Y350659D01*
X119741Y353863D01*
X118083Y356737D01*
X115737Y359082D01*
X112863Y360741D01*
X109659Y361600D01*
D02*
G37*
G36*
X61659D02*
X61500D01*
Y350500D01*
X72600D01*
Y350659D01*
X71741Y353863D01*
X70083Y356737D01*
X67737Y359082D01*
X64863Y360741D01*
X61659Y361600D01*
D02*
G37*
G36*
X58500D02*
X58341D01*
X55137Y360741D01*
X52263Y359082D01*
X49917Y356737D01*
X48259Y353863D01*
X47400Y350659D01*
Y350500D01*
X58500D01*
Y361600D01*
D02*
G37*
G36*
X106500D02*
X106341D01*
X103137Y360741D01*
X100263Y359082D01*
X97917Y356737D01*
X96259Y353863D01*
X95400Y350659D01*
Y350500D01*
X106500D01*
Y361600D01*
D02*
G37*
G36*
X274995Y360000D02*
X273005D01*
X271168Y359239D01*
X269761Y357832D01*
X269000Y355995D01*
Y354005D01*
X269761Y352168D01*
X271168Y350761D01*
X273005Y350000D01*
X274995D01*
X276832Y350761D01*
X278239Y352168D01*
X279000Y354005D01*
Y355995D01*
X278239Y357832D01*
X276832Y359239D01*
X274995Y360000D01*
D02*
G37*
G36*
X120600Y347500D02*
X109500D01*
Y336400D01*
X109659D01*
X112863Y337259D01*
X115737Y338918D01*
X118083Y341263D01*
X119741Y344137D01*
X120600Y347341D01*
Y347500D01*
D02*
G37*
G36*
X106500D02*
X95400D01*
Y347341D01*
X96259Y344137D01*
X97917Y341263D01*
X100263Y338918D01*
X103137Y337259D01*
X106341Y336400D01*
X106500D01*
Y347500D01*
D02*
G37*
G36*
X72600D02*
X61500D01*
Y336400D01*
X61659D01*
X64863Y337259D01*
X67737Y338918D01*
X70083Y341263D01*
X71741Y344137D01*
X72600Y347341D01*
Y347500D01*
D02*
G37*
G36*
X58500D02*
X47400D01*
Y347341D01*
X48259Y344137D01*
X49917Y341263D01*
X52263Y338918D01*
X55137Y337259D01*
X58341Y336400D01*
X58500D01*
Y347500D01*
D02*
G37*
G36*
X864480Y356150D02*
X861320D01*
X858268Y355332D01*
X855532Y353752D01*
X853298Y351518D01*
X851718Y348782D01*
X850900Y345730D01*
Y342570D01*
X851718Y339518D01*
X853298Y336782D01*
X855532Y334548D01*
X858268Y332968D01*
X861320Y332150D01*
X864480D01*
X867532Y332968D01*
X870268Y334548D01*
X872502Y336782D01*
X874082Y339518D01*
X874900Y342570D01*
Y345730D01*
X874082Y348782D01*
X872502Y351518D01*
X870268Y353752D01*
X867532Y355332D01*
X864480Y356150D01*
D02*
G37*
G36*
X652995Y339000D02*
X651005D01*
X649168Y338239D01*
X647761Y336832D01*
X647000Y334995D01*
Y333005D01*
X647761Y331168D01*
X649168Y329761D01*
X651005Y329000D01*
X652995D01*
X654832Y329761D01*
X656239Y331168D01*
X657000Y333005D01*
Y334995D01*
X656239Y336832D01*
X654832Y338239D01*
X652995Y339000D01*
D02*
G37*
G36*
X85256Y334540D02*
X82744D01*
X80318Y333890D01*
X78142Y332634D01*
X76366Y330858D01*
X75110Y328682D01*
X74460Y326256D01*
Y323744D01*
X75110Y321318D01*
X76366Y319142D01*
X78142Y317366D01*
X80318Y316110D01*
X82744Y315460D01*
X85256D01*
X87682Y316110D01*
X89858Y317366D01*
X91634Y319142D01*
X92890Y321318D01*
X93540Y323744D01*
Y326256D01*
X92890Y328682D01*
X91634Y330858D01*
X89858Y332634D01*
X87682Y333890D01*
X85256Y334540D01*
D02*
G37*
G36*
X320995Y314000D02*
X319005D01*
X317168Y313239D01*
X315761Y311832D01*
X315000Y309995D01*
Y308005D01*
X315761Y306168D01*
X317168Y304761D01*
X319005Y304000D01*
X320995D01*
X322832Y304761D01*
X324239Y306168D01*
X325000Y308005D01*
Y309995D01*
X324239Y311832D01*
X322832Y313239D01*
X320995Y314000D01*
D02*
G37*
G36*
X109659Y313600D02*
X109500D01*
Y302500D01*
X120600D01*
Y302659D01*
X119741Y305863D01*
X118083Y308737D01*
X115737Y311082D01*
X112863Y312741D01*
X109659Y313600D01*
D02*
G37*
G36*
X61659D02*
X61500D01*
Y302500D01*
X72600D01*
Y302659D01*
X71741Y305863D01*
X70083Y308737D01*
X67737Y311082D01*
X64863Y312741D01*
X61659Y313600D01*
D02*
G37*
G36*
X58500D02*
X58341D01*
X55137Y312741D01*
X52263Y311082D01*
X49917Y308737D01*
X48259Y305863D01*
X47400Y302659D01*
Y302500D01*
X58500D01*
Y313600D01*
D02*
G37*
G36*
X106500D02*
X106341D01*
X103137Y312741D01*
X100263Y311082D01*
X97917Y308737D01*
X96259Y305863D01*
X95400Y302659D01*
Y302500D01*
X106500D01*
Y313600D01*
D02*
G37*
G36*
X481995Y307000D02*
X480005D01*
X478168Y306239D01*
X476761Y304832D01*
X476000Y302995D01*
Y301005D01*
X476761Y299168D01*
X478168Y297761D01*
X480005Y297000D01*
X481995D01*
X483832Y297761D01*
X485239Y299168D01*
X486000Y301005D01*
Y302995D01*
X485239Y304832D01*
X483832Y306239D01*
X481995Y307000D01*
D02*
G37*
G36*
X120600Y299500D02*
X109500D01*
Y288400D01*
X109659D01*
X112863Y289259D01*
X115737Y290917D01*
X118083Y293263D01*
X119741Y296137D01*
X120600Y299341D01*
Y299500D01*
D02*
G37*
G36*
X106500D02*
X95400D01*
Y299341D01*
X96259Y296137D01*
X97917Y293263D01*
X100263Y290917D01*
X103137Y289259D01*
X106341Y288400D01*
X106500D01*
Y299500D01*
D02*
G37*
G36*
X72600D02*
X61500D01*
Y288400D01*
X61659D01*
X64863Y289259D01*
X67737Y290917D01*
X70083Y293263D01*
X71741Y296137D01*
X72600Y299341D01*
Y299500D01*
D02*
G37*
G36*
X58500D02*
X47400D01*
Y299341D01*
X48259Y296137D01*
X49917Y293263D01*
X52263Y290917D01*
X55137Y289259D01*
X58341Y288400D01*
X58500D01*
Y299500D01*
D02*
G37*
G36*
X221995Y255000D02*
X220005D01*
X218168Y254239D01*
X216761Y252832D01*
X216000Y250995D01*
Y249005D01*
X216761Y247168D01*
X218168Y245761D01*
X220005Y245000D01*
X221995D01*
X223832Y245761D01*
X225239Y247168D01*
X226000Y249005D01*
Y250995D01*
X225239Y252832D01*
X223832Y254239D01*
X221995Y255000D01*
D02*
G37*
G36*
X110659Y222600D02*
X110500D01*
Y211500D01*
X121600D01*
Y211659D01*
X120741Y214863D01*
X119082Y217737D01*
X116737Y220082D01*
X113863Y221741D01*
X110659Y222600D01*
D02*
G37*
G36*
X62659D02*
X62500D01*
Y211500D01*
X73600D01*
Y211659D01*
X72741Y214863D01*
X71083Y217737D01*
X68737Y220082D01*
X65863Y221741D01*
X62659Y222600D01*
D02*
G37*
G36*
X59500D02*
X59341D01*
X56137Y221741D01*
X53263Y220082D01*
X50918Y217737D01*
X49259Y214863D01*
X48400Y211659D01*
Y211500D01*
X59500D01*
Y222600D01*
D02*
G37*
G36*
X107500D02*
X107341D01*
X104137Y221741D01*
X101263Y220082D01*
X98918Y217737D01*
X97259Y214863D01*
X96400Y211659D01*
Y211500D01*
X107500D01*
Y222600D01*
D02*
G37*
G36*
X275995Y221000D02*
X274005D01*
X272168Y220239D01*
X270761Y218832D01*
X270000Y216994D01*
Y215005D01*
X270761Y213168D01*
X272168Y211761D01*
X274005Y211000D01*
X275995D01*
X277832Y211761D01*
X279239Y213168D01*
X280000Y215005D01*
Y216994D01*
X279239Y218832D01*
X277832Y220239D01*
X275995Y221000D01*
D02*
G37*
G36*
X121600Y208500D02*
X110500D01*
Y197400D01*
X110659D01*
X113863Y198259D01*
X116737Y199918D01*
X119082Y202263D01*
X120741Y205137D01*
X121600Y208341D01*
Y208500D01*
D02*
G37*
G36*
X107500D02*
X96400D01*
Y208341D01*
X97259Y205137D01*
X98918Y202263D01*
X101263Y199918D01*
X104137Y198259D01*
X107341Y197400D01*
X107500D01*
Y208500D01*
D02*
G37*
G36*
X73600D02*
X62500D01*
Y197400D01*
X62659D01*
X65863Y198259D01*
X68737Y199918D01*
X71083Y202263D01*
X72741Y205137D01*
X73600Y208341D01*
Y208500D01*
D02*
G37*
G36*
X59500D02*
X48400D01*
Y208341D01*
X49259Y205137D01*
X50918Y202263D01*
X53263Y199918D01*
X56137Y198259D01*
X59341Y197400D01*
X59500D01*
Y208500D01*
D02*
G37*
G36*
X86256Y195540D02*
X83744D01*
X81318Y194890D01*
X79142Y193634D01*
X77366Y191858D01*
X76110Y189682D01*
X75460Y187256D01*
Y184744D01*
X76110Y182318D01*
X77366Y180142D01*
X79142Y178366D01*
X81318Y177110D01*
X83744Y176460D01*
X86256D01*
X88682Y177110D01*
X90858Y178366D01*
X92634Y180142D01*
X93890Y182318D01*
X94540Y184744D01*
Y187256D01*
X93890Y189682D01*
X92634Y191858D01*
X90858Y193634D01*
X88682Y194890D01*
X86256Y195540D01*
D02*
G37*
G36*
X480995Y177000D02*
X479005D01*
X477168Y176239D01*
X475761Y174832D01*
X475000Y172995D01*
Y171005D01*
X475761Y169168D01*
X477168Y167761D01*
X479005Y167000D01*
X480995D01*
X482832Y167761D01*
X484239Y169168D01*
X485000Y171005D01*
Y172995D01*
X484239Y174832D01*
X482832Y176239D01*
X480995Y177000D01*
D02*
G37*
G36*
X321995Y175000D02*
X320005D01*
X318168Y174239D01*
X316761Y172832D01*
X316000Y170994D01*
Y169005D01*
X316761Y167168D01*
X318168Y165761D01*
X320005Y165000D01*
X321995D01*
X323832Y165761D01*
X325239Y167168D01*
X326000Y169005D01*
Y170994D01*
X325239Y172832D01*
X323832Y174239D01*
X321995Y175000D01*
D02*
G37*
G36*
X110659Y174600D02*
X110500D01*
Y163500D01*
X121600D01*
Y163659D01*
X120741Y166863D01*
X119082Y169737D01*
X116737Y172083D01*
X113863Y173741D01*
X110659Y174600D01*
D02*
G37*
G36*
X62659D02*
X62500D01*
Y163500D01*
X73600D01*
Y163659D01*
X72741Y166863D01*
X71083Y169737D01*
X68737Y172083D01*
X65863Y173741D01*
X62659Y174600D01*
D02*
G37*
G36*
X59500D02*
X59341D01*
X56137Y173741D01*
X53263Y172083D01*
X50918Y169737D01*
X49259Y166863D01*
X48400Y163659D01*
Y163500D01*
X59500D01*
Y174600D01*
D02*
G37*
G36*
X107500D02*
X107341D01*
X104137Y173741D01*
X101263Y172083D01*
X98918Y169737D01*
X97259Y166863D01*
X96400Y163659D01*
Y163500D01*
X107500D01*
Y174600D01*
D02*
G37*
G36*
X121600Y160500D02*
X110500D01*
Y149400D01*
X110659D01*
X113863Y150259D01*
X116737Y151917D01*
X119082Y154263D01*
X120741Y157137D01*
X121600Y160341D01*
Y160500D01*
D02*
G37*
G36*
X107500D02*
X96400D01*
Y160341D01*
X97259Y157137D01*
X98918Y154263D01*
X101263Y151917D01*
X104137Y150259D01*
X107341Y149400D01*
X107500D01*
Y160500D01*
D02*
G37*
G36*
X73600D02*
X62500D01*
Y149400D01*
X62659D01*
X65863Y150259D01*
X68737Y151917D01*
X71083Y154263D01*
X72741Y157137D01*
X73600Y160341D01*
Y160500D01*
D02*
G37*
G36*
X59500D02*
X48400D01*
Y160341D01*
X49259Y157137D01*
X50918Y154263D01*
X53263Y151917D01*
X56137Y150259D01*
X59341Y149400D01*
X59500D01*
Y160500D01*
D02*
G37*
G36*
X222995Y116000D02*
X221005D01*
X219168Y115239D01*
X217761Y113832D01*
X217000Y111994D01*
Y110005D01*
X217761Y108168D01*
X219168Y106761D01*
X221005Y106000D01*
X222995D01*
X224832Y106761D01*
X226239Y108168D01*
X227000Y110005D01*
Y111994D01*
X226239Y113832D01*
X224832Y115239D01*
X222995Y116000D01*
D02*
G37*
G36*
X791272Y80471D02*
Y76271D01*
X795472D01*
X794698Y78139D01*
X793140Y79697D01*
X791272Y80471D01*
D02*
G37*
G36*
X788732D02*
X786863Y79697D01*
X785305Y78139D01*
X784531Y76271D01*
X788732D01*
Y80471D01*
D02*
G37*
G36*
X771272D02*
Y76271D01*
X775472D01*
X774698Y78139D01*
X773140Y79697D01*
X771272Y80471D01*
D02*
G37*
G36*
X768732D02*
X766863Y79697D01*
X765305Y78139D01*
X764531Y76271D01*
X768732D01*
Y80471D01*
D02*
G37*
G36*
X751272D02*
Y76271D01*
X755472D01*
X754698Y78139D01*
X753140Y79697D01*
X751272Y80471D01*
D02*
G37*
G36*
X748732D02*
X746863Y79697D01*
X745305Y78139D01*
X744531Y76271D01*
X748732D01*
Y80471D01*
D02*
G37*
G36*
X731272D02*
Y76271D01*
X735472D01*
X734698Y78139D01*
X733140Y79697D01*
X731272Y80471D01*
D02*
G37*
G36*
X728732D02*
X726863Y79697D01*
X725305Y78139D01*
X724531Y76271D01*
X728732D01*
Y80471D01*
D02*
G37*
G36*
X711272D02*
Y76271D01*
X715472D01*
X714698Y78139D01*
X713140Y79697D01*
X711272Y80471D01*
D02*
G37*
G36*
X708732D02*
X706863Y79697D01*
X705305Y78139D01*
X704531Y76271D01*
X708732D01*
Y80471D01*
D02*
G37*
G36*
X691272D02*
Y76271D01*
X695472D01*
X694698Y78139D01*
X693140Y79697D01*
X691272Y80471D01*
D02*
G37*
G36*
X688732D02*
X686863Y79697D01*
X685305Y78139D01*
X684531Y76271D01*
X688732D01*
Y80471D01*
D02*
G37*
G36*
X671272D02*
Y76271D01*
X675472D01*
X674698Y78139D01*
X673140Y79697D01*
X671272Y80471D01*
D02*
G37*
G36*
X668732D02*
X666863Y79697D01*
X665305Y78139D01*
X664531Y76271D01*
X668732D01*
Y80471D01*
D02*
G37*
G36*
X651271D02*
Y76271D01*
X655472D01*
X654698Y78139D01*
X653140Y79697D01*
X651271Y80471D01*
D02*
G37*
G36*
X648731D02*
X646863Y79697D01*
X645305Y78139D01*
X644531Y76271D01*
X648731D01*
Y80471D01*
D02*
G37*
G36*
X631271D02*
Y76271D01*
X635472D01*
X634698Y78139D01*
X633140Y79697D01*
X631271Y80471D01*
D02*
G37*
G36*
X628731D02*
X626863Y79697D01*
X625305Y78139D01*
X624531Y76271D01*
X628731D01*
Y80471D01*
D02*
G37*
G36*
X611271D02*
Y76271D01*
X615472D01*
X614698Y78139D01*
X613140Y79697D01*
X611271Y80471D01*
D02*
G37*
G36*
X608731D02*
X606863Y79697D01*
X605305Y78139D01*
X604531Y76271D01*
X608731D01*
Y80471D01*
D02*
G37*
G36*
X591271D02*
Y76271D01*
X595472D01*
X594698Y78139D01*
X593140Y79697D01*
X591271Y80471D01*
D02*
G37*
G36*
X588731D02*
X586863Y79697D01*
X585305Y78139D01*
X584531Y76271D01*
X588731D01*
Y80471D01*
D02*
G37*
G36*
X571271D02*
Y76271D01*
X575472D01*
X574698Y78139D01*
X573139Y79697D01*
X571271Y80471D01*
D02*
G37*
G36*
X568731D02*
X566863Y79697D01*
X565305Y78139D01*
X564531Y76271D01*
X568731D01*
Y80471D01*
D02*
G37*
G36*
X551271D02*
Y76271D01*
X555472D01*
X554698Y78139D01*
X553139Y79697D01*
X551271Y80471D01*
D02*
G37*
G36*
X548731D02*
X546863Y79697D01*
X545305Y78139D01*
X544531Y76271D01*
X548731D01*
Y80471D01*
D02*
G37*
G36*
X531271D02*
Y76271D01*
X535472D01*
X534698Y78139D01*
X533139Y79697D01*
X531271Y80471D01*
D02*
G37*
G36*
X528731D02*
X526863Y79697D01*
X525305Y78139D01*
X524531Y76271D01*
X528731D01*
Y80471D01*
D02*
G37*
G36*
X511271D02*
Y76271D01*
X515472D01*
X514698Y78139D01*
X513139Y79697D01*
X511271Y80471D01*
D02*
G37*
G36*
X508731D02*
X506863Y79697D01*
X505305Y78139D01*
X504531Y76271D01*
X508731D01*
Y80471D01*
D02*
G37*
G36*
X491271D02*
Y76271D01*
X495472D01*
X494698Y78139D01*
X493139Y79697D01*
X491271Y80471D01*
D02*
G37*
G36*
X488731D02*
X486863Y79697D01*
X485305Y78139D01*
X484531Y76271D01*
X488731D01*
Y80471D01*
D02*
G37*
G36*
X471271D02*
Y76271D01*
X475472D01*
X474698Y78139D01*
X473139Y79697D01*
X471271Y80471D01*
D02*
G37*
G36*
X468731D02*
X466863Y79697D01*
X465305Y78139D01*
X464531Y76271D01*
X468731D01*
Y80471D01*
D02*
G37*
G36*
X451271D02*
Y76271D01*
X455472D01*
X454698Y78139D01*
X453139Y79697D01*
X451271Y80471D01*
D02*
G37*
G36*
X448731D02*
X446863Y79697D01*
X445305Y78139D01*
X444531Y76271D01*
X448731D01*
Y80471D01*
D02*
G37*
G36*
X431271D02*
Y76271D01*
X435472D01*
X434698Y78139D01*
X433139Y79697D01*
X431271Y80471D01*
D02*
G37*
G36*
X428731D02*
X426863Y79697D01*
X425305Y78139D01*
X424531Y76271D01*
X428731D01*
Y80471D01*
D02*
G37*
G36*
X411271D02*
Y76271D01*
X415472D01*
X414698Y78139D01*
X413139Y79697D01*
X411271Y80471D01*
D02*
G37*
G36*
X408731D02*
X406863Y79697D01*
X405305Y78139D01*
X404531Y76271D01*
X408731D01*
Y80471D01*
D02*
G37*
G36*
X391271D02*
Y76271D01*
X395472D01*
X394698Y78139D01*
X393139Y79697D01*
X391271Y80471D01*
D02*
G37*
G36*
X388731D02*
X386863Y79697D01*
X385305Y78139D01*
X384531Y76271D01*
X388731D01*
Y80471D01*
D02*
G37*
G36*
X371271D02*
Y76271D01*
X375472D01*
X374698Y78139D01*
X373139Y79697D01*
X371271Y80471D01*
D02*
G37*
G36*
X368731D02*
X366863Y79697D01*
X365305Y78139D01*
X364531Y76271D01*
X368731D01*
Y80471D01*
D02*
G37*
G36*
X351271D02*
Y76271D01*
X355472D01*
X354698Y78139D01*
X353139Y79697D01*
X351271Y80471D01*
D02*
G37*
G36*
X348731D02*
X346863Y79697D01*
X345305Y78139D01*
X344531Y76271D01*
X348731D01*
Y80471D01*
D02*
G37*
G36*
X331271D02*
Y76271D01*
X335472D01*
X334698Y78139D01*
X333139Y79697D01*
X331271Y80471D01*
D02*
G37*
G36*
X328731D02*
X326863Y79697D01*
X325305Y78139D01*
X324531Y76271D01*
X328731D01*
Y80471D01*
D02*
G37*
G36*
X311271D02*
Y76271D01*
X315472D01*
X314698Y78139D01*
X313139Y79697D01*
X311271Y80471D01*
D02*
G37*
G36*
X308731D02*
X306863Y79697D01*
X305305Y78139D01*
X304531Y76271D01*
X308731D01*
Y80471D01*
D02*
G37*
G36*
X291271D02*
Y76271D01*
X295472D01*
X294698Y78139D01*
X293139Y79697D01*
X291271Y80471D01*
D02*
G37*
G36*
X288731D02*
X286863Y79697D01*
X285305Y78139D01*
X284531Y76271D01*
X288731D01*
Y80471D01*
D02*
G37*
G36*
X795472Y73731D02*
X791272D01*
Y69531D01*
X793140Y70304D01*
X794698Y71863D01*
X795472Y73731D01*
D02*
G37*
G36*
X788732D02*
X784531D01*
X785305Y71863D01*
X786863Y70304D01*
X788732Y69531D01*
Y73731D01*
D02*
G37*
G36*
X775472D02*
X771272D01*
Y69531D01*
X773140Y70304D01*
X774698Y71863D01*
X775472Y73731D01*
D02*
G37*
G36*
X768732D02*
X764531D01*
X765305Y71863D01*
X766863Y70304D01*
X768732Y69531D01*
Y73731D01*
D02*
G37*
G36*
X755472D02*
X751272D01*
Y69531D01*
X753140Y70304D01*
X754698Y71863D01*
X755472Y73731D01*
D02*
G37*
G36*
X748732D02*
X744531D01*
X745305Y71863D01*
X746863Y70304D01*
X748732Y69531D01*
Y73731D01*
D02*
G37*
G36*
X735472D02*
X731272D01*
Y69531D01*
X733140Y70304D01*
X734698Y71863D01*
X735472Y73731D01*
D02*
G37*
G36*
X728732D02*
X724531D01*
X725305Y71863D01*
X726863Y70304D01*
X728732Y69531D01*
Y73731D01*
D02*
G37*
G36*
X715472D02*
X711272D01*
Y69531D01*
X713140Y70304D01*
X714698Y71863D01*
X715472Y73731D01*
D02*
G37*
G36*
X708732D02*
X704531D01*
X705305Y71863D01*
X706863Y70304D01*
X708732Y69531D01*
Y73731D01*
D02*
G37*
G36*
X695472D02*
X691272D01*
Y69531D01*
X693140Y70304D01*
X694698Y71863D01*
X695472Y73731D01*
D02*
G37*
G36*
X688732D02*
X684531D01*
X685305Y71863D01*
X686863Y70304D01*
X688732Y69531D01*
Y73731D01*
D02*
G37*
G36*
X675472D02*
X671272D01*
Y69531D01*
X673140Y70304D01*
X674698Y71863D01*
X675472Y73731D01*
D02*
G37*
G36*
X668732D02*
X664531D01*
X665305Y71863D01*
X666863Y70304D01*
X668732Y69531D01*
Y73731D01*
D02*
G37*
G36*
X655472D02*
X651271D01*
Y69531D01*
X653140Y70304D01*
X654698Y71863D01*
X655472Y73731D01*
D02*
G37*
G36*
X648731D02*
X644531D01*
X645305Y71863D01*
X646863Y70304D01*
X648731Y69531D01*
Y73731D01*
D02*
G37*
G36*
X635472D02*
X631271D01*
Y69531D01*
X633140Y70304D01*
X634698Y71863D01*
X635472Y73731D01*
D02*
G37*
G36*
X628731D02*
X624531D01*
X625305Y71863D01*
X626863Y70304D01*
X628731Y69531D01*
Y73731D01*
D02*
G37*
G36*
X615472D02*
X611271D01*
Y69531D01*
X613140Y70304D01*
X614698Y71863D01*
X615472Y73731D01*
D02*
G37*
G36*
X608731D02*
X604531D01*
X605305Y71863D01*
X606863Y70304D01*
X608731Y69531D01*
Y73731D01*
D02*
G37*
G36*
X595472D02*
X591271D01*
Y69531D01*
X593140Y70304D01*
X594698Y71863D01*
X595472Y73731D01*
D02*
G37*
G36*
X588731D02*
X584531D01*
X585305Y71863D01*
X586863Y70304D01*
X588731Y69531D01*
Y73731D01*
D02*
G37*
G36*
X575472D02*
X571271D01*
Y69531D01*
X573139Y70304D01*
X574698Y71863D01*
X575472Y73731D01*
D02*
G37*
G36*
X568731D02*
X564531D01*
X565305Y71863D01*
X566863Y70304D01*
X568731Y69531D01*
Y73731D01*
D02*
G37*
G36*
X555472D02*
X551271D01*
Y69531D01*
X553139Y70304D01*
X554698Y71863D01*
X555472Y73731D01*
D02*
G37*
G36*
X548731D02*
X544531D01*
X545305Y71863D01*
X546863Y70304D01*
X548731Y69531D01*
Y73731D01*
D02*
G37*
G36*
X535472D02*
X531271D01*
Y69531D01*
X533139Y70304D01*
X534698Y71863D01*
X535472Y73731D01*
D02*
G37*
G36*
X528731D02*
X524531D01*
X525305Y71863D01*
X526863Y70304D01*
X528731Y69531D01*
Y73731D01*
D02*
G37*
G36*
X515472D02*
X511271D01*
Y69531D01*
X513139Y70304D01*
X514698Y71863D01*
X515472Y73731D01*
D02*
G37*
G36*
X508731D02*
X504531D01*
X505305Y71863D01*
X506863Y70304D01*
X508731Y69531D01*
Y73731D01*
D02*
G37*
G36*
X495472D02*
X491271D01*
Y69531D01*
X493139Y70304D01*
X494698Y71863D01*
X495472Y73731D01*
D02*
G37*
G36*
X488731D02*
X484531D01*
X485305Y71863D01*
X486863Y70304D01*
X488731Y69531D01*
Y73731D01*
D02*
G37*
G36*
X475472D02*
X471271D01*
Y69531D01*
X473139Y70304D01*
X474698Y71863D01*
X475472Y73731D01*
D02*
G37*
G36*
X468731D02*
X464531D01*
X465305Y71863D01*
X466863Y70304D01*
X468731Y69531D01*
Y73731D01*
D02*
G37*
G36*
X455472D02*
X451271D01*
Y69531D01*
X453139Y70304D01*
X454698Y71863D01*
X455472Y73731D01*
D02*
G37*
G36*
X448731D02*
X444531D01*
X445305Y71863D01*
X446863Y70304D01*
X448731Y69531D01*
Y73731D01*
D02*
G37*
G36*
X435472D02*
X431271D01*
Y69531D01*
X433139Y70304D01*
X434698Y71863D01*
X435472Y73731D01*
D02*
G37*
G36*
X428731D02*
X424531D01*
X425305Y71863D01*
X426863Y70304D01*
X428731Y69531D01*
Y73731D01*
D02*
G37*
G36*
X415472D02*
X411271D01*
Y69531D01*
X413139Y70304D01*
X414698Y71863D01*
X415472Y73731D01*
D02*
G37*
G36*
X408731D02*
X404531D01*
X405305Y71863D01*
X406863Y70304D01*
X408731Y69531D01*
Y73731D01*
D02*
G37*
G36*
X395472D02*
X391271D01*
Y69531D01*
X393139Y70304D01*
X394698Y71863D01*
X395472Y73731D01*
D02*
G37*
G36*
X388731D02*
X384531D01*
X385305Y71863D01*
X386863Y70304D01*
X388731Y69531D01*
Y73731D01*
D02*
G37*
G36*
X375472D02*
X371271D01*
Y69531D01*
X373139Y70304D01*
X374698Y71863D01*
X375472Y73731D01*
D02*
G37*
G36*
X368731D02*
X364531D01*
X365305Y71863D01*
X366863Y70304D01*
X368731Y69531D01*
Y73731D01*
D02*
G37*
G36*
X355472D02*
X351271D01*
Y69531D01*
X353139Y70304D01*
X354698Y71863D01*
X355472Y73731D01*
D02*
G37*
G36*
X348731D02*
X344531D01*
X345305Y71863D01*
X346863Y70304D01*
X348731Y69531D01*
Y73731D01*
D02*
G37*
G36*
X335472D02*
X331271D01*
Y69531D01*
X333139Y70304D01*
X334698Y71863D01*
X335472Y73731D01*
D02*
G37*
G36*
X328731D02*
X324531D01*
X325305Y71863D01*
X326863Y70304D01*
X328731Y69531D01*
Y73731D01*
D02*
G37*
G36*
X315472D02*
X311271D01*
Y69531D01*
X313139Y70304D01*
X314698Y71863D01*
X315472Y73731D01*
D02*
G37*
G36*
X308731D02*
X304531D01*
X305305Y71863D01*
X306863Y70304D01*
X308731Y69531D01*
Y73731D01*
D02*
G37*
G36*
X295472D02*
X291271D01*
Y69531D01*
X293139Y70304D01*
X294698Y71863D01*
X295472Y73731D01*
D02*
G37*
G36*
X288731D02*
X284531D01*
X285305Y71863D01*
X286863Y70304D01*
X288731Y69531D01*
Y73731D01*
D02*
G37*
G36*
X781272Y60471D02*
Y56271D01*
X785472D01*
X784698Y58139D01*
X783140Y59697D01*
X781272Y60471D01*
D02*
G37*
G36*
X778732D02*
X776863Y59697D01*
X775305Y58139D01*
X774531Y56271D01*
X778732D01*
Y60471D01*
D02*
G37*
G36*
X761272D02*
Y56271D01*
X765472D01*
X764698Y58139D01*
X763140Y59697D01*
X761272Y60471D01*
D02*
G37*
G36*
X758732D02*
X756863Y59697D01*
X755305Y58139D01*
X754531Y56271D01*
X758732D01*
Y60471D01*
D02*
G37*
G36*
X741272D02*
Y56271D01*
X745472D01*
X744698Y58139D01*
X743140Y59697D01*
X741272Y60471D01*
D02*
G37*
G36*
X738732D02*
X736863Y59697D01*
X735305Y58139D01*
X734531Y56271D01*
X738732D01*
Y60471D01*
D02*
G37*
G36*
X721272D02*
Y56271D01*
X725472D01*
X724698Y58139D01*
X723140Y59697D01*
X721272Y60471D01*
D02*
G37*
G36*
X718732D02*
X716863Y59697D01*
X715305Y58139D01*
X714531Y56271D01*
X718732D01*
Y60471D01*
D02*
G37*
G36*
X701272D02*
Y56271D01*
X705472D01*
X704698Y58139D01*
X703140Y59697D01*
X701272Y60471D01*
D02*
G37*
G36*
X698732D02*
X696863Y59697D01*
X695305Y58139D01*
X694531Y56271D01*
X698732D01*
Y60471D01*
D02*
G37*
G36*
X681272D02*
Y56271D01*
X685472D01*
X684698Y58139D01*
X683140Y59697D01*
X681272Y60471D01*
D02*
G37*
G36*
X678732D02*
X676863Y59697D01*
X675305Y58139D01*
X674531Y56271D01*
X678732D01*
Y60471D01*
D02*
G37*
G36*
X661271D02*
Y56271D01*
X665472D01*
X664698Y58139D01*
X663140Y59697D01*
X661271Y60471D01*
D02*
G37*
G36*
X658731D02*
X656863Y59697D01*
X655305Y58139D01*
X654531Y56271D01*
X658731D01*
Y60471D01*
D02*
G37*
G36*
X641271D02*
Y56271D01*
X645472D01*
X644698Y58139D01*
X643140Y59697D01*
X641271Y60471D01*
D02*
G37*
G36*
X638731D02*
X636863Y59697D01*
X635305Y58139D01*
X634531Y56271D01*
X638731D01*
Y60471D01*
D02*
G37*
G36*
X621271D02*
Y56271D01*
X625472D01*
X624698Y58139D01*
X623140Y59697D01*
X621271Y60471D01*
D02*
G37*
G36*
X618731D02*
X616863Y59697D01*
X615305Y58139D01*
X614531Y56271D01*
X618731D01*
Y60471D01*
D02*
G37*
G36*
X601271D02*
Y56271D01*
X605472D01*
X604698Y58139D01*
X603140Y59697D01*
X601271Y60471D01*
D02*
G37*
G36*
X598731D02*
X596863Y59697D01*
X595305Y58139D01*
X594531Y56271D01*
X598731D01*
Y60471D01*
D02*
G37*
G36*
X581271D02*
Y56271D01*
X585472D01*
X584698Y58139D01*
X583139Y59697D01*
X581271Y60471D01*
D02*
G37*
G36*
X578731D02*
X576863Y59697D01*
X575305Y58139D01*
X574531Y56271D01*
X578731D01*
Y60471D01*
D02*
G37*
G36*
X561271D02*
Y56271D01*
X565472D01*
X564698Y58139D01*
X563139Y59697D01*
X561271Y60471D01*
D02*
G37*
G36*
X558731D02*
X556863Y59697D01*
X555305Y58139D01*
X554531Y56271D01*
X558731D01*
Y60471D01*
D02*
G37*
G36*
X541271D02*
Y56271D01*
X545472D01*
X544698Y58139D01*
X543139Y59697D01*
X541271Y60471D01*
D02*
G37*
G36*
X538731D02*
X536863Y59697D01*
X535305Y58139D01*
X534531Y56271D01*
X538731D01*
Y60471D01*
D02*
G37*
G36*
X521271D02*
Y56271D01*
X525472D01*
X524698Y58139D01*
X523139Y59697D01*
X521271Y60471D01*
D02*
G37*
G36*
X518731D02*
X516863Y59697D01*
X515305Y58139D01*
X514531Y56271D01*
X518731D01*
Y60471D01*
D02*
G37*
G36*
X501271D02*
Y56271D01*
X505472D01*
X504698Y58139D01*
X503139Y59697D01*
X501271Y60471D01*
D02*
G37*
G36*
X498731D02*
X496863Y59697D01*
X495305Y58139D01*
X494531Y56271D01*
X498731D01*
Y60471D01*
D02*
G37*
G36*
X481271D02*
Y56271D01*
X485472D01*
X484698Y58139D01*
X483139Y59697D01*
X481271Y60471D01*
D02*
G37*
G36*
X478731D02*
X476863Y59697D01*
X475305Y58139D01*
X474531Y56271D01*
X478731D01*
Y60471D01*
D02*
G37*
G36*
X461271D02*
Y56271D01*
X465472D01*
X464698Y58139D01*
X463139Y59697D01*
X461271Y60471D01*
D02*
G37*
G36*
X458731D02*
X456863Y59697D01*
X455305Y58139D01*
X454531Y56271D01*
X458731D01*
Y60471D01*
D02*
G37*
G36*
X441271D02*
Y56271D01*
X445472D01*
X444698Y58139D01*
X443139Y59697D01*
X441271Y60471D01*
D02*
G37*
G36*
X438731D02*
X436863Y59697D01*
X435305Y58139D01*
X434531Y56271D01*
X438731D01*
Y60471D01*
D02*
G37*
G36*
X421271D02*
Y56271D01*
X425472D01*
X424698Y58139D01*
X423139Y59697D01*
X421271Y60471D01*
D02*
G37*
G36*
X418731D02*
X416863Y59697D01*
X415305Y58139D01*
X414531Y56271D01*
X418731D01*
Y60471D01*
D02*
G37*
G36*
X401271D02*
Y56271D01*
X405472D01*
X404698Y58139D01*
X403139Y59697D01*
X401271Y60471D01*
D02*
G37*
G36*
X398731D02*
X396863Y59697D01*
X395305Y58139D01*
X394531Y56271D01*
X398731D01*
Y60471D01*
D02*
G37*
G36*
X381271D02*
Y56271D01*
X385472D01*
X384698Y58139D01*
X383139Y59697D01*
X381271Y60471D01*
D02*
G37*
G36*
X378731D02*
X376863Y59697D01*
X375305Y58139D01*
X374531Y56271D01*
X378731D01*
Y60471D01*
D02*
G37*
G36*
X361271D02*
Y56271D01*
X365472D01*
X364698Y58139D01*
X363139Y59697D01*
X361271Y60471D01*
D02*
G37*
G36*
X358731D02*
X356863Y59697D01*
X355305Y58139D01*
X354531Y56271D01*
X358731D01*
Y60471D01*
D02*
G37*
G36*
X341271D02*
Y56271D01*
X345472D01*
X344698Y58139D01*
X343139Y59697D01*
X341271Y60471D01*
D02*
G37*
G36*
X338731D02*
X336863Y59697D01*
X335305Y58139D01*
X334531Y56271D01*
X338731D01*
Y60471D01*
D02*
G37*
G36*
X321271D02*
Y56271D01*
X325472D01*
X324698Y58139D01*
X323139Y59697D01*
X321271Y60471D01*
D02*
G37*
G36*
X318731D02*
X316863Y59697D01*
X315305Y58139D01*
X314531Y56271D01*
X318731D01*
Y60471D01*
D02*
G37*
G36*
X301271D02*
Y56271D01*
X305472D01*
X304698Y58139D01*
X303139Y59697D01*
X301271Y60471D01*
D02*
G37*
G36*
X298731D02*
X296863Y59697D01*
X295305Y58139D01*
X294531Y56271D01*
X298731D01*
Y60471D01*
D02*
G37*
G36*
X281271D02*
Y56271D01*
X285472D01*
X284698Y58139D01*
X283139Y59697D01*
X281271Y60471D01*
D02*
G37*
G36*
X278731D02*
X276863Y59697D01*
X275305Y58139D01*
X274531Y56271D01*
X278731D01*
Y60471D01*
D02*
G37*
G36*
X785472Y53731D02*
X781272D01*
Y49531D01*
X783140Y50304D01*
X784698Y51863D01*
X785472Y53731D01*
D02*
G37*
G36*
X778732D02*
X774531D01*
X775305Y51863D01*
X776863Y50304D01*
X778732Y49531D01*
Y53731D01*
D02*
G37*
G36*
X765472D02*
X761272D01*
Y49531D01*
X763140Y50304D01*
X764698Y51863D01*
X765472Y53731D01*
D02*
G37*
G36*
X758732D02*
X754531D01*
X755305Y51863D01*
X756863Y50304D01*
X758732Y49531D01*
Y53731D01*
D02*
G37*
G36*
X745472D02*
X741272D01*
Y49531D01*
X743140Y50304D01*
X744698Y51863D01*
X745472Y53731D01*
D02*
G37*
G36*
X738732D02*
X734531D01*
X735305Y51863D01*
X736863Y50304D01*
X738732Y49531D01*
Y53731D01*
D02*
G37*
G36*
X725472D02*
X721272D01*
Y49531D01*
X723140Y50304D01*
X724698Y51863D01*
X725472Y53731D01*
D02*
G37*
G36*
X718732D02*
X714531D01*
X715305Y51863D01*
X716863Y50304D01*
X718732Y49531D01*
Y53731D01*
D02*
G37*
G36*
X705472D02*
X701272D01*
Y49531D01*
X703140Y50304D01*
X704698Y51863D01*
X705472Y53731D01*
D02*
G37*
G36*
X698732D02*
X694531D01*
X695305Y51863D01*
X696863Y50304D01*
X698732Y49531D01*
Y53731D01*
D02*
G37*
G36*
X685472D02*
X681272D01*
Y49531D01*
X683140Y50304D01*
X684698Y51863D01*
X685472Y53731D01*
D02*
G37*
G36*
X678732D02*
X674531D01*
X675305Y51863D01*
X676863Y50304D01*
X678732Y49531D01*
Y53731D01*
D02*
G37*
G36*
X665472D02*
X661271D01*
Y49531D01*
X663140Y50304D01*
X664698Y51863D01*
X665472Y53731D01*
D02*
G37*
G36*
X658731D02*
X654531D01*
X655305Y51863D01*
X656863Y50304D01*
X658731Y49531D01*
Y53731D01*
D02*
G37*
G36*
X645472D02*
X641271D01*
Y49531D01*
X643140Y50304D01*
X644698Y51863D01*
X645472Y53731D01*
D02*
G37*
G36*
X638731D02*
X634531D01*
X635305Y51863D01*
X636863Y50304D01*
X638731Y49531D01*
Y53731D01*
D02*
G37*
G36*
X625472D02*
X621271D01*
Y49531D01*
X623140Y50304D01*
X624698Y51863D01*
X625472Y53731D01*
D02*
G37*
G36*
X618731D02*
X614531D01*
X615305Y51863D01*
X616863Y50304D01*
X618731Y49531D01*
Y53731D01*
D02*
G37*
G36*
X605472D02*
X601271D01*
Y49531D01*
X603140Y50304D01*
X604698Y51863D01*
X605472Y53731D01*
D02*
G37*
G36*
X598731D02*
X594531D01*
X595305Y51863D01*
X596863Y50304D01*
X598731Y49531D01*
Y53731D01*
D02*
G37*
G36*
X585472D02*
X581271D01*
Y49531D01*
X583139Y50304D01*
X584698Y51863D01*
X585472Y53731D01*
D02*
G37*
G36*
X578731D02*
X574531D01*
X575305Y51863D01*
X576863Y50304D01*
X578731Y49531D01*
Y53731D01*
D02*
G37*
G36*
X565472D02*
X561271D01*
Y49531D01*
X563139Y50304D01*
X564698Y51863D01*
X565472Y53731D01*
D02*
G37*
G36*
X558731D02*
X554531D01*
X555305Y51863D01*
X556863Y50304D01*
X558731Y49531D01*
Y53731D01*
D02*
G37*
G36*
X545472D02*
X541271D01*
Y49531D01*
X543139Y50304D01*
X544698Y51863D01*
X545472Y53731D01*
D02*
G37*
G36*
X538731D02*
X534531D01*
X535305Y51863D01*
X536863Y50304D01*
X538731Y49531D01*
Y53731D01*
D02*
G37*
G36*
X525472D02*
X521271D01*
Y49531D01*
X523139Y50304D01*
X524698Y51863D01*
X525472Y53731D01*
D02*
G37*
G36*
X518731D02*
X514531D01*
X515305Y51863D01*
X516863Y50304D01*
X518731Y49531D01*
Y53731D01*
D02*
G37*
G36*
X505472D02*
X501271D01*
Y49531D01*
X503139Y50304D01*
X504698Y51863D01*
X505472Y53731D01*
D02*
G37*
G36*
X498731D02*
X494531D01*
X495305Y51863D01*
X496863Y50304D01*
X498731Y49531D01*
Y53731D01*
D02*
G37*
G36*
X485472D02*
X481271D01*
Y49531D01*
X483139Y50304D01*
X484698Y51863D01*
X485472Y53731D01*
D02*
G37*
G36*
X478731D02*
X474531D01*
X475305Y51863D01*
X476863Y50304D01*
X478731Y49531D01*
Y53731D01*
D02*
G37*
G36*
X465472D02*
X461271D01*
Y49531D01*
X463139Y50304D01*
X464698Y51863D01*
X465472Y53731D01*
D02*
G37*
G36*
X458731D02*
X454531D01*
X455305Y51863D01*
X456863Y50304D01*
X458731Y49531D01*
Y53731D01*
D02*
G37*
G36*
X445472D02*
X441271D01*
Y49531D01*
X443139Y50304D01*
X444698Y51863D01*
X445472Y53731D01*
D02*
G37*
G36*
X438731D02*
X434531D01*
X435305Y51863D01*
X436863Y50304D01*
X438731Y49531D01*
Y53731D01*
D02*
G37*
G36*
X425472D02*
X421271D01*
Y49531D01*
X423139Y50304D01*
X424698Y51863D01*
X425472Y53731D01*
D02*
G37*
G36*
X418731D02*
X414531D01*
X415305Y51863D01*
X416863Y50304D01*
X418731Y49531D01*
Y53731D01*
D02*
G37*
G36*
X405472D02*
X401271D01*
Y49531D01*
X403139Y50304D01*
X404698Y51863D01*
X405472Y53731D01*
D02*
G37*
G36*
X398731D02*
X394531D01*
X395305Y51863D01*
X396863Y50304D01*
X398731Y49531D01*
Y53731D01*
D02*
G37*
G36*
X385472D02*
X381271D01*
Y49531D01*
X383139Y50304D01*
X384698Y51863D01*
X385472Y53731D01*
D02*
G37*
G36*
X378731D02*
X374531D01*
X375305Y51863D01*
X376863Y50304D01*
X378731Y49531D01*
Y53731D01*
D02*
G37*
G36*
X365472D02*
X361271D01*
Y49531D01*
X363139Y50304D01*
X364698Y51863D01*
X365472Y53731D01*
D02*
G37*
G36*
X358731D02*
X354531D01*
X355305Y51863D01*
X356863Y50304D01*
X358731Y49531D01*
Y53731D01*
D02*
G37*
G36*
X345472D02*
X341271D01*
Y49531D01*
X343139Y50304D01*
X344698Y51863D01*
X345472Y53731D01*
D02*
G37*
G36*
X338731D02*
X334531D01*
X335305Y51863D01*
X336863Y50304D01*
X338731Y49531D01*
Y53731D01*
D02*
G37*
G36*
X325472D02*
X321271D01*
Y49531D01*
X323139Y50304D01*
X324698Y51863D01*
X325472Y53731D01*
D02*
G37*
G36*
X318731D02*
X314531D01*
X315305Y51863D01*
X316863Y50304D01*
X318731Y49531D01*
Y53731D01*
D02*
G37*
G36*
X305472D02*
X301271D01*
Y49531D01*
X303139Y50304D01*
X304698Y51863D01*
X305472Y53731D01*
D02*
G37*
G36*
X298731D02*
X294531D01*
X295305Y51863D01*
X296863Y50304D01*
X298731Y49531D01*
Y53731D01*
D02*
G37*
G36*
X285472D02*
X281271D01*
Y49531D01*
X283139Y50304D01*
X284698Y51863D01*
X285472Y53731D01*
D02*
G37*
G36*
X278731D02*
X274531D01*
X275305Y51863D01*
X276863Y50304D01*
X278731Y49531D01*
Y53731D01*
D02*
G37*
G36*
X791272Y40471D02*
Y36271D01*
X795472D01*
X794698Y38139D01*
X793140Y39697D01*
X791272Y40471D01*
D02*
G37*
G36*
X788732D02*
X786863Y39697D01*
X785305Y38139D01*
X784531Y36271D01*
X788732D01*
Y40471D01*
D02*
G37*
G36*
X771272D02*
Y36271D01*
X775472D01*
X774698Y38139D01*
X773140Y39697D01*
X771272Y40471D01*
D02*
G37*
G36*
X768732D02*
X766863Y39697D01*
X765305Y38139D01*
X764531Y36271D01*
X768732D01*
Y40471D01*
D02*
G37*
G36*
X751272D02*
Y36271D01*
X755472D01*
X754698Y38139D01*
X753140Y39697D01*
X751272Y40471D01*
D02*
G37*
G36*
X748732D02*
X746863Y39697D01*
X745305Y38139D01*
X744531Y36271D01*
X748732D01*
Y40471D01*
D02*
G37*
G36*
X731272D02*
Y36271D01*
X735472D01*
X734698Y38139D01*
X733140Y39697D01*
X731272Y40471D01*
D02*
G37*
G36*
X728732D02*
X726863Y39697D01*
X725305Y38139D01*
X724531Y36271D01*
X728732D01*
Y40471D01*
D02*
G37*
G36*
X711272D02*
Y36271D01*
X715472D01*
X714698Y38139D01*
X713140Y39697D01*
X711272Y40471D01*
D02*
G37*
G36*
X708732D02*
X706863Y39697D01*
X705305Y38139D01*
X704531Y36271D01*
X708732D01*
Y40471D01*
D02*
G37*
G36*
X691272D02*
Y36271D01*
X695472D01*
X694698Y38139D01*
X693140Y39697D01*
X691272Y40471D01*
D02*
G37*
G36*
X688732D02*
X686863Y39697D01*
X685305Y38139D01*
X684531Y36271D01*
X688732D01*
Y40471D01*
D02*
G37*
G36*
X671272D02*
Y36271D01*
X675472D01*
X674698Y38139D01*
X673140Y39697D01*
X671272Y40471D01*
D02*
G37*
G36*
X668732D02*
X666863Y39697D01*
X665305Y38139D01*
X664531Y36271D01*
X668732D01*
Y40471D01*
D02*
G37*
G36*
X651271D02*
Y36271D01*
X655472D01*
X654698Y38139D01*
X653140Y39697D01*
X651271Y40471D01*
D02*
G37*
G36*
X648731D02*
X646863Y39697D01*
X645305Y38139D01*
X644531Y36271D01*
X648731D01*
Y40471D01*
D02*
G37*
G36*
X631271D02*
Y36271D01*
X635472D01*
X634698Y38139D01*
X633140Y39697D01*
X631271Y40471D01*
D02*
G37*
G36*
X628731D02*
X626863Y39697D01*
X625305Y38139D01*
X624531Y36271D01*
X628731D01*
Y40471D01*
D02*
G37*
G36*
X611271D02*
Y36271D01*
X615472D01*
X614698Y38139D01*
X613140Y39697D01*
X611271Y40471D01*
D02*
G37*
G36*
X608731D02*
X606863Y39697D01*
X605305Y38139D01*
X604531Y36271D01*
X608731D01*
Y40471D01*
D02*
G37*
G36*
X591271D02*
Y36271D01*
X595472D01*
X594698Y38139D01*
X593140Y39697D01*
X591271Y40471D01*
D02*
G37*
G36*
X588731D02*
X586863Y39697D01*
X585305Y38139D01*
X584531Y36271D01*
X588731D01*
Y40471D01*
D02*
G37*
G36*
X571271D02*
Y36271D01*
X575472D01*
X574698Y38139D01*
X573139Y39697D01*
X571271Y40471D01*
D02*
G37*
G36*
X568731D02*
X566863Y39697D01*
X565305Y38139D01*
X564531Y36271D01*
X568731D01*
Y40471D01*
D02*
G37*
G36*
X551271D02*
Y36271D01*
X555472D01*
X554698Y38139D01*
X553139Y39697D01*
X551271Y40471D01*
D02*
G37*
G36*
X548731D02*
X546863Y39697D01*
X545305Y38139D01*
X544531Y36271D01*
X548731D01*
Y40471D01*
D02*
G37*
G36*
X531271D02*
Y36271D01*
X535472D01*
X534698Y38139D01*
X533139Y39697D01*
X531271Y40471D01*
D02*
G37*
G36*
X528731D02*
X526863Y39697D01*
X525305Y38139D01*
X524531Y36271D01*
X528731D01*
Y40471D01*
D02*
G37*
G36*
X511271D02*
Y36271D01*
X515472D01*
X514698Y38139D01*
X513139Y39697D01*
X511271Y40471D01*
D02*
G37*
G36*
X508731D02*
X506863Y39697D01*
X505305Y38139D01*
X504531Y36271D01*
X508731D01*
Y40471D01*
D02*
G37*
G36*
X491271D02*
Y36271D01*
X495472D01*
X494698Y38139D01*
X493139Y39697D01*
X491271Y40471D01*
D02*
G37*
G36*
X488731D02*
X486863Y39697D01*
X485305Y38139D01*
X484531Y36271D01*
X488731D01*
Y40471D01*
D02*
G37*
G36*
X471271D02*
Y36271D01*
X475472D01*
X474698Y38139D01*
X473139Y39697D01*
X471271Y40471D01*
D02*
G37*
G36*
X468731D02*
X466863Y39697D01*
X465305Y38139D01*
X464531Y36271D01*
X468731D01*
Y40471D01*
D02*
G37*
G36*
X451271D02*
Y36271D01*
X455472D01*
X454698Y38139D01*
X453139Y39697D01*
X451271Y40471D01*
D02*
G37*
G36*
X448731D02*
X446863Y39697D01*
X445305Y38139D01*
X444531Y36271D01*
X448731D01*
Y40471D01*
D02*
G37*
G36*
X431271D02*
Y36271D01*
X435472D01*
X434698Y38139D01*
X433139Y39697D01*
X431271Y40471D01*
D02*
G37*
G36*
X428731D02*
X426863Y39697D01*
X425305Y38139D01*
X424531Y36271D01*
X428731D01*
Y40471D01*
D02*
G37*
G36*
X411271D02*
Y36271D01*
X415472D01*
X414698Y38139D01*
X413139Y39697D01*
X411271Y40471D01*
D02*
G37*
G36*
X408731D02*
X406863Y39697D01*
X405305Y38139D01*
X404531Y36271D01*
X408731D01*
Y40471D01*
D02*
G37*
G36*
X391271D02*
Y36271D01*
X395472D01*
X394698Y38139D01*
X393139Y39697D01*
X391271Y40471D01*
D02*
G37*
G36*
X388731D02*
X386863Y39697D01*
X385305Y38139D01*
X384531Y36271D01*
X388731D01*
Y40471D01*
D02*
G37*
G36*
X371271D02*
Y36271D01*
X375472D01*
X374698Y38139D01*
X373139Y39697D01*
X371271Y40471D01*
D02*
G37*
G36*
X368731D02*
X366863Y39697D01*
X365305Y38139D01*
X364531Y36271D01*
X368731D01*
Y40471D01*
D02*
G37*
G36*
X351271D02*
Y36271D01*
X355472D01*
X354698Y38139D01*
X353139Y39697D01*
X351271Y40471D01*
D02*
G37*
G36*
X348731D02*
X346863Y39697D01*
X345305Y38139D01*
X344531Y36271D01*
X348731D01*
Y40471D01*
D02*
G37*
G36*
X331271D02*
Y36271D01*
X335472D01*
X334698Y38139D01*
X333139Y39697D01*
X331271Y40471D01*
D02*
G37*
G36*
X328731D02*
X326863Y39697D01*
X325305Y38139D01*
X324531Y36271D01*
X328731D01*
Y40471D01*
D02*
G37*
G36*
X311271D02*
Y36271D01*
X315472D01*
X314698Y38139D01*
X313139Y39697D01*
X311271Y40471D01*
D02*
G37*
G36*
X308731D02*
X306863Y39697D01*
X305305Y38139D01*
X304531Y36271D01*
X308731D01*
Y40471D01*
D02*
G37*
G36*
X291271D02*
Y36271D01*
X295472D01*
X294698Y38139D01*
X293139Y39697D01*
X291271Y40471D01*
D02*
G37*
G36*
X288731D02*
X286863Y39697D01*
X285305Y38139D01*
X284531Y36271D01*
X288731D01*
Y40471D01*
D02*
G37*
G36*
X795472Y33731D02*
X791272D01*
Y29530D01*
X793140Y30304D01*
X794698Y31863D01*
X795472Y33731D01*
D02*
G37*
G36*
X788732D02*
X784531D01*
X785305Y31863D01*
X786863Y30304D01*
X788732Y29530D01*
Y33731D01*
D02*
G37*
G36*
X775472D02*
X771272D01*
Y29530D01*
X773140Y30304D01*
X774698Y31863D01*
X775472Y33731D01*
D02*
G37*
G36*
X768732D02*
X764531D01*
X765305Y31863D01*
X766863Y30304D01*
X768732Y29530D01*
Y33731D01*
D02*
G37*
G36*
X755472D02*
X751272D01*
Y29530D01*
X753140Y30304D01*
X754698Y31863D01*
X755472Y33731D01*
D02*
G37*
G36*
X748732D02*
X744531D01*
X745305Y31863D01*
X746863Y30304D01*
X748732Y29530D01*
Y33731D01*
D02*
G37*
G36*
X735472D02*
X731272D01*
Y29530D01*
X733140Y30304D01*
X734698Y31863D01*
X735472Y33731D01*
D02*
G37*
G36*
X728732D02*
X724531D01*
X725305Y31863D01*
X726863Y30304D01*
X728732Y29530D01*
Y33731D01*
D02*
G37*
G36*
X715472D02*
X711272D01*
Y29530D01*
X713140Y30304D01*
X714698Y31863D01*
X715472Y33731D01*
D02*
G37*
G36*
X708732D02*
X704531D01*
X705305Y31863D01*
X706863Y30304D01*
X708732Y29530D01*
Y33731D01*
D02*
G37*
G36*
X695472D02*
X691272D01*
Y29530D01*
X693140Y30304D01*
X694698Y31863D01*
X695472Y33731D01*
D02*
G37*
G36*
X688732D02*
X684531D01*
X685305Y31863D01*
X686863Y30304D01*
X688732Y29530D01*
Y33731D01*
D02*
G37*
G36*
X675472D02*
X671272D01*
Y29530D01*
X673140Y30304D01*
X674698Y31863D01*
X675472Y33731D01*
D02*
G37*
G36*
X668732D02*
X664531D01*
X665305Y31863D01*
X666863Y30304D01*
X668732Y29530D01*
Y33731D01*
D02*
G37*
G36*
X655472D02*
X651271D01*
Y29530D01*
X653140Y30304D01*
X654698Y31863D01*
X655472Y33731D01*
D02*
G37*
G36*
X648731D02*
X644531D01*
X645305Y31863D01*
X646863Y30304D01*
X648731Y29530D01*
Y33731D01*
D02*
G37*
G36*
X635472D02*
X631271D01*
Y29530D01*
X633140Y30304D01*
X634698Y31863D01*
X635472Y33731D01*
D02*
G37*
G36*
X628731D02*
X624531D01*
X625305Y31863D01*
X626863Y30304D01*
X628731Y29530D01*
Y33731D01*
D02*
G37*
G36*
X615472D02*
X611271D01*
Y29530D01*
X613140Y30304D01*
X614698Y31863D01*
X615472Y33731D01*
D02*
G37*
G36*
X608731D02*
X604531D01*
X605305Y31863D01*
X606863Y30304D01*
X608731Y29530D01*
Y33731D01*
D02*
G37*
G36*
X595472D02*
X591271D01*
Y29530D01*
X593140Y30304D01*
X594698Y31863D01*
X595472Y33731D01*
D02*
G37*
G36*
X588731D02*
X584531D01*
X585305Y31863D01*
X586863Y30304D01*
X588731Y29530D01*
Y33731D01*
D02*
G37*
G36*
X575472D02*
X571271D01*
Y29530D01*
X573139Y30304D01*
X574698Y31863D01*
X575472Y33731D01*
D02*
G37*
G36*
X568731D02*
X564531D01*
X565305Y31863D01*
X566863Y30304D01*
X568731Y29530D01*
Y33731D01*
D02*
G37*
G36*
X555472D02*
X551271D01*
Y29530D01*
X553139Y30304D01*
X554698Y31863D01*
X555472Y33731D01*
D02*
G37*
G36*
X548731D02*
X544531D01*
X545305Y31863D01*
X546863Y30304D01*
X548731Y29530D01*
Y33731D01*
D02*
G37*
G36*
X535472D02*
X531271D01*
Y29530D01*
X533139Y30304D01*
X534698Y31863D01*
X535472Y33731D01*
D02*
G37*
G36*
X528731D02*
X524531D01*
X525305Y31863D01*
X526863Y30304D01*
X528731Y29530D01*
Y33731D01*
D02*
G37*
G36*
X515472D02*
X511271D01*
Y29530D01*
X513139Y30304D01*
X514698Y31863D01*
X515472Y33731D01*
D02*
G37*
G36*
X508731D02*
X504531D01*
X505305Y31863D01*
X506863Y30304D01*
X508731Y29530D01*
Y33731D01*
D02*
G37*
G36*
X495472D02*
X491271D01*
Y29530D01*
X493139Y30304D01*
X494698Y31863D01*
X495472Y33731D01*
D02*
G37*
G36*
X488731D02*
X484531D01*
X485305Y31863D01*
X486863Y30304D01*
X488731Y29530D01*
Y33731D01*
D02*
G37*
G36*
X475472D02*
X471271D01*
Y29530D01*
X473139Y30304D01*
X474698Y31863D01*
X475472Y33731D01*
D02*
G37*
G36*
X468731D02*
X464531D01*
X465305Y31863D01*
X466863Y30304D01*
X468731Y29530D01*
Y33731D01*
D02*
G37*
G36*
X455472D02*
X451271D01*
Y29530D01*
X453139Y30304D01*
X454698Y31863D01*
X455472Y33731D01*
D02*
G37*
G36*
X448731D02*
X444531D01*
X445305Y31863D01*
X446863Y30304D01*
X448731Y29530D01*
Y33731D01*
D02*
G37*
G36*
X435472D02*
X431271D01*
Y29530D01*
X433139Y30304D01*
X434698Y31863D01*
X435472Y33731D01*
D02*
G37*
G36*
X428731D02*
X424531D01*
X425305Y31863D01*
X426863Y30304D01*
X428731Y29530D01*
Y33731D01*
D02*
G37*
G36*
X415472D02*
X411271D01*
Y29530D01*
X413139Y30304D01*
X414698Y31863D01*
X415472Y33731D01*
D02*
G37*
G36*
X408731D02*
X404531D01*
X405305Y31863D01*
X406863Y30304D01*
X408731Y29530D01*
Y33731D01*
D02*
G37*
G36*
X395472D02*
X391271D01*
Y29530D01*
X393139Y30304D01*
X394698Y31863D01*
X395472Y33731D01*
D02*
G37*
G36*
X388731D02*
X384531D01*
X385305Y31863D01*
X386863Y30304D01*
X388731Y29530D01*
Y33731D01*
D02*
G37*
G36*
X375472D02*
X371271D01*
Y29530D01*
X373139Y30304D01*
X374698Y31863D01*
X375472Y33731D01*
D02*
G37*
G36*
X368731D02*
X364531D01*
X365305Y31863D01*
X366863Y30304D01*
X368731Y29530D01*
Y33731D01*
D02*
G37*
G36*
X355472D02*
X351271D01*
Y29530D01*
X353139Y30304D01*
X354698Y31863D01*
X355472Y33731D01*
D02*
G37*
G36*
X348731D02*
X344531D01*
X345305Y31863D01*
X346863Y30304D01*
X348731Y29530D01*
Y33731D01*
D02*
G37*
G36*
X335472D02*
X331271D01*
Y29530D01*
X333139Y30304D01*
X334698Y31863D01*
X335472Y33731D01*
D02*
G37*
G36*
X328731D02*
X324531D01*
X325305Y31863D01*
X326863Y30304D01*
X328731Y29530D01*
Y33731D01*
D02*
G37*
G36*
X315472D02*
X311271D01*
Y29530D01*
X313139Y30304D01*
X314698Y31863D01*
X315472Y33731D01*
D02*
G37*
G36*
X308731D02*
X304531D01*
X305305Y31863D01*
X306863Y30304D01*
X308731Y29530D01*
Y33731D01*
D02*
G37*
G36*
X295472D02*
X291271D01*
Y29530D01*
X293139Y30304D01*
X294698Y31863D01*
X295472Y33731D01*
D02*
G37*
G36*
X288731D02*
X284531D01*
X285305Y31863D01*
X286863Y30304D01*
X288731Y29530D01*
Y33731D01*
D02*
G37*
G36*
X781272Y20471D02*
Y16271D01*
X785472D01*
X784698Y18139D01*
X783140Y19698D01*
X781272Y20471D01*
D02*
G37*
G36*
X778732D02*
X776863Y19698D01*
X775305Y18139D01*
X774531Y16271D01*
X778732D01*
Y20471D01*
D02*
G37*
G36*
X761272D02*
Y16271D01*
X765472D01*
X764698Y18139D01*
X763140Y19698D01*
X761272Y20471D01*
D02*
G37*
G36*
X758732D02*
X756863Y19698D01*
X755305Y18139D01*
X754531Y16271D01*
X758732D01*
Y20471D01*
D02*
G37*
G36*
X741272D02*
Y16271D01*
X745472D01*
X744698Y18139D01*
X743140Y19698D01*
X741272Y20471D01*
D02*
G37*
G36*
X738732D02*
X736863Y19698D01*
X735305Y18139D01*
X734531Y16271D01*
X738732D01*
Y20471D01*
D02*
G37*
G36*
X721272D02*
Y16271D01*
X725472D01*
X724698Y18139D01*
X723140Y19698D01*
X721272Y20471D01*
D02*
G37*
G36*
X718732D02*
X716863Y19698D01*
X715305Y18139D01*
X714531Y16271D01*
X718732D01*
Y20471D01*
D02*
G37*
G36*
X701272D02*
Y16271D01*
X705472D01*
X704698Y18139D01*
X703140Y19698D01*
X701272Y20471D01*
D02*
G37*
G36*
X698732D02*
X696863Y19698D01*
X695305Y18139D01*
X694531Y16271D01*
X698732D01*
Y20471D01*
D02*
G37*
G36*
X681272D02*
Y16271D01*
X685472D01*
X684698Y18139D01*
X683140Y19698D01*
X681272Y20471D01*
D02*
G37*
G36*
X678732D02*
X676863Y19698D01*
X675305Y18139D01*
X674531Y16271D01*
X678732D01*
Y20471D01*
D02*
G37*
G36*
X661271D02*
Y16271D01*
X665472D01*
X664698Y18139D01*
X663140Y19698D01*
X661271Y20471D01*
D02*
G37*
G36*
X658731D02*
X656863Y19698D01*
X655305Y18139D01*
X654531Y16271D01*
X658731D01*
Y20471D01*
D02*
G37*
G36*
X641271D02*
Y16271D01*
X645472D01*
X644698Y18139D01*
X643140Y19698D01*
X641271Y20471D01*
D02*
G37*
G36*
X638731D02*
X636863Y19698D01*
X635305Y18139D01*
X634531Y16271D01*
X638731D01*
Y20471D01*
D02*
G37*
G36*
X621271D02*
Y16271D01*
X625472D01*
X624698Y18139D01*
X623140Y19698D01*
X621271Y20471D01*
D02*
G37*
G36*
X618731D02*
X616863Y19698D01*
X615305Y18139D01*
X614531Y16271D01*
X618731D01*
Y20471D01*
D02*
G37*
G36*
X601271D02*
Y16271D01*
X605472D01*
X604698Y18139D01*
X603140Y19698D01*
X601271Y20471D01*
D02*
G37*
G36*
X598731D02*
X596863Y19698D01*
X595305Y18139D01*
X594531Y16271D01*
X598731D01*
Y20471D01*
D02*
G37*
G36*
X581271D02*
Y16271D01*
X585472D01*
X584698Y18139D01*
X583139Y19698D01*
X581271Y20471D01*
D02*
G37*
G36*
X578731D02*
X576863Y19698D01*
X575305Y18139D01*
X574531Y16271D01*
X578731D01*
Y20471D01*
D02*
G37*
G36*
X561271D02*
Y16271D01*
X565472D01*
X564698Y18139D01*
X563139Y19698D01*
X561271Y20471D01*
D02*
G37*
G36*
X558731D02*
X556863Y19698D01*
X555305Y18139D01*
X554531Y16271D01*
X558731D01*
Y20471D01*
D02*
G37*
G36*
X541271D02*
Y16271D01*
X545472D01*
X544698Y18139D01*
X543139Y19698D01*
X541271Y20471D01*
D02*
G37*
G36*
X538731D02*
X536863Y19698D01*
X535305Y18139D01*
X534531Y16271D01*
X538731D01*
Y20471D01*
D02*
G37*
G36*
X521271D02*
Y16271D01*
X525472D01*
X524698Y18139D01*
X523139Y19698D01*
X521271Y20471D01*
D02*
G37*
G36*
X518731D02*
X516863Y19698D01*
X515305Y18139D01*
X514531Y16271D01*
X518731D01*
Y20471D01*
D02*
G37*
G36*
X501271D02*
Y16271D01*
X505472D01*
X504698Y18139D01*
X503139Y19698D01*
X501271Y20471D01*
D02*
G37*
G36*
X498731D02*
X496863Y19698D01*
X495305Y18139D01*
X494531Y16271D01*
X498731D01*
Y20471D01*
D02*
G37*
G36*
X481271D02*
Y16271D01*
X485472D01*
X484698Y18139D01*
X483139Y19698D01*
X481271Y20471D01*
D02*
G37*
G36*
X478731D02*
X476863Y19698D01*
X475305Y18139D01*
X474531Y16271D01*
X478731D01*
Y20471D01*
D02*
G37*
G36*
X461271D02*
Y16271D01*
X465472D01*
X464698Y18139D01*
X463139Y19698D01*
X461271Y20471D01*
D02*
G37*
G36*
X458731D02*
X456863Y19698D01*
X455305Y18139D01*
X454531Y16271D01*
X458731D01*
Y20471D01*
D02*
G37*
G36*
X441271D02*
Y16271D01*
X445472D01*
X444698Y18139D01*
X443139Y19698D01*
X441271Y20471D01*
D02*
G37*
G36*
X438731D02*
X436863Y19698D01*
X435305Y18139D01*
X434531Y16271D01*
X438731D01*
Y20471D01*
D02*
G37*
G36*
X421271D02*
Y16271D01*
X425472D01*
X424698Y18139D01*
X423139Y19698D01*
X421271Y20471D01*
D02*
G37*
G36*
X418731D02*
X416863Y19698D01*
X415305Y18139D01*
X414531Y16271D01*
X418731D01*
Y20471D01*
D02*
G37*
G36*
X401271D02*
Y16271D01*
X405472D01*
X404698Y18139D01*
X403139Y19698D01*
X401271Y20471D01*
D02*
G37*
G36*
X398731D02*
X396863Y19698D01*
X395305Y18139D01*
X394531Y16271D01*
X398731D01*
Y20471D01*
D02*
G37*
G36*
X381271D02*
Y16271D01*
X385472D01*
X384698Y18139D01*
X383139Y19698D01*
X381271Y20471D01*
D02*
G37*
G36*
X378731D02*
X376863Y19698D01*
X375305Y18139D01*
X374531Y16271D01*
X378731D01*
Y20471D01*
D02*
G37*
G36*
X361271D02*
Y16271D01*
X365472D01*
X364698Y18139D01*
X363139Y19698D01*
X361271Y20471D01*
D02*
G37*
G36*
X358731D02*
X356863Y19698D01*
X355305Y18139D01*
X354531Y16271D01*
X358731D01*
Y20471D01*
D02*
G37*
G36*
X341271D02*
Y16271D01*
X345472D01*
X344698Y18139D01*
X343139Y19698D01*
X341271Y20471D01*
D02*
G37*
G36*
X338731D02*
X336863Y19698D01*
X335305Y18139D01*
X334531Y16271D01*
X338731D01*
Y20471D01*
D02*
G37*
G36*
X321271D02*
Y16271D01*
X325472D01*
X324698Y18139D01*
X323139Y19698D01*
X321271Y20471D01*
D02*
G37*
G36*
X318731D02*
X316863Y19698D01*
X315305Y18139D01*
X314531Y16271D01*
X318731D01*
Y20471D01*
D02*
G37*
G36*
X301271D02*
Y16271D01*
X305472D01*
X304698Y18139D01*
X303139Y19698D01*
X301271Y20471D01*
D02*
G37*
G36*
X298731D02*
X296863Y19698D01*
X295305Y18139D01*
X294531Y16271D01*
X298731D01*
Y20471D01*
D02*
G37*
G36*
X281271D02*
Y16271D01*
X285472D01*
X284698Y18139D01*
X283139Y19698D01*
X281271Y20471D01*
D02*
G37*
G36*
X278731D02*
X276863Y19698D01*
X275305Y18139D01*
X274531Y16271D01*
X278731D01*
Y20471D01*
D02*
G37*
G36*
X785472Y13731D02*
X781272D01*
Y9531D01*
X783140Y10304D01*
X784698Y11863D01*
X785472Y13731D01*
D02*
G37*
G36*
X778732D02*
X774531D01*
X775305Y11863D01*
X776863Y10304D01*
X778732Y9531D01*
Y13731D01*
D02*
G37*
G36*
X765472D02*
X761272D01*
Y9531D01*
X763140Y10304D01*
X764698Y11863D01*
X765472Y13731D01*
D02*
G37*
G36*
X758732D02*
X754531D01*
X755305Y11863D01*
X756863Y10304D01*
X758732Y9531D01*
Y13731D01*
D02*
G37*
G36*
X745472D02*
X741272D01*
Y9531D01*
X743140Y10304D01*
X744698Y11863D01*
X745472Y13731D01*
D02*
G37*
G36*
X738732D02*
X734531D01*
X735305Y11863D01*
X736863Y10304D01*
X738732Y9531D01*
Y13731D01*
D02*
G37*
G36*
X725472D02*
X721272D01*
Y9531D01*
X723140Y10304D01*
X724698Y11863D01*
X725472Y13731D01*
D02*
G37*
G36*
X718732D02*
X714531D01*
X715305Y11863D01*
X716863Y10304D01*
X718732Y9531D01*
Y13731D01*
D02*
G37*
G36*
X705472D02*
X701272D01*
Y9531D01*
X703140Y10304D01*
X704698Y11863D01*
X705472Y13731D01*
D02*
G37*
G36*
X698732D02*
X694531D01*
X695305Y11863D01*
X696863Y10304D01*
X698732Y9531D01*
Y13731D01*
D02*
G37*
G36*
X685472D02*
X681272D01*
Y9531D01*
X683140Y10304D01*
X684698Y11863D01*
X685472Y13731D01*
D02*
G37*
G36*
X678732D02*
X674531D01*
X675305Y11863D01*
X676863Y10304D01*
X678732Y9531D01*
Y13731D01*
D02*
G37*
G36*
X665472D02*
X661271D01*
Y9531D01*
X663140Y10304D01*
X664698Y11863D01*
X665472Y13731D01*
D02*
G37*
G36*
X658731D02*
X654531D01*
X655305Y11863D01*
X656863Y10304D01*
X658731Y9531D01*
Y13731D01*
D02*
G37*
G36*
X645472D02*
X641271D01*
Y9531D01*
X643140Y10304D01*
X644698Y11863D01*
X645472Y13731D01*
D02*
G37*
G36*
X638731D02*
X634531D01*
X635305Y11863D01*
X636863Y10304D01*
X638731Y9531D01*
Y13731D01*
D02*
G37*
G36*
X625472D02*
X621271D01*
Y9531D01*
X623140Y10304D01*
X624698Y11863D01*
X625472Y13731D01*
D02*
G37*
G36*
X618731D02*
X614531D01*
X615305Y11863D01*
X616863Y10304D01*
X618731Y9531D01*
Y13731D01*
D02*
G37*
G36*
X605472D02*
X601271D01*
Y9531D01*
X603140Y10304D01*
X604698Y11863D01*
X605472Y13731D01*
D02*
G37*
G36*
X598731D02*
X594531D01*
X595305Y11863D01*
X596863Y10304D01*
X598731Y9531D01*
Y13731D01*
D02*
G37*
G36*
X585472D02*
X581271D01*
Y9531D01*
X583139Y10304D01*
X584698Y11863D01*
X585472Y13731D01*
D02*
G37*
G36*
X578731D02*
X574531D01*
X575305Y11863D01*
X576863Y10304D01*
X578731Y9531D01*
Y13731D01*
D02*
G37*
G36*
X565472D02*
X561271D01*
Y9531D01*
X563139Y10304D01*
X564698Y11863D01*
X565472Y13731D01*
D02*
G37*
G36*
X558731D02*
X554531D01*
X555305Y11863D01*
X556863Y10304D01*
X558731Y9531D01*
Y13731D01*
D02*
G37*
G36*
X545472D02*
X541271D01*
Y9531D01*
X543139Y10304D01*
X544698Y11863D01*
X545472Y13731D01*
D02*
G37*
G36*
X538731D02*
X534531D01*
X535305Y11863D01*
X536863Y10304D01*
X538731Y9531D01*
Y13731D01*
D02*
G37*
G36*
X525472D02*
X521271D01*
Y9531D01*
X523139Y10304D01*
X524698Y11863D01*
X525472Y13731D01*
D02*
G37*
G36*
X518731D02*
X514531D01*
X515305Y11863D01*
X516863Y10304D01*
X518731Y9531D01*
Y13731D01*
D02*
G37*
G36*
X505472D02*
X501271D01*
Y9531D01*
X503139Y10304D01*
X504698Y11863D01*
X505472Y13731D01*
D02*
G37*
G36*
X498731D02*
X494531D01*
X495305Y11863D01*
X496863Y10304D01*
X498731Y9531D01*
Y13731D01*
D02*
G37*
G36*
X485472D02*
X481271D01*
Y9531D01*
X483139Y10304D01*
X484698Y11863D01*
X485472Y13731D01*
D02*
G37*
G36*
X478731D02*
X474531D01*
X475305Y11863D01*
X476863Y10304D01*
X478731Y9531D01*
Y13731D01*
D02*
G37*
G36*
X465472D02*
X461271D01*
Y9531D01*
X463139Y10304D01*
X464698Y11863D01*
X465472Y13731D01*
D02*
G37*
G36*
X458731D02*
X454531D01*
X455305Y11863D01*
X456863Y10304D01*
X458731Y9531D01*
Y13731D01*
D02*
G37*
G36*
X445472D02*
X441271D01*
Y9531D01*
X443139Y10304D01*
X444698Y11863D01*
X445472Y13731D01*
D02*
G37*
G36*
X438731D02*
X434531D01*
X435305Y11863D01*
X436863Y10304D01*
X438731Y9531D01*
Y13731D01*
D02*
G37*
G36*
X425472D02*
X421271D01*
Y9531D01*
X423139Y10304D01*
X424698Y11863D01*
X425472Y13731D01*
D02*
G37*
G36*
X418731D02*
X414531D01*
X415305Y11863D01*
X416863Y10304D01*
X418731Y9531D01*
Y13731D01*
D02*
G37*
G36*
X405472D02*
X401271D01*
Y9531D01*
X403139Y10304D01*
X404698Y11863D01*
X405472Y13731D01*
D02*
G37*
G36*
X398731D02*
X394531D01*
X395305Y11863D01*
X396863Y10304D01*
X398731Y9531D01*
Y13731D01*
D02*
G37*
G36*
X385472D02*
X381271D01*
Y9531D01*
X383139Y10304D01*
X384698Y11863D01*
X385472Y13731D01*
D02*
G37*
G36*
X378731D02*
X374531D01*
X375305Y11863D01*
X376863Y10304D01*
X378731Y9531D01*
Y13731D01*
D02*
G37*
G36*
X365472D02*
X361271D01*
Y9531D01*
X363139Y10304D01*
X364698Y11863D01*
X365472Y13731D01*
D02*
G37*
G36*
X358731D02*
X354531D01*
X355305Y11863D01*
X356863Y10304D01*
X358731Y9531D01*
Y13731D01*
D02*
G37*
G36*
X345472D02*
X341271D01*
Y9531D01*
X343139Y10304D01*
X344698Y11863D01*
X345472Y13731D01*
D02*
G37*
G36*
X338731D02*
X334531D01*
X335305Y11863D01*
X336863Y10304D01*
X338731Y9531D01*
Y13731D01*
D02*
G37*
G36*
X325472D02*
X321271D01*
Y9531D01*
X323139Y10304D01*
X324698Y11863D01*
X325472Y13731D01*
D02*
G37*
G36*
X318731D02*
X314531D01*
X315305Y11863D01*
X316863Y10304D01*
X318731Y9531D01*
Y13731D01*
D02*
G37*
G36*
X305472D02*
X301271D01*
Y9531D01*
X303139Y10304D01*
X304698Y11863D01*
X305472Y13731D01*
D02*
G37*
G36*
X298731D02*
X294531D01*
X295305Y11863D01*
X296863Y10304D01*
X298731Y9531D01*
Y13731D01*
D02*
G37*
G36*
X285472D02*
X281271D01*
Y9531D01*
X283139Y10304D01*
X284698Y11863D01*
X285472Y13731D01*
D02*
G37*
G36*
X278731D02*
X274531D01*
X275305Y11863D01*
X276863Y10304D01*
X278731Y9531D01*
Y13731D01*
D02*
G37*
%LPD*%
D83*
X109000Y162000D02*
D03*
X61000D02*
D03*
Y210000D02*
D03*
X109000D02*
D03*
X61000Y581000D02*
D03*
Y629000D02*
D03*
X109000D02*
D03*
Y581000D02*
D03*
X60000Y441000D02*
D03*
Y489000D02*
D03*
X108000D02*
D03*
Y441000D02*
D03*
X60000Y301000D02*
D03*
Y349000D02*
D03*
X108000D02*
D03*
Y301000D02*
D03*
D85*
X837500Y369550D02*
D03*
X862900Y420350D02*
D03*
Y394950D02*
D03*
D86*
X597000Y697000D02*
D03*
X750000D02*
D03*
D89*
X579000Y433000D02*
D03*
X790002Y75001D02*
D03*
X780002Y55001D02*
D03*
X790002Y35001D02*
D03*
X780002Y15001D02*
D03*
X770002Y75001D02*
D03*
X760002Y55001D02*
D03*
X770002Y35001D02*
D03*
X760002Y15001D02*
D03*
X750002Y75001D02*
D03*
X740002Y55001D02*
D03*
X750002Y35001D02*
D03*
X740002Y15001D02*
D03*
X730002Y75001D02*
D03*
X720002Y55001D02*
D03*
X730002Y35001D02*
D03*
X720002Y15001D02*
D03*
X710002Y75001D02*
D03*
X700002Y55001D02*
D03*
X710002Y35001D02*
D03*
X700002Y15001D02*
D03*
X690002Y75001D02*
D03*
X680002Y55001D02*
D03*
X690002Y35001D02*
D03*
X680002Y15001D02*
D03*
X670002Y75001D02*
D03*
X660001Y55001D02*
D03*
X670002Y35001D02*
D03*
X660001Y15001D02*
D03*
X650001Y75001D02*
D03*
X640001Y55001D02*
D03*
X650001Y35001D02*
D03*
X640001Y15001D02*
D03*
X630001Y75001D02*
D03*
X620001Y55001D02*
D03*
X630001Y35001D02*
D03*
X620001Y15001D02*
D03*
X610001Y75001D02*
D03*
X600001Y55001D02*
D03*
X610001Y35001D02*
D03*
X600001Y15001D02*
D03*
X590001Y75001D02*
D03*
X580001Y55001D02*
D03*
X590001Y35001D02*
D03*
X580001Y15001D02*
D03*
X570001Y75001D02*
D03*
X560001Y55001D02*
D03*
X570001Y35001D02*
D03*
X560001Y15001D02*
D03*
X550001Y75001D02*
D03*
X540001Y55001D02*
D03*
X550001Y35001D02*
D03*
X540001Y15001D02*
D03*
X530001Y75001D02*
D03*
X520001Y55001D02*
D03*
X530001Y35001D02*
D03*
X520001Y15001D02*
D03*
X510001Y75001D02*
D03*
X500001Y55001D02*
D03*
X510001Y35001D02*
D03*
X500001Y15001D02*
D03*
X490001Y75001D02*
D03*
X480001Y55001D02*
D03*
X490001Y35001D02*
D03*
X480001Y15001D02*
D03*
X470001Y75001D02*
D03*
X460001Y55001D02*
D03*
X470001Y35001D02*
D03*
X460001Y15001D02*
D03*
X450001Y75001D02*
D03*
X440001Y55001D02*
D03*
X450001Y35001D02*
D03*
X440001Y15001D02*
D03*
X430001Y75001D02*
D03*
X420001Y55001D02*
D03*
X430001Y35001D02*
D03*
X420001Y15001D02*
D03*
X410001Y75001D02*
D03*
X400001Y55001D02*
D03*
X410001Y35001D02*
D03*
X400001Y15001D02*
D03*
X390001Y75001D02*
D03*
X380001Y55001D02*
D03*
X390001Y35001D02*
D03*
X380001Y15001D02*
D03*
X370001Y75001D02*
D03*
X360001Y55001D02*
D03*
X370001Y35001D02*
D03*
X360001Y15001D02*
D03*
X350001Y75001D02*
D03*
X340001Y55001D02*
D03*
X350001Y35001D02*
D03*
X340001Y15001D02*
D03*
X330001Y75001D02*
D03*
X320001Y55001D02*
D03*
X330001Y35001D02*
D03*
X320001Y15001D02*
D03*
X310001Y75001D02*
D03*
X300001Y55001D02*
D03*
X310001Y35001D02*
D03*
X300001Y15001D02*
D03*
X290001Y75001D02*
D03*
X280001Y55001D02*
D03*
X290001Y35001D02*
D03*
X280001Y15001D02*
D03*
X510001Y755001D02*
D03*
X500001Y735001D02*
D03*
X510001Y715001D02*
D03*
X500001Y695001D02*
D03*
X490001Y755001D02*
D03*
X480001Y735001D02*
D03*
X490001Y715001D02*
D03*
X480001Y695001D02*
D03*
X470001Y755001D02*
D03*
X460001Y735001D02*
D03*
X470001Y715001D02*
D03*
X460001Y695001D02*
D03*
X450001Y755001D02*
D03*
X440001Y735001D02*
D03*
X450001Y715001D02*
D03*
X440001Y695001D02*
D03*
X430001Y755001D02*
D03*
X420001Y735001D02*
D03*
X430001Y715001D02*
D03*
X420001Y695001D02*
D03*
X410001Y755001D02*
D03*
X400001Y735001D02*
D03*
X410001Y715001D02*
D03*
X400001Y695001D02*
D03*
X390001Y755001D02*
D03*
X380001Y735001D02*
D03*
X390001Y715001D02*
D03*
X380001Y695001D02*
D03*
X370001Y755001D02*
D03*
X360001Y735001D02*
D03*
X370001Y715001D02*
D03*
X360001Y695001D02*
D03*
X350001Y755001D02*
D03*
X340001Y735001D02*
D03*
X350001Y715001D02*
D03*
X340001Y695001D02*
D03*
X330001Y755001D02*
D03*
X320001Y735001D02*
D03*
X330001Y715001D02*
D03*
X320001Y695001D02*
D03*
X310001Y755001D02*
D03*
X300001Y735001D02*
D03*
X310001Y715001D02*
D03*
X300001Y695001D02*
D03*
X290001Y755001D02*
D03*
X280001Y735001D02*
D03*
X290001Y715001D02*
D03*
X280001Y695001D02*
D03*
M02*
