G04*
G04 #@! TF.GenerationSoftware,Altium Limited,Altium Designer,25.6.2 (33)*
G04*
G04 Layer_Color=8421504*
%FSLAX44Y44*%
%MOMM*%
G71*
G04*
G04 #@! TF.SameCoordinates,F5E6062F-8FAF-4D23-8B74-0684357ABDF0*
G04*
G04*
G04 #@! TF.FilePolarity,Positive*
G04*
G01*
G75*
%ADD18R,1.0500X0.9000*%
%ADD19R,0.9000X1.0500*%
%ADD20R,1.1938X0.3000*%
%ADD21R,0.3000X1.1938*%
%ADD22R,0.9500X0.8000*%
%ADD23R,1.5000X1.4000*%
%ADD24R,1.4000X1.5000*%
%ADD25R,0.8000X0.9500*%
%ADD26R,1.4500X0.6000*%
%ADD27O,1.4500X0.6000*%
%ADD28R,1.7500X1.2500*%
%ADD29R,1.6510X0.4318*%
%ADD30R,1.1000X1.0000*%
%ADD31O,0.6000X1.4500*%
%ADD32R,1.3000X1.0500*%
%ADD33R,0.6000X1.4500*%
D18*
X584000Y160000D02*
D03*
Y176000D02*
D03*
X480000Y76000D02*
D03*
Y92000D02*
D03*
X427268Y502268D02*
D03*
X429768Y369768D02*
D03*
X267268Y483268D02*
D03*
X269768Y350768D02*
D03*
X429768Y237268D02*
D03*
Y104768D02*
D03*
X269768Y218268D02*
D03*
Y85768D02*
D03*
X149268Y461268D02*
D03*
X151768Y328768D02*
D03*
Y196268D02*
D03*
Y63768D02*
D03*
X567000Y12000D02*
D03*
X507000Y28000D02*
D03*
Y12000D02*
D03*
X429768Y88768D02*
D03*
X269768Y69768D02*
D03*
X151768Y79768D02*
D03*
Y344768D02*
D03*
Y212268D02*
D03*
X149268Y477268D02*
D03*
X269768Y202268D02*
D03*
X267268Y467268D02*
D03*
X429768Y221268D02*
D03*
X269768Y334768D02*
D03*
X429768Y353768D02*
D03*
X427268Y486268D02*
D03*
X567000Y28000D02*
D03*
D19*
X494000Y165000D02*
D03*
X510000D02*
D03*
X506000Y52000D02*
D03*
X490000D02*
D03*
X612000Y56000D02*
D03*
X628000D02*
D03*
X360268Y452268D02*
D03*
X362768Y319768D02*
D03*
Y187268D02*
D03*
Y54768D02*
D03*
X346768D02*
D03*
X319768Y94768D02*
D03*
X335768D02*
D03*
X168546Y29330D02*
D03*
X184546D02*
D03*
X140036Y126000D02*
D03*
X124036D02*
D03*
X168546Y161829D02*
D03*
X184546D02*
D03*
X168546Y294330D02*
D03*
X184546D02*
D03*
X166046Y426830D02*
D03*
X182046D02*
D03*
X140036Y258500D02*
D03*
X124036D02*
D03*
X140036Y391000D02*
D03*
X124036D02*
D03*
X137536Y523500D02*
D03*
X121536D02*
D03*
X346768Y187268D02*
D03*
X319768Y227268D02*
D03*
X335768D02*
D03*
X319768Y359768D02*
D03*
X335768D02*
D03*
X346768Y319768D02*
D03*
X344268Y452268D02*
D03*
X317268Y492268D02*
D03*
X333268D02*
D03*
D20*
X498000Y81000D02*
D03*
Y86000D02*
D03*
Y91000D02*
D03*
Y96000D02*
D03*
Y101000D02*
D03*
Y106000D02*
D03*
Y111000D02*
D03*
Y116000D02*
D03*
Y121000D02*
D03*
Y126000D02*
D03*
Y131000D02*
D03*
Y136000D02*
D03*
X583000D02*
D03*
Y131000D02*
D03*
Y126000D02*
D03*
Y121000D02*
D03*
Y116000D02*
D03*
Y111000D02*
D03*
Y106000D02*
D03*
Y101000D02*
D03*
Y96000D02*
D03*
Y91000D02*
D03*
Y86000D02*
D03*
Y81000D02*
D03*
D21*
X513000Y151000D02*
D03*
X518000D02*
D03*
X523000D02*
D03*
X528000D02*
D03*
X533000D02*
D03*
X538000D02*
D03*
X543000D02*
D03*
X548000D02*
D03*
X553000D02*
D03*
X558000D02*
D03*
X563000D02*
D03*
X568000D02*
D03*
Y66000D02*
D03*
X563000D02*
D03*
X558000D02*
D03*
X553000D02*
D03*
X548000D02*
D03*
X543000D02*
D03*
X538000D02*
D03*
X533000D02*
D03*
X528000D02*
D03*
X523000D02*
D03*
X518000D02*
D03*
X513000D02*
D03*
D22*
X487000Y321232D02*
D03*
Y334232D02*
D03*
X264176Y38070D02*
D03*
Y51070D02*
D03*
X266716Y126000D02*
D03*
Y113000D02*
D03*
X284496Y36800D02*
D03*
Y49800D02*
D03*
X287036Y126000D02*
D03*
Y113000D02*
D03*
X137176Y42180D02*
D03*
Y29180D02*
D03*
X153686Y42180D02*
D03*
Y29180D02*
D03*
X264176Y170570D02*
D03*
Y183570D02*
D03*
X284496Y169300D02*
D03*
Y182300D02*
D03*
X287036Y258500D02*
D03*
Y245500D02*
D03*
X266716Y258500D02*
D03*
Y245500D02*
D03*
X153686Y174680D02*
D03*
Y161680D02*
D03*
X137176Y174680D02*
D03*
Y161680D02*
D03*
X153686Y307179D02*
D03*
Y294180D02*
D03*
X264176Y303070D02*
D03*
Y316069D02*
D03*
X266716Y390999D02*
D03*
Y378000D02*
D03*
X151186Y439680D02*
D03*
Y426680D02*
D03*
X137176Y307179D02*
D03*
Y294180D02*
D03*
X134676Y439680D02*
D03*
Y426680D02*
D03*
X261676Y435570D02*
D03*
Y448570D02*
D03*
X264216Y523500D02*
D03*
Y510500D02*
D03*
X284496Y301800D02*
D03*
Y314799D02*
D03*
X287036Y390999D02*
D03*
Y378000D02*
D03*
X281996Y434300D02*
D03*
Y447300D02*
D03*
X284536Y523500D02*
D03*
Y510500D02*
D03*
D23*
X510000Y323732D02*
D03*
Y343732D02*
D03*
D24*
X612920Y92953D02*
D03*
X632920D02*
D03*
X682258Y97679D02*
D03*
X662258D02*
D03*
D25*
X607500Y114000D02*
D03*
X620500D02*
D03*
X685758Y75679D02*
D03*
X672758D02*
D03*
X360268Y472268D02*
D03*
X362767Y339768D02*
D03*
X315768Y507268D02*
D03*
X318268Y374768D02*
D03*
X362767Y207268D02*
D03*
X362768Y74768D02*
D03*
X318268Y242268D02*
D03*
Y109768D02*
D03*
X320768Y472268D02*
D03*
X318268Y394768D02*
D03*
X315768Y527268D02*
D03*
X323268Y339768D02*
D03*
Y207268D02*
D03*
Y74768D02*
D03*
X318268Y262268D02*
D03*
Y129768D02*
D03*
X336268Y74768D02*
D03*
X349768D02*
D03*
X331268Y129768D02*
D03*
Y109768D02*
D03*
X245276Y28060D02*
D03*
X232276D02*
D03*
X249086Y125850D02*
D03*
X236086D02*
D03*
X152566Y110610D02*
D03*
X139566D02*
D03*
X152566Y92830D02*
D03*
X139566D02*
D03*
X520000Y261000D02*
D03*
X533000D02*
D03*
X245276Y160560D02*
D03*
X232276D02*
D03*
X249086Y258349D02*
D03*
X236086D02*
D03*
X152566Y225329D02*
D03*
X139566D02*
D03*
X152566Y243109D02*
D03*
X139566D02*
D03*
X245276Y293060D02*
D03*
X232276D02*
D03*
X249086Y390850D02*
D03*
X236086D02*
D03*
X242776Y425560D02*
D03*
X229776D02*
D03*
X152566Y357830D02*
D03*
X139566D02*
D03*
X152566Y375610D02*
D03*
X139566D02*
D03*
X150066Y490330D02*
D03*
X137066D02*
D03*
X150066Y508110D02*
D03*
X137066D02*
D03*
X246586Y523350D02*
D03*
X233586D02*
D03*
X331268Y394768D02*
D03*
X349768Y207268D02*
D03*
X336268D02*
D03*
X331268Y242268D02*
D03*
Y262268D02*
D03*
X331268Y374768D02*
D03*
X349768Y339768D02*
D03*
X336268D02*
D03*
X347268Y472268D02*
D03*
X333768D02*
D03*
X328768Y507268D02*
D03*
Y527268D02*
D03*
D26*
X350018Y526318D02*
D03*
X352518Y393818D02*
D03*
Y261318D02*
D03*
Y128818D02*
D03*
D27*
X407018Y381118D02*
D03*
X404518Y500918D02*
D03*
X407018Y368418D02*
D03*
Y235918D02*
D03*
Y103418D02*
D03*
X404518Y526318D02*
D03*
X407018Y393818D02*
D03*
Y261318D02*
D03*
Y128818D02*
D03*
Y90718D02*
D03*
Y116118D02*
D03*
X352518Y90718D02*
D03*
Y103418D02*
D03*
Y116118D02*
D03*
X407018Y223218D02*
D03*
Y248618D02*
D03*
X352518Y223218D02*
D03*
Y235918D02*
D03*
Y248618D02*
D03*
X407018Y355718D02*
D03*
X352518D02*
D03*
Y368418D02*
D03*
Y381118D02*
D03*
X404518Y488218D02*
D03*
Y513618D02*
D03*
X350018Y488218D02*
D03*
Y500918D02*
D03*
Y513618D02*
D03*
D28*
X365518Y432268D02*
D03*
X368018Y299768D02*
D03*
Y167268D02*
D03*
X368018Y34768D02*
D03*
X341518D02*
D03*
Y167268D02*
D03*
Y299768D02*
D03*
X339018Y432268D02*
D03*
D29*
X241864Y482710D02*
D03*
Y476360D02*
D03*
Y463406D02*
D03*
X172268Y482710D02*
D03*
Y469756D02*
D03*
Y463406D02*
D03*
X244364Y343860D02*
D03*
Y350210D02*
D03*
Y330906D02*
D03*
X174768Y350210D02*
D03*
Y330906D02*
D03*
Y337256D02*
D03*
X244364Y211360D02*
D03*
Y217710D02*
D03*
Y85210D02*
D03*
Y198406D02*
D03*
Y78860D02*
D03*
X174768Y217710D02*
D03*
Y204756D02*
D03*
Y85210D02*
D03*
Y198406D02*
D03*
X244364Y65906D02*
D03*
X174768Y72256D02*
D03*
Y65906D02*
D03*
Y104768D02*
D03*
Y98418D02*
D03*
Y91814D02*
D03*
Y78860D02*
D03*
Y59302D02*
D03*
Y52698D02*
D03*
Y46348D02*
D03*
X244364D02*
D03*
Y52698D02*
D03*
Y59302D02*
D03*
Y72256D02*
D03*
Y91814D02*
D03*
Y98418D02*
D03*
Y104768D02*
D03*
X172268Y476360D02*
D03*
X174768Y343860D02*
D03*
Y211360D02*
D03*
Y237268D02*
D03*
Y230918D02*
D03*
Y224314D02*
D03*
Y191802D02*
D03*
Y185198D02*
D03*
Y178848D02*
D03*
X244364D02*
D03*
Y185198D02*
D03*
Y191802D02*
D03*
Y204756D02*
D03*
Y224314D02*
D03*
Y230918D02*
D03*
Y237268D02*
D03*
X174768Y369768D02*
D03*
Y363418D02*
D03*
Y356814D02*
D03*
Y324302D02*
D03*
Y317698D02*
D03*
Y311348D02*
D03*
X244364D02*
D03*
Y317698D02*
D03*
Y324302D02*
D03*
Y337256D02*
D03*
Y356814D02*
D03*
Y363418D02*
D03*
Y369768D02*
D03*
X172268Y502268D02*
D03*
Y495918D02*
D03*
Y489314D02*
D03*
Y456802D02*
D03*
Y450198D02*
D03*
Y443848D02*
D03*
X241864D02*
D03*
Y450198D02*
D03*
Y456802D02*
D03*
Y469756D02*
D03*
Y489314D02*
D03*
Y495918D02*
D03*
Y502268D02*
D03*
D30*
X684500Y26000D02*
D03*
X611500D02*
D03*
D31*
X545550Y241250D02*
D03*
X532850D02*
D03*
X520150D02*
D03*
X507450D02*
D03*
X545550Y186750D02*
D03*
X532850D02*
D03*
X520150D02*
D03*
D32*
X547000Y10000D02*
D03*
X524000Y28500D02*
D03*
X547000D02*
D03*
X524000Y10000D02*
D03*
D33*
X507450Y186750D02*
D03*
M02*
