M48
;Layer_Color=9474304
;FILE_FORMAT=4:4
METRIC,LZ
;TYPE=PLATED
T01F00S00C0.3000
T02F00S00C0.7300
T03F00S00C1.0000
T04F00S00C1.2800
%
T01
X00280001Y00015001
X00300001
X00320001
X00340001
X00360001
X00380001
X00370001Y00035001
X00350001
X00330001
X00310001
X00290001
X00300001Y00055001
X00320001
X00340001
X00360001
X00380001
X00370001Y00075001
X00350001
X00330001
X00310001
X00290001
X00280001Y00055001
X00222Y00111
X00221Y0025
X00275Y00216
X00321Y0017
X0032Y00309
X00274Y00355
X00481Y00302
X0048Y00172
X00470001Y00075001
X00490001
X00510001
X00530001
X00550001
X00570001
X00590001
X00610001
X00630001
X00650001
X00670002
X00690002
X00710002
X00730002
X00750002
X00770002
X00760002Y00055001
X00740002
X00720002
X00700002
X00680002
X00660001
X00640001
X00620001
X00600001
X00580001
X00560001
X00540001
X00520001
X00500001
X00480001
X00460001
X00440001
X00420001
X00400001
X00410001Y00075001
X00430001
X00450001
Y00035001
X00470001
X00490001
X00510001
X00530001
X00550001
X00570001
X00590001
X00610001
X00630001
X00650001
X00670002
X00690002
X00710002
X00730002
X00750002
X00770002
X00760002Y00015001
X00740002
X00720002
X00700002
X00680002
X00660001
X00640001
X00620001
X00600001
X00580001
X00560001
X00540001
X00520001
X00500001
X00480001
X00460001
X00440001
X00420001
X00400001
X00410001Y00035001
X00430001
X00390001
Y00075001
X00652Y00334
X00790002Y00075001
X00780002Y00055001
X00790002Y00035001
X00780002Y00015001
X00767Y00435
X00659Y00413
X00661Y00393
X00607391Y00415194
X00604Y0042302
X00579Y00433
X00612Y00464
X00636Y00452
X0048Y00442
X00488Y00577
X00480001Y00695001
X00500001
X00510001Y00715001
X00490001
X00470001
X00450001
X00430001
X00410001
X00390001
X00400001Y00735001
X00420001
X00440001
X00460001
X00480001
X00500001
X00510001Y00755001
X00490001
X00470001
X00450001
X00430001
X00410001
X00390001
X00400001Y00695001
X00420001
X00440001
X00460001
X00621Y00616
X00380001Y00695001
X00360001
X00340001
X00320001
X00300001
X00280001
X00290001Y00715001
X00310001
X00330001
X00350001
X00370001
X00380001Y00735001
X00360001
X00340001
X00320001
X00300001
X00280001
X00290001Y00755001
X00310001
X00330001
X00350001
X00370001
X00275Y00635
X00321Y00589
X00274Y00495
X00222Y0053
X00221Y0039
X0032Y00449
T02
X00572Y00697
X00597
X00622
X00647
X007
X00725
X0075
T03
X00085Y00186
X00084Y00325
X008375Y0034415
Y0036955
X008629
Y0034415
Y0039495
Y0042035
X008375
Y0039495
Y0044575
X008629
X00084Y00465
X00085Y00605
T04
X00061Y00162
X00109
Y0021
X00061
X0006Y00301
Y00349
X00108
Y00301
Y00441
X0006
Y00489
X00108
X00109Y00581
X00061
Y00629
X00109
M30
