G04*
G04 #@! TF.GenerationSoftware,Altium Limited,Altium Designer,25.6.2 (33)*
G04*
G04 Layer_Physical_Order=3*
G04 Layer_Color=16440176*
%FSLAX44Y44*%
%MOMM*%
G71*
G04*
G04 #@! TF.SameCoordinates,F5E6062F-8FAF-4D23-8B74-0684357ABDF0*
G04*
G04*
G04 #@! TF.FilePolarity,Positive*
G04*
G01*
G75*
%ADD57C,2.0000*%
%ADD58C,1.1300*%
%ADD60C,1.9200*%
%ADD63C,0.5000*%
G36*
X693451Y2549D02*
X2549D01*
Y547451D01*
X693451D01*
Y2549D01*
D02*
G37*
%LPC*%
G36*
X447895Y523500D02*
X446105D01*
X444451Y522815D01*
X443185Y521549D01*
X442500Y519895D01*
Y518105D01*
X443185Y516451D01*
X444451Y515185D01*
X446105Y514500D01*
X447895D01*
X449549Y515185D01*
X450815Y516451D01*
X451500Y518105D01*
Y519895D01*
X450815Y521549D01*
X449549Y522815D01*
X447895Y523500D01*
D02*
G37*
G36*
X306895Y520500D02*
X305105D01*
X303451Y519815D01*
X302185Y518549D01*
X301500Y516895D01*
Y515105D01*
X302185Y513451D01*
X303451Y512185D01*
X305105Y511500D01*
X306895D01*
X308549Y512185D01*
X309815Y513451D01*
X310500Y515105D01*
Y516895D01*
X309815Y518549D01*
X308549Y519815D01*
X306895Y520500D01*
D02*
G37*
G36*
X445895Y508500D02*
X444105D01*
X442451Y507815D01*
X441185Y506549D01*
X440500Y504895D01*
Y503105D01*
X441185Y501451D01*
X442451Y500185D01*
X444105Y499500D01*
X445895D01*
X447549Y500185D01*
X448815Y501451D01*
X449500Y503105D01*
Y504895D01*
X448815Y506549D01*
X447549Y507815D01*
X445895Y508500D01*
D02*
G37*
G36*
X96927Y504868D02*
X96768D01*
Y493768D01*
X107868D01*
Y493927D01*
X107009Y497131D01*
X105351Y500005D01*
X103005Y502351D01*
X100132Y504009D01*
X96927Y504868D01*
D02*
G37*
G36*
X48927D02*
X48768D01*
Y493768D01*
X59868D01*
Y493927D01*
X59010Y497131D01*
X57351Y500005D01*
X55005Y502351D01*
X52132Y504009D01*
X48927Y504868D01*
D02*
G37*
G36*
X93768D02*
X93609D01*
X90405Y504009D01*
X87532Y502351D01*
X85186Y500005D01*
X83527Y497131D01*
X82668Y493927D01*
Y493768D01*
X93768D01*
Y504868D01*
D02*
G37*
G36*
X45768D02*
X45609D01*
X42405Y504009D01*
X39532Y502351D01*
X37186Y500005D01*
X35527Y497131D01*
X34668Y493927D01*
Y493768D01*
X45768D01*
Y504868D01*
D02*
G37*
G36*
X509500Y497553D02*
Y490500D01*
X516553D01*
X516060Y492339D01*
X514922Y494311D01*
X513311Y495922D01*
X511339Y497060D01*
X509500Y497553D01*
D02*
G37*
G36*
X662500D02*
Y490500D01*
X669553D01*
X669061Y492339D01*
X667922Y494311D01*
X666311Y495922D01*
X664339Y497060D01*
X662500Y497553D01*
D02*
G37*
G36*
X506500D02*
X504661Y497060D01*
X502689Y495922D01*
X501078Y494311D01*
X499939Y492339D01*
X499447Y490500D01*
X506500D01*
Y497553D01*
D02*
G37*
G36*
X659500D02*
X657661Y497060D01*
X655689Y495922D01*
X654078Y494311D01*
X652939Y492339D01*
X652447Y490500D01*
X659500D01*
Y497553D01*
D02*
G37*
G36*
X637007Y496650D02*
X634993D01*
X633047Y496129D01*
X631303Y495121D01*
X629879Y493697D01*
X628872Y491953D01*
X628350Y490007D01*
Y487993D01*
X628872Y486047D01*
X629879Y484303D01*
X631303Y482878D01*
X633047Y481871D01*
X634993Y481350D01*
X637007D01*
X638953Y481871D01*
X640697Y482878D01*
X642122Y484303D01*
X643129Y486047D01*
X643650Y487993D01*
Y490007D01*
X643129Y491953D01*
X642122Y493697D01*
X640697Y495121D01*
X638953Y496129D01*
X637007Y496650D01*
D02*
G37*
G36*
X612007D02*
X609993D01*
X608047Y496129D01*
X606303Y495121D01*
X604879Y493697D01*
X603871Y491953D01*
X603350Y490007D01*
Y487993D01*
X603871Y486047D01*
X604879Y484303D01*
X606303Y482878D01*
X608047Y481871D01*
X609993Y481350D01*
X612007D01*
X613953Y481871D01*
X615697Y482878D01*
X617122Y484303D01*
X618129Y486047D01*
X618650Y487993D01*
Y490007D01*
X618129Y491953D01*
X617122Y493697D01*
X615697Y495121D01*
X613953Y496129D01*
X612007Y496650D01*
D02*
G37*
G36*
X559007D02*
X556993D01*
X555047Y496129D01*
X553303Y495121D01*
X551878Y493697D01*
X550871Y491953D01*
X550350Y490007D01*
Y487993D01*
X550871Y486047D01*
X551878Y484303D01*
X553303Y482878D01*
X555047Y481871D01*
X556993Y481350D01*
X559007D01*
X560953Y481871D01*
X562697Y482878D01*
X564121Y484303D01*
X565129Y486047D01*
X565650Y487993D01*
Y490007D01*
X565129Y491953D01*
X564121Y493697D01*
X562697Y495121D01*
X560953Y496129D01*
X559007Y496650D01*
D02*
G37*
G36*
X534007D02*
X531993D01*
X530047Y496129D01*
X528303Y495121D01*
X526879Y493697D01*
X525872Y491953D01*
X525350Y490007D01*
Y487993D01*
X525872Y486047D01*
X526879Y484303D01*
X528303Y482878D01*
X530047Y481871D01*
X531993Y481350D01*
X534007D01*
X535953Y481871D01*
X537697Y482878D01*
X539122Y484303D01*
X540129Y486047D01*
X540650Y487993D01*
Y490007D01*
X540129Y491953D01*
X539122Y493697D01*
X537697Y495121D01*
X535953Y496129D01*
X534007Y496650D01*
D02*
G37*
G36*
X484007D02*
X481993D01*
X480047Y496129D01*
X478303Y495121D01*
X476878Y493697D01*
X475871Y491953D01*
X475350Y490007D01*
Y487993D01*
X475871Y486047D01*
X476878Y484303D01*
X478303Y482878D01*
X480047Y481871D01*
X481993Y481350D01*
X484007D01*
X485953Y481871D01*
X487697Y482878D01*
X489121Y484303D01*
X490129Y486047D01*
X490650Y487993D01*
Y490007D01*
X490129Y491953D01*
X489121Y493697D01*
X487697Y495121D01*
X485953Y496129D01*
X484007Y496650D01*
D02*
G37*
G36*
X669553Y487500D02*
X662500D01*
Y480447D01*
X664339Y480939D01*
X666311Y482078D01*
X667922Y483689D01*
X669061Y485661D01*
X669553Y487500D01*
D02*
G37*
G36*
X516553D02*
X509500D01*
Y480447D01*
X511339Y480939D01*
X513311Y482078D01*
X514922Y483689D01*
X516060Y485661D01*
X516553Y487500D01*
D02*
G37*
G36*
X659500D02*
X652447D01*
X652939Y485661D01*
X654078Y483689D01*
X655689Y482078D01*
X657661Y480939D01*
X659500Y480447D01*
Y487500D01*
D02*
G37*
G36*
X506500D02*
X499447D01*
X499939Y485661D01*
X501078Y483689D01*
X502689Y482078D01*
X504661Y480939D01*
X506500Y480447D01*
Y487500D01*
D02*
G37*
G36*
X107868Y490768D02*
X96768D01*
Y479668D01*
X96927D01*
X100132Y480527D01*
X103005Y482186D01*
X105351Y484531D01*
X107009Y487405D01*
X107868Y490609D01*
Y490768D01*
D02*
G37*
G36*
X93768D02*
X82668D01*
Y490609D01*
X83527Y487405D01*
X85186Y484531D01*
X87532Y482186D01*
X90405Y480527D01*
X93609Y479668D01*
X93768D01*
Y490768D01*
D02*
G37*
G36*
X59868D02*
X48768D01*
Y479668D01*
X48927D01*
X52132Y480527D01*
X55005Y482186D01*
X57351Y484531D01*
X59010Y487405D01*
X59868Y490609D01*
Y490768D01*
D02*
G37*
G36*
X45768D02*
X34668D01*
Y490609D01*
X35527Y487405D01*
X37186Y484531D01*
X39532Y482186D01*
X42405Y480527D01*
X45609Y479668D01*
X45768D01*
Y490768D01*
D02*
G37*
G36*
X132895Y481500D02*
X131105D01*
X129451Y480815D01*
X128185Y479549D01*
X127500Y477895D01*
Y476105D01*
X128185Y474451D01*
X129451Y473185D01*
X131105Y472500D01*
X132895D01*
X134549Y473185D01*
X135815Y474451D01*
X136500Y476105D01*
Y477895D01*
X135815Y479549D01*
X134549Y480815D01*
X132895Y481500D01*
D02*
G37*
G36*
X306933Y474538D02*
X305143D01*
X303489Y473853D01*
X302223Y472587D01*
X301538Y470933D01*
Y469143D01*
X302223Y467489D01*
X303489Y466223D01*
X305143Y465538D01*
X306933D01*
X308587Y466223D01*
X309853Y467489D01*
X310538Y469143D01*
Y470933D01*
X309853Y472587D01*
X308587Y473853D01*
X306933Y474538D01*
D02*
G37*
G36*
X72524Y477808D02*
X70012D01*
X67586Y477157D01*
X65410Y475901D01*
X63634Y474125D01*
X62378Y471950D01*
X61728Y469524D01*
Y467012D01*
X62378Y464585D01*
X63634Y462410D01*
X65410Y460634D01*
X67586Y459378D01*
X70012Y458728D01*
X72524D01*
X74950Y459378D01*
X77126Y460634D01*
X78902Y462410D01*
X80158Y464585D01*
X80808Y467012D01*
Y469524D01*
X80158Y471950D01*
X78902Y474125D01*
X77126Y475901D01*
X74950Y477157D01*
X72524Y477808D01*
D02*
G37*
G36*
X96927Y456868D02*
X96768D01*
Y445768D01*
X107868D01*
Y445926D01*
X107009Y449131D01*
X105351Y452004D01*
X103005Y454350D01*
X100132Y456009D01*
X96927Y456868D01*
D02*
G37*
G36*
X48927D02*
X48768D01*
Y445768D01*
X59868D01*
Y445926D01*
X59010Y449131D01*
X57351Y452004D01*
X55005Y454350D01*
X52132Y456009D01*
X48927Y456868D01*
D02*
G37*
G36*
X93768D02*
X93609D01*
X90405Y456009D01*
X87532Y454350D01*
X85186Y452004D01*
X83527Y449131D01*
X82668Y445926D01*
Y445768D01*
X93768D01*
Y456868D01*
D02*
G37*
G36*
X45768D02*
X45609D01*
X42405Y456009D01*
X39532Y454350D01*
X37186Y452004D01*
X35527Y449131D01*
X34668Y445926D01*
Y445768D01*
X45768D01*
Y456868D01*
D02*
G37*
G36*
X107868Y442768D02*
X96768D01*
Y431668D01*
X96927D01*
X100132Y432526D01*
X103005Y434185D01*
X105351Y436531D01*
X107009Y439404D01*
X107868Y442609D01*
Y442768D01*
D02*
G37*
G36*
X93768D02*
X82668D01*
Y442609D01*
X83527Y439404D01*
X85186Y436531D01*
X87532Y434185D01*
X90405Y432526D01*
X93609Y431668D01*
X93768D01*
Y442768D01*
D02*
G37*
G36*
X59868D02*
X48768D01*
Y431668D01*
X48927D01*
X52132Y432526D01*
X55005Y434185D01*
X57351Y436531D01*
X59010Y439404D01*
X59868Y442609D01*
Y442768D01*
D02*
G37*
G36*
X45768D02*
X34668D01*
Y442609D01*
X35527Y439404D01*
X37186Y436531D01*
X39532Y434185D01*
X42405Y432526D01*
X45609Y431668D01*
X45768D01*
Y442768D01*
D02*
G37*
G36*
X662500Y400553D02*
Y393500D01*
X669553D01*
X669061Y395339D01*
X667922Y397311D01*
X666311Y398922D01*
X664339Y400061D01*
X662500Y400553D01*
D02*
G37*
G36*
X509500Y400553D02*
Y393500D01*
X516553D01*
X516060Y395339D01*
X514922Y397311D01*
X513311Y398922D01*
X511339Y400061D01*
X509500Y400553D01*
D02*
G37*
G36*
X506500D02*
X504661Y400061D01*
X502689Y398922D01*
X501078Y397311D01*
X499939Y395339D01*
X499447Y393500D01*
X506500D01*
Y400553D01*
D02*
G37*
G36*
X659500Y400553D02*
X657661Y400061D01*
X655689Y398922D01*
X654078Y397311D01*
X652940Y395339D01*
X652447Y393500D01*
X659500D01*
Y400553D01*
D02*
G37*
G36*
X305895Y399001D02*
X304105D01*
X302451Y398315D01*
X301185Y397049D01*
X300500Y395396D01*
Y393605D01*
X301185Y391951D01*
X302451Y390686D01*
X304105Y390000D01*
X305895D01*
X307549Y390686D01*
X308815Y391951D01*
X309500Y393605D01*
Y395396D01*
X308815Y397049D01*
X307549Y398315D01*
X305895Y399001D01*
D02*
G37*
G36*
X637007Y399650D02*
X634993D01*
X633047Y399129D01*
X631303Y398121D01*
X629879Y396697D01*
X628871Y394953D01*
X628350Y393007D01*
Y390993D01*
X628871Y389047D01*
X629879Y387303D01*
X631303Y385878D01*
X633047Y384871D01*
X634993Y384350D01*
X637007D01*
X638953Y384871D01*
X640697Y385878D01*
X642122Y387303D01*
X643129Y389047D01*
X643650Y390993D01*
Y393007D01*
X643129Y394953D01*
X642122Y396697D01*
X640697Y398121D01*
X638953Y399129D01*
X637007Y399650D01*
D02*
G37*
G36*
X612007D02*
X609993D01*
X608047Y399129D01*
X606303Y398121D01*
X604879Y396697D01*
X603871Y394953D01*
X603350Y393007D01*
Y390993D01*
X603871Y389047D01*
X604879Y387303D01*
X606303Y385878D01*
X608047Y384871D01*
X609993Y384350D01*
X612007D01*
X613953Y384871D01*
X615697Y385878D01*
X617122Y387303D01*
X618129Y389047D01*
X618650Y390993D01*
Y393007D01*
X618129Y394953D01*
X617122Y396697D01*
X615697Y398121D01*
X613953Y399129D01*
X612007Y399650D01*
D02*
G37*
G36*
X559007D02*
X556993D01*
X555047Y399129D01*
X553303Y398121D01*
X551879Y396697D01*
X550871Y394953D01*
X550350Y393007D01*
Y390993D01*
X550871Y389047D01*
X551879Y387303D01*
X553303Y385878D01*
X555047Y384871D01*
X556993Y384350D01*
X559007D01*
X560953Y384871D01*
X562697Y385878D01*
X564122Y387303D01*
X565129Y389047D01*
X565650Y390993D01*
Y393007D01*
X565129Y394953D01*
X564122Y396697D01*
X562697Y398121D01*
X560953Y399129D01*
X559007Y399650D01*
D02*
G37*
G36*
X534007D02*
X531993D01*
X530047Y399129D01*
X528303Y398121D01*
X526879Y396697D01*
X525871Y394953D01*
X525350Y393007D01*
Y390993D01*
X525871Y389047D01*
X526879Y387303D01*
X528303Y385878D01*
X530047Y384871D01*
X531993Y384350D01*
X534007D01*
X535953Y384871D01*
X537697Y385878D01*
X539122Y387303D01*
X540129Y389047D01*
X540650Y390993D01*
Y393007D01*
X540129Y394953D01*
X539122Y396697D01*
X537697Y398121D01*
X535953Y399129D01*
X534007Y399650D01*
D02*
G37*
G36*
X484007D02*
X481993D01*
X480047Y399129D01*
X478303Y398121D01*
X476879Y396697D01*
X475871Y394953D01*
X475350Y393007D01*
Y390993D01*
X475871Y389047D01*
X476879Y387303D01*
X478303Y385878D01*
X480047Y384871D01*
X481993Y384350D01*
X484007D01*
X485953Y384871D01*
X487697Y385878D01*
X489122Y387303D01*
X490129Y389047D01*
X490650Y390993D01*
Y393007D01*
X490129Y394953D01*
X489122Y396697D01*
X487697Y398121D01*
X485953Y399129D01*
X484007Y399650D01*
D02*
G37*
G36*
X669553Y390500D02*
X662500D01*
Y383447D01*
X664339Y383940D01*
X666311Y385078D01*
X667922Y386689D01*
X669061Y388661D01*
X669553Y390500D01*
D02*
G37*
G36*
X516553D02*
X509500D01*
Y383447D01*
X511339Y383940D01*
X513311Y385078D01*
X514922Y386689D01*
X516060Y388661D01*
X516553Y390500D01*
D02*
G37*
G36*
X506500D02*
X499447D01*
X499939Y388661D01*
X501078Y386689D01*
X502689Y385078D01*
X504661Y383940D01*
X506500Y383447D01*
Y390500D01*
D02*
G37*
G36*
X659500D02*
X652447D01*
X652940Y388661D01*
X654078Y386689D01*
X655689Y385078D01*
X657661Y383940D01*
X659500Y383447D01*
Y390500D01*
D02*
G37*
G36*
X448895Y371500D02*
X447105D01*
X445451Y370815D01*
X444185Y369549D01*
X443500Y367895D01*
Y366105D01*
X444185Y364451D01*
X445451Y363185D01*
X447105Y362500D01*
X448895D01*
X450549Y363185D01*
X451815Y364451D01*
X452500Y366105D01*
Y367895D01*
X451815Y369549D01*
X450549Y370815D01*
X448895Y371500D01*
D02*
G37*
G36*
X99427Y372368D02*
X99268D01*
Y361268D01*
X110368D01*
Y361426D01*
X109509Y364631D01*
X107851Y367504D01*
X105505Y369850D01*
X102632Y371509D01*
X99427Y372368D01*
D02*
G37*
G36*
X51427D02*
X51268D01*
Y361268D01*
X62368D01*
Y361426D01*
X61510Y364631D01*
X59851Y367504D01*
X57505Y369850D01*
X54632Y371509D01*
X51427Y372368D01*
D02*
G37*
G36*
X96268D02*
X96109D01*
X92905Y371509D01*
X90032Y369850D01*
X87686Y367504D01*
X86027Y364631D01*
X85168Y361426D01*
Y361268D01*
X96268D01*
Y372368D01*
D02*
G37*
G36*
X48268D02*
X48109D01*
X44905Y371509D01*
X42032Y369850D01*
X39686Y367504D01*
X38027Y364631D01*
X37168Y361426D01*
Y361268D01*
X48268D01*
Y372368D01*
D02*
G37*
G36*
X110368Y358268D02*
X99268D01*
Y347168D01*
X99427D01*
X102632Y348026D01*
X105505Y349685D01*
X107851Y352031D01*
X109509Y354904D01*
X110368Y358109D01*
Y358268D01*
D02*
G37*
G36*
X96268D02*
X85168D01*
Y358109D01*
X86027Y354904D01*
X87686Y352031D01*
X90032Y349685D01*
X92905Y348026D01*
X96109Y347168D01*
X96268D01*
Y358268D01*
D02*
G37*
G36*
X62368D02*
X51268D01*
Y347168D01*
X51427D01*
X54632Y348026D01*
X57505Y349685D01*
X59851Y352031D01*
X61510Y354904D01*
X62368Y358109D01*
Y358268D01*
D02*
G37*
G36*
X48268D02*
X37168D01*
Y358109D01*
X38027Y354904D01*
X39686Y352031D01*
X42032Y349685D01*
X44905Y348026D01*
X48109Y347168D01*
X48268D01*
Y358268D01*
D02*
G37*
G36*
X132895Y349500D02*
X131105D01*
X129451Y348815D01*
X128185Y347549D01*
X127500Y345895D01*
Y344105D01*
X128185Y342451D01*
X129451Y341185D01*
X131105Y340500D01*
X132895D01*
X134549Y341185D01*
X135815Y342451D01*
X136500Y344105D01*
Y345895D01*
X135815Y347549D01*
X134549Y348815D01*
X132895Y349500D01*
D02*
G37*
G36*
X306895Y345000D02*
X305105D01*
X303451Y344315D01*
X302185Y343050D01*
X301500Y341396D01*
Y339605D01*
X302185Y337951D01*
X303451Y336686D01*
X305105Y336001D01*
X306895D01*
X308549Y336686D01*
X309815Y337951D01*
X310500Y339605D01*
Y341396D01*
X309815Y343050D01*
X308549Y344315D01*
X306895Y345000D01*
D02*
G37*
G36*
X75024Y345308D02*
X72512D01*
X70086Y344657D01*
X67910Y343401D01*
X66134Y341625D01*
X64878Y339450D01*
X64228Y337024D01*
Y334512D01*
X64878Y332085D01*
X66134Y329910D01*
X67910Y328134D01*
X70086Y326878D01*
X72512Y326228D01*
X75024D01*
X77450Y326878D01*
X79626Y328134D01*
X81402Y329910D01*
X82658Y332085D01*
X83308Y334512D01*
Y337024D01*
X82658Y339450D01*
X81402Y341625D01*
X79626Y343401D01*
X77450Y344657D01*
X75024Y345308D01*
D02*
G37*
G36*
X99427Y324368D02*
X99268D01*
Y313268D01*
X110368D01*
Y313426D01*
X109509Y316631D01*
X107851Y319504D01*
X105505Y321850D01*
X102632Y323509D01*
X99427Y324368D01*
D02*
G37*
G36*
X51427D02*
X51268D01*
Y313268D01*
X62368D01*
Y313426D01*
X61510Y316631D01*
X59851Y319504D01*
X57505Y321850D01*
X54632Y323509D01*
X51427Y324368D01*
D02*
G37*
G36*
X96268D02*
X96109D01*
X92905Y323509D01*
X90032Y321850D01*
X87686Y319504D01*
X86027Y316631D01*
X85168Y313426D01*
Y313268D01*
X96268D01*
Y324368D01*
D02*
G37*
G36*
X48268D02*
X48109D01*
X44905Y323509D01*
X42032Y321850D01*
X39686Y319504D01*
X38027Y316631D01*
X37168Y313426D01*
Y313268D01*
X48268D01*
Y324368D01*
D02*
G37*
G36*
X110368Y310268D02*
X99268D01*
Y299168D01*
X99427D01*
X102632Y300026D01*
X105505Y301685D01*
X107851Y304031D01*
X109509Y306904D01*
X110368Y310109D01*
Y310268D01*
D02*
G37*
G36*
X96268D02*
X85168D01*
Y310109D01*
X86027Y306904D01*
X87686Y304031D01*
X90032Y301685D01*
X92905Y300026D01*
X96109Y299168D01*
X96268D01*
Y310268D01*
D02*
G37*
G36*
X62368D02*
X51268D01*
Y299168D01*
X51427D01*
X54632Y300026D01*
X57505Y301685D01*
X59851Y304031D01*
X61510Y306904D01*
X62368Y310109D01*
Y310268D01*
D02*
G37*
G36*
X48268D02*
X37168D01*
Y310109D01*
X38027Y306904D01*
X39686Y304031D01*
X42032Y301685D01*
X44905Y300026D01*
X48109Y299168D01*
X48268D01*
Y310268D01*
D02*
G37*
G36*
X656580Y293600D02*
X653420D01*
X650368Y292782D01*
X647632Y291202D01*
X645398Y288968D01*
X643818Y286232D01*
X643000Y283180D01*
Y280020D01*
X643818Y276968D01*
X645398Y274232D01*
X647632Y271998D01*
X650368Y270418D01*
X652169Y269935D01*
Y268900D01*
X649982Y268314D01*
X647018Y266603D01*
X644597Y264182D01*
X642886Y261218D01*
X642800Y260897D01*
X641800D01*
X641714Y261218D01*
X640003Y264182D01*
X637582Y266603D01*
X634618Y268314D01*
X633551Y268600D01*
X633682Y269600D01*
X641600D01*
Y293600D01*
X617600D01*
Y269600D01*
X625518D01*
X625649Y268600D01*
X624582Y268314D01*
X621618Y266603D01*
X619197Y264182D01*
X617486Y261218D01*
X616600Y257911D01*
Y257700D01*
X629600D01*
Y254700D01*
X616600D01*
Y254489D01*
X617486Y251182D01*
X619197Y248218D01*
X621618Y245798D01*
X624582Y244086D01*
X626769Y243500D01*
Y242465D01*
X624968Y241982D01*
X622232Y240402D01*
X619998Y238168D01*
X618418Y235432D01*
X617600Y232380D01*
Y229220D01*
X618418Y226168D01*
X619998Y223432D01*
X622232Y221198D01*
X624968Y219618D01*
X626769Y219135D01*
Y218100D01*
X624582Y217514D01*
X621618Y215803D01*
X619197Y213382D01*
X617486Y210418D01*
X616600Y207111D01*
Y206900D01*
X629600D01*
Y203900D01*
X616600D01*
Y203689D01*
X617486Y200382D01*
X619197Y197418D01*
X621618Y194998D01*
X624582Y193286D01*
X626769Y192700D01*
Y191665D01*
X624968Y191182D01*
X622232Y189602D01*
X619998Y187368D01*
X618418Y184632D01*
X617600Y181580D01*
Y178420D01*
X618418Y175368D01*
X619998Y172632D01*
X622232Y170398D01*
X624968Y168818D01*
X628020Y168000D01*
X631180D01*
X634232Y168818D01*
X636968Y170398D01*
X639202Y172632D01*
X640782Y175368D01*
X641600Y178420D01*
Y181580D01*
X640782Y184632D01*
X639202Y187368D01*
X636968Y189602D01*
X634232Y191182D01*
X632431Y191665D01*
Y192700D01*
X634618Y193286D01*
X637582Y194998D01*
X640003Y197418D01*
X641714Y200382D01*
X642300Y202569D01*
X643335D01*
X643818Y200768D01*
X645398Y198032D01*
X647632Y195798D01*
X650368Y194218D01*
X653420Y193400D01*
X656580D01*
X659632Y194218D01*
X662368Y195798D01*
X664602Y198032D01*
X666182Y200768D01*
X667000Y203820D01*
Y206980D01*
X666182Y210032D01*
X664602Y212768D01*
X662368Y215002D01*
X659632Y216582D01*
X656580Y217400D01*
X653420D01*
X650368Y216582D01*
X647632Y215002D01*
X645398Y212768D01*
X643818Y210032D01*
X643335Y208231D01*
X642300D01*
X641714Y210418D01*
X640003Y213382D01*
X637582Y215803D01*
X634618Y217514D01*
X632431Y218100D01*
Y219135D01*
X634232Y219618D01*
X636968Y221198D01*
X639202Y223432D01*
X640782Y226168D01*
X641600Y229220D01*
Y232380D01*
X640782Y235432D01*
X639202Y238168D01*
X636968Y240402D01*
X634232Y241982D01*
X632431Y242465D01*
Y243500D01*
X634618Y244086D01*
X637582Y245798D01*
X640003Y248218D01*
X641714Y251182D01*
X641800Y251503D01*
X642800D01*
X642886Y251182D01*
X644597Y248218D01*
X647018Y245798D01*
X649982Y244086D01*
X652169Y243500D01*
Y242465D01*
X650368Y241982D01*
X647632Y240402D01*
X645398Y238168D01*
X643818Y235432D01*
X643000Y232380D01*
Y229220D01*
X643818Y226168D01*
X645398Y223432D01*
X647632Y221198D01*
X650368Y219618D01*
X653420Y218800D01*
X656580D01*
X659632Y219618D01*
X662368Y221198D01*
X664602Y223432D01*
X666182Y226168D01*
X667000Y229220D01*
Y232380D01*
X666182Y235432D01*
X664602Y238168D01*
X662368Y240402D01*
X659632Y241982D01*
X657831Y242465D01*
Y243500D01*
X660018Y244086D01*
X662982Y245798D01*
X665403Y248218D01*
X667114Y251182D01*
X668000Y254489D01*
Y254700D01*
X655000D01*
Y257700D01*
X668000D01*
Y257911D01*
X667114Y261218D01*
X665403Y264182D01*
X662982Y266603D01*
X660018Y268314D01*
X657831Y268900D01*
Y269935D01*
X659632Y270418D01*
X662368Y271998D01*
X664602Y274232D01*
X666182Y276968D01*
X667000Y280020D01*
Y283180D01*
X666182Y286232D01*
X664602Y288968D01*
X662368Y291202D01*
X659632Y292782D01*
X656580Y293600D01*
D02*
G37*
G36*
X305895Y266500D02*
X304105D01*
X302451Y265815D01*
X301185Y264549D01*
X300500Y262895D01*
Y261105D01*
X301185Y259451D01*
X302451Y258185D01*
X304105Y257500D01*
X305895D01*
X307549Y258185D01*
X308815Y259451D01*
X309500Y261105D01*
Y262895D01*
X308815Y264549D01*
X307549Y265815D01*
X305895Y266500D01*
D02*
G37*
G36*
X495895Y244500D02*
X494105D01*
X492451Y243815D01*
X491185Y242549D01*
X490500Y240895D01*
Y239105D01*
X491185Y237451D01*
X492451Y236185D01*
X494105Y235500D01*
X495895D01*
X497549Y236185D01*
X498815Y237451D01*
X499500Y239105D01*
Y240895D01*
X498815Y242549D01*
X497549Y243815D01*
X495895Y244500D01*
D02*
G37*
G36*
X446895Y242500D02*
X445105D01*
X443451Y241815D01*
X442185Y240549D01*
X441500Y238895D01*
Y237105D01*
X442185Y235451D01*
X443451Y234185D01*
X445105Y233500D01*
X446895D01*
X448549Y234185D01*
X449815Y235451D01*
X450500Y237105D01*
Y238895D01*
X449815Y240549D01*
X448549Y241815D01*
X446895Y242500D01*
D02*
G37*
G36*
X99427Y239867D02*
X99268D01*
Y228768D01*
X110368D01*
Y228926D01*
X109509Y232131D01*
X107851Y235004D01*
X105505Y237350D01*
X102632Y239009D01*
X99427Y239867D01*
D02*
G37*
G36*
X51427D02*
X51268D01*
Y228768D01*
X62368D01*
Y228926D01*
X61510Y232131D01*
X59851Y235004D01*
X57505Y237350D01*
X54632Y239009D01*
X51427Y239867D01*
D02*
G37*
G36*
X96268D02*
X96109D01*
X92905Y239009D01*
X90032Y237350D01*
X87686Y235004D01*
X86027Y232131D01*
X85168Y228926D01*
Y228768D01*
X96268D01*
Y239867D01*
D02*
G37*
G36*
X48268D02*
X48109D01*
X44905Y239009D01*
X42032Y237350D01*
X39686Y235004D01*
X38027Y232131D01*
X37168Y228926D01*
Y228768D01*
X48268D01*
Y239867D01*
D02*
G37*
G36*
X110368Y225767D02*
X99268D01*
Y214667D01*
X99427D01*
X102632Y215526D01*
X105505Y217185D01*
X107851Y219531D01*
X109509Y222404D01*
X110368Y225609D01*
Y225767D01*
D02*
G37*
G36*
X96268D02*
X85168D01*
Y225609D01*
X86027Y222404D01*
X87686Y219531D01*
X90032Y217185D01*
X92905Y215526D01*
X96109Y214667D01*
X96268D01*
Y225767D01*
D02*
G37*
G36*
X62368D02*
X51268D01*
Y214667D01*
X51427D01*
X54632Y215526D01*
X57505Y217185D01*
X59851Y219531D01*
X61510Y222404D01*
X62368Y225609D01*
Y225767D01*
D02*
G37*
G36*
X48268D02*
X37168D01*
Y225609D01*
X38027Y222404D01*
X39686Y219531D01*
X42032Y217185D01*
X44905Y215526D01*
X48109Y214667D01*
X48268D01*
Y225767D01*
D02*
G37*
G36*
X133895Y216500D02*
X132105D01*
X130451Y215815D01*
X129185Y214549D01*
X128500Y212895D01*
Y211105D01*
X129185Y209451D01*
X130451Y208185D01*
X132105Y207500D01*
X133895D01*
X135549Y208185D01*
X136815Y209451D01*
X137500Y211105D01*
Y212895D01*
X136815Y214549D01*
X135549Y215815D01*
X133895Y216500D01*
D02*
G37*
G36*
X306895Y212500D02*
X305105D01*
X303451Y211815D01*
X302185Y210549D01*
X301500Y208895D01*
Y207105D01*
X302185Y205451D01*
X303451Y204185D01*
X305105Y203500D01*
X306895D01*
X308549Y204185D01*
X309815Y205451D01*
X310500Y207105D01*
Y208895D01*
X309815Y210549D01*
X308549Y211815D01*
X306895Y212500D01*
D02*
G37*
G36*
X75024Y212808D02*
X72512D01*
X70086Y212157D01*
X67910Y210902D01*
X66134Y209125D01*
X64878Y206950D01*
X64228Y204524D01*
Y202012D01*
X64878Y199585D01*
X66134Y197410D01*
X67910Y195634D01*
X70086Y194378D01*
X72512Y193728D01*
X75024D01*
X77450Y194378D01*
X79626Y195634D01*
X81402Y197410D01*
X82658Y199585D01*
X83308Y202012D01*
Y204524D01*
X82658Y206950D01*
X81402Y209125D01*
X79626Y210902D01*
X77450Y212157D01*
X75024Y212808D01*
D02*
G37*
G36*
X99427Y191868D02*
X99268D01*
Y180768D01*
X110368D01*
Y180926D01*
X109509Y184131D01*
X107851Y187004D01*
X105505Y189350D01*
X102632Y191009D01*
X99427Y191868D01*
D02*
G37*
G36*
X51427D02*
X51268D01*
Y180768D01*
X62368D01*
Y180926D01*
X61510Y184131D01*
X59851Y187004D01*
X57505Y189350D01*
X54632Y191009D01*
X51427Y191868D01*
D02*
G37*
G36*
X96268D02*
X96109D01*
X92905Y191009D01*
X90032Y189350D01*
X87686Y187004D01*
X86027Y184131D01*
X85168Y180926D01*
Y180768D01*
X96268D01*
Y191868D01*
D02*
G37*
G36*
X48268D02*
X48109D01*
X44905Y191009D01*
X42032Y189350D01*
X39686Y187004D01*
X38027Y184131D01*
X37168Y180926D01*
Y180768D01*
X48268D01*
Y191868D01*
D02*
G37*
G36*
X656580Y192000D02*
X653420D01*
X650368Y191182D01*
X647632Y189602D01*
X645398Y187368D01*
X643818Y184632D01*
X643000Y181580D01*
Y178420D01*
X643818Y175368D01*
X645398Y172632D01*
X647632Y170398D01*
X650368Y168818D01*
X653420Y168000D01*
X656580D01*
X659632Y168818D01*
X662368Y170398D01*
X664602Y172632D01*
X666182Y175368D01*
X667000Y178420D01*
Y181580D01*
X666182Y184632D01*
X664602Y187368D01*
X662368Y189602D01*
X659632Y191182D01*
X656580Y192000D01*
D02*
G37*
G36*
X110368Y177768D02*
X99268D01*
Y166668D01*
X99427D01*
X102632Y167526D01*
X105505Y169185D01*
X107851Y171531D01*
X109509Y174404D01*
X110368Y177609D01*
Y177768D01*
D02*
G37*
G36*
X96268D02*
X85168D01*
Y177609D01*
X86027Y174404D01*
X87686Y171531D01*
X90032Y169185D01*
X92905Y167526D01*
X96109Y166668D01*
X96268D01*
Y177768D01*
D02*
G37*
G36*
X62368D02*
X51268D01*
Y166668D01*
X51427D01*
X54632Y167526D01*
X57505Y169185D01*
X59851Y171531D01*
X61510Y174404D01*
X62368Y177609D01*
Y177768D01*
D02*
G37*
G36*
X48268D02*
X37168D01*
Y177609D01*
X38027Y174404D01*
X39686Y171531D01*
X42032Y169185D01*
X44905Y167526D01*
X48109Y166668D01*
X48268D01*
Y177768D01*
D02*
G37*
G36*
X563895Y175500D02*
X562105D01*
X560451Y174815D01*
X559185Y173549D01*
X558500Y171895D01*
Y170105D01*
X559185Y168451D01*
X560451Y167185D01*
X562105Y166500D01*
X563895D01*
X565549Y167185D01*
X566815Y168451D01*
X567500Y170105D01*
Y171895D01*
X566815Y173549D01*
X565549Y174815D01*
X563895Y175500D01*
D02*
G37*
G36*
X573895Y165500D02*
X572105D01*
X570451Y164815D01*
X569185Y163549D01*
X568500Y161895D01*
Y160105D01*
X569185Y158451D01*
X570451Y157185D01*
X572105Y156500D01*
X573895D01*
X575549Y157185D01*
X576815Y158451D01*
X577500Y160105D01*
Y161895D01*
X576815Y163549D01*
X575549Y164815D01*
X573895Y165500D01*
D02*
G37*
G36*
X494895Y158500D02*
X493105D01*
X491451Y157815D01*
X490185Y156549D01*
X489500Y154895D01*
Y153105D01*
X490185Y151451D01*
X491451Y150185D01*
X493105Y149500D01*
X494895D01*
X496549Y150185D01*
X497815Y151451D01*
X498500Y153105D01*
Y154895D01*
X497815Y156549D01*
X496549Y157815D01*
X494895Y158500D01*
D02*
G37*
G36*
X685895Y144500D02*
X684105D01*
X682451Y143815D01*
X681185Y142549D01*
X680500Y140895D01*
Y139105D01*
X681185Y137451D01*
X682451Y136185D01*
X684105Y135500D01*
X685895D01*
X687549Y136185D01*
X688815Y137451D01*
X689500Y139105D01*
Y140895D01*
X688815Y142549D01*
X687549Y143815D01*
X685895Y144500D01*
D02*
G37*
G36*
X645895D02*
X644105D01*
X642451Y143815D01*
X641185Y142549D01*
X640500Y140895D01*
Y139105D01*
X641185Y137451D01*
X642451Y136185D01*
X644105Y135500D01*
X645895D01*
X647549Y136185D01*
X648815Y137451D01*
X649500Y139105D01*
Y140895D01*
X648815Y142549D01*
X647549Y143815D01*
X645895Y144500D01*
D02*
G37*
G36*
X625895D02*
X624105D01*
X622451Y143815D01*
X621185Y142549D01*
X620500Y140895D01*
Y139105D01*
X621185Y137451D01*
X622451Y136185D01*
X624105Y135500D01*
X625895D01*
X627549Y136185D01*
X628815Y137451D01*
X629500Y139105D01*
Y140895D01*
X628815Y142549D01*
X627549Y143815D01*
X625895Y144500D01*
D02*
G37*
G36*
X605895D02*
X604105D01*
X602451Y143815D01*
X601185Y142549D01*
X600500Y140895D01*
Y139105D01*
X601185Y137451D01*
X602451Y136185D01*
X604105Y135500D01*
X605895D01*
X607549Y136185D01*
X608815Y137451D01*
X609500Y139105D01*
Y140895D01*
X608815Y142549D01*
X607549Y143815D01*
X605895Y144500D01*
D02*
G37*
G36*
X670895Y139500D02*
X669105D01*
X667451Y138815D01*
X666185Y137549D01*
X665500Y135895D01*
Y134105D01*
X666185Y132451D01*
X667451Y131185D01*
X669105Y130500D01*
X670895D01*
X672549Y131185D01*
X673815Y132451D01*
X674500Y134105D01*
Y135895D01*
X673815Y137549D01*
X672549Y138815D01*
X670895Y139500D01*
D02*
G37*
G36*
X635895Y137000D02*
X634105D01*
X632451Y136315D01*
X631185Y135049D01*
X630500Y133395D01*
Y131605D01*
X631185Y129951D01*
X632451Y128685D01*
X634105Y128000D01*
X635895D01*
X637549Y128685D01*
X638815Y129951D01*
X639500Y131605D01*
Y133395D01*
X638815Y135049D01*
X637549Y136315D01*
X635895Y137000D01*
D02*
G37*
G36*
X615895D02*
X614105D01*
X612451Y136315D01*
X611185Y135049D01*
X610500Y133395D01*
Y131605D01*
X611185Y129951D01*
X612451Y128685D01*
X614105Y128000D01*
X615895D01*
X617549Y128685D01*
X618815Y129951D01*
X619500Y131605D01*
Y133395D01*
X618815Y135049D01*
X617549Y136315D01*
X615895Y137000D01*
D02*
G37*
G36*
X305895Y130500D02*
X304105D01*
X302451Y129815D01*
X301185Y128549D01*
X300500Y126895D01*
Y125105D01*
X301185Y123451D01*
X302451Y122185D01*
X304105Y121500D01*
X305895D01*
X307549Y122185D01*
X308815Y123451D01*
X309500Y125105D01*
Y126895D01*
X308815Y128549D01*
X307549Y129815D01*
X305895Y130500D01*
D02*
G37*
G36*
X598395Y129500D02*
X596605D01*
X594951Y128815D01*
X593685Y127549D01*
X593000Y125895D01*
Y124105D01*
X593685Y122451D01*
X594951Y121185D01*
X596605Y120500D01*
X598395D01*
X600049Y121185D01*
X601315Y122451D01*
X602000Y124105D01*
Y125895D01*
X601315Y127549D01*
X600049Y128815D01*
X598395Y129500D01*
D02*
G37*
G36*
X574895Y125500D02*
X573105D01*
X571451Y124815D01*
X570185Y123549D01*
X569500Y121895D01*
Y120105D01*
X570185Y118451D01*
X571136Y117500D01*
X570722Y116500D01*
X570105D01*
X568451Y115815D01*
X567185Y114549D01*
X566500Y112895D01*
Y111105D01*
X567185Y109451D01*
X568451Y108185D01*
X570105Y107500D01*
X571895D01*
X573549Y108185D01*
X574815Y109451D01*
X575500Y111105D01*
Y112895D01*
X574815Y114549D01*
X573864Y115500D01*
X574278Y116500D01*
X574895D01*
X576549Y117185D01*
X577815Y118451D01*
X578500Y120105D01*
Y121895D01*
X577815Y123549D01*
X576549Y124815D01*
X574895Y125500D01*
D02*
G37*
G36*
X454895Y110500D02*
X453105D01*
X451451Y109815D01*
X450185Y108549D01*
X449500Y106895D01*
Y105105D01*
X450185Y103451D01*
X451451Y102185D01*
X453105Y101500D01*
X454895D01*
X456549Y102185D01*
X457815Y103451D01*
X458500Y105105D01*
Y106895D01*
X457815Y108549D01*
X456549Y109815D01*
X454895Y110500D01*
D02*
G37*
G36*
X99427Y107368D02*
X99268D01*
Y96268D01*
X110368D01*
Y96427D01*
X109509Y99631D01*
X107851Y102505D01*
X105505Y104851D01*
X102632Y106509D01*
X99427Y107368D01*
D02*
G37*
G36*
X51427D02*
X51268D01*
Y96268D01*
X62368D01*
Y96427D01*
X61510Y99631D01*
X59851Y102505D01*
X57505Y104851D01*
X54632Y106509D01*
X51427Y107368D01*
D02*
G37*
G36*
X96268D02*
X96109D01*
X92905Y106509D01*
X90032Y104851D01*
X87686Y102505D01*
X86027Y99631D01*
X85168Y96427D01*
Y96268D01*
X96268D01*
Y107368D01*
D02*
G37*
G36*
X48268D02*
X48109D01*
X44905Y106509D01*
X42032Y104851D01*
X39686Y102505D01*
X38027Y99631D01*
X37168Y96427D01*
Y96268D01*
X48268D01*
Y107368D01*
D02*
G37*
G36*
X645895Y97000D02*
X644105D01*
X642451Y96315D01*
X641185Y95049D01*
X640500Y93395D01*
Y91605D01*
X641185Y89951D01*
X642451Y88685D01*
X644105Y88000D01*
X645895D01*
X647549Y88685D01*
X648815Y89951D01*
X649500Y91605D01*
Y93395D01*
X648815Y95049D01*
X647549Y96315D01*
X645895Y97000D01*
D02*
G37*
G36*
X110368Y93268D02*
X99268D01*
Y82168D01*
X99427D01*
X102632Y83027D01*
X105505Y84685D01*
X107851Y87031D01*
X109509Y89905D01*
X110368Y93109D01*
Y93268D01*
D02*
G37*
G36*
X96268D02*
X85168D01*
Y93109D01*
X86027Y89905D01*
X87686Y87031D01*
X90032Y84685D01*
X92905Y83027D01*
X96109Y82168D01*
X96268D01*
Y93268D01*
D02*
G37*
G36*
X62368D02*
X51268D01*
Y82168D01*
X51427D01*
X54632Y83027D01*
X57505Y84685D01*
X59851Y87031D01*
X61510Y89905D01*
X62368Y93109D01*
Y93268D01*
D02*
G37*
G36*
X48268D02*
X37168D01*
Y93109D01*
X38027Y89905D01*
X39686Y87031D01*
X42032Y84685D01*
X44905Y83027D01*
X48109Y82168D01*
X48268D01*
Y93268D01*
D02*
G37*
G36*
X132895Y87500D02*
X131105D01*
X129451Y86815D01*
X128185Y85549D01*
X127500Y83895D01*
Y82105D01*
X128185Y80451D01*
X129451Y79185D01*
X131105Y78500D01*
X132895D01*
X134549Y79185D01*
X135815Y80451D01*
X136500Y82105D01*
Y83895D01*
X135815Y85549D01*
X134549Y86815D01*
X132895Y87500D01*
D02*
G37*
G36*
X308249Y80500D02*
X306458D01*
X304804Y79815D01*
X303538Y78549D01*
X302853Y76895D01*
Y75105D01*
X303538Y73451D01*
X304804Y72185D01*
X306458Y71500D01*
X308249D01*
X309902Y72185D01*
X311168Y73451D01*
X311853Y75105D01*
Y76895D01*
X311168Y78549D01*
X309902Y79815D01*
X308249Y80500D01*
D02*
G37*
G36*
X491895Y77500D02*
X490105D01*
X488451Y76815D01*
X487185Y75549D01*
X486500Y73895D01*
Y72105D01*
X487185Y70451D01*
X488451Y69185D01*
X490105Y68500D01*
X491895D01*
X493549Y69185D01*
X494815Y70451D01*
X495500Y72105D01*
Y73895D01*
X494815Y75549D01*
X493549Y76815D01*
X491895Y77500D01*
D02*
G37*
G36*
X75024Y80308D02*
X72512D01*
X70086Y79657D01*
X67910Y78401D01*
X66134Y76625D01*
X64878Y74450D01*
X64228Y72024D01*
Y69512D01*
X64878Y67085D01*
X66134Y64910D01*
X67910Y63134D01*
X70086Y61878D01*
X72512Y61228D01*
X75024D01*
X77450Y61878D01*
X79626Y63134D01*
X81402Y64910D01*
X82658Y67085D01*
X83308Y69512D01*
Y72024D01*
X82658Y74450D01*
X81402Y76625D01*
X79626Y78401D01*
X77450Y79657D01*
X75024Y80308D01*
D02*
G37*
G36*
X99427Y59368D02*
X99268D01*
Y48268D01*
X110368D01*
Y48426D01*
X109509Y51631D01*
X107851Y54504D01*
X105505Y56850D01*
X102632Y58509D01*
X99427Y59368D01*
D02*
G37*
G36*
X51427D02*
X51268D01*
Y48268D01*
X62368D01*
Y48426D01*
X61510Y51631D01*
X59851Y54504D01*
X57505Y56850D01*
X54632Y58509D01*
X51427Y59368D01*
D02*
G37*
G36*
X96268D02*
X96109D01*
X92905Y58509D01*
X90032Y56850D01*
X87686Y54504D01*
X86027Y51631D01*
X85168Y48426D01*
Y48268D01*
X96268D01*
Y59368D01*
D02*
G37*
G36*
X48268D02*
X48109D01*
X44905Y58509D01*
X42032Y56850D01*
X39686Y54504D01*
X38027Y51631D01*
X37168Y48426D01*
Y48268D01*
X48268D01*
Y59368D01*
D02*
G37*
G36*
X568395Y54500D02*
X566605D01*
X564951Y53815D01*
X563685Y52549D01*
X563000Y50895D01*
Y49105D01*
X563685Y47451D01*
X564951Y46185D01*
X566605Y45500D01*
X568395D01*
X570049Y46185D01*
X571315Y47451D01*
X572000Y49105D01*
Y50895D01*
X571315Y52549D01*
X570049Y53815D01*
X568395Y54500D01*
D02*
G37*
G36*
X548395Y59500D02*
X546605D01*
X544951Y58815D01*
X543685Y57549D01*
X543000Y55895D01*
Y54105D01*
X543685Y52451D01*
X544951Y51185D01*
X546605Y50500D01*
X548082D01*
X548669Y49850D01*
X548783Y49578D01*
X548500Y48895D01*
Y47105D01*
X549185Y45451D01*
X550451Y44185D01*
X552105Y43500D01*
X553895D01*
X555549Y44185D01*
X556815Y45451D01*
X557500Y47105D01*
Y48895D01*
X556815Y50549D01*
X555549Y51815D01*
X553895Y52500D01*
X552418D01*
X551832Y53150D01*
X551717Y53422D01*
X552000Y54105D01*
Y55895D01*
X551315Y57549D01*
X550049Y58815D01*
X548395Y59500D01*
D02*
G37*
G36*
X110368Y45268D02*
X99268D01*
Y34168D01*
X99427D01*
X102632Y35026D01*
X105505Y36685D01*
X107851Y39031D01*
X109509Y41904D01*
X110368Y45109D01*
Y45268D01*
D02*
G37*
G36*
X96268D02*
X85168D01*
Y45109D01*
X86027Y41904D01*
X87686Y39031D01*
X90032Y36685D01*
X92905Y35026D01*
X96109Y34168D01*
X96268D01*
Y45268D01*
D02*
G37*
G36*
X62368D02*
X51268D01*
Y34168D01*
X51427D01*
X54632Y35026D01*
X57505Y36685D01*
X59851Y39031D01*
X61510Y41904D01*
X62368Y45109D01*
Y45268D01*
D02*
G37*
G36*
X48268D02*
X37168D01*
Y45109D01*
X38027Y41904D01*
X39686Y39031D01*
X42032Y36685D01*
X44905Y35026D01*
X48109Y34168D01*
X48268D01*
Y45268D01*
D02*
G37*
G36*
X472895Y31500D02*
X471105D01*
X469451Y30815D01*
X468185Y29549D01*
X467500Y27895D01*
Y26105D01*
X468185Y24451D01*
X469451Y23185D01*
X471105Y22500D01*
X472895D01*
X474549Y23185D01*
X475815Y24451D01*
X476500Y26105D01*
Y27895D01*
X475815Y29549D01*
X474549Y30815D01*
X472895Y31500D01*
D02*
G37*
%LPD*%
D57*
X655000Y256200D02*
D03*
X629600Y205400D02*
D03*
Y256200D02*
D03*
D58*
X508000Y392000D02*
D03*
X661000D02*
D03*
X661000Y489000D02*
D03*
X508000D02*
D03*
D60*
X95268Y492268D02*
D03*
X47268D02*
D03*
X95268Y444268D02*
D03*
X47268D02*
D03*
X97768Y359767D02*
D03*
Y311768D02*
D03*
X49768Y359767D02*
D03*
Y311768D02*
D03*
X97768Y227267D02*
D03*
X49768D02*
D03*
Y179268D02*
D03*
X97768D02*
D03*
Y94768D02*
D03*
X49768D02*
D03*
X97768Y46768D02*
D03*
X49768D02*
D03*
D63*
X597000Y63500D02*
D03*
X642000Y65000D02*
D03*
X610000Y15000D02*
D03*
X687500Y50000D02*
D03*
M02*
