G04*
G04 #@! TF.GenerationSoftware,Altium Limited,Altium Designer,25.6.2 (33)*
G04*
G04 Layer_Color=8421504*
%FSLAX44Y44*%
%MOMM*%
G71*
G04*
G04 #@! TF.SameCoordinates,42BA56CB-4CE2-47E9-A465-7F88C4280AAA*
G04*
G04*
G04 #@! TF.FilePolarity,Positive*
G04*
G01*
G75*
%ADD18R,1.4500X1.5500*%
%ADD19R,1.0500X1.1500*%
%ADD20R,1.1000X0.9500*%
%ADD21R,1.2400X0.3450*%
%ADD22R,0.3450X1.2400*%
%ADD23R,0.9500X1.1000*%
%ADD24R,0.8500X1.0000*%
%ADD25R,1.3500X1.1000*%
%ADD26R,2.2000X0.9500*%
%ADD27R,2.2000X3.3000*%
%ADD28R,1.8000X1.3000*%
%ADD29R,1.3700X0.6400*%
%ADD30R,1.0000X0.8500*%
%ADD31R,1.7010X0.4818*%
%ADD32R,1.0042X2.7562*%
%ADD33O,1.5000X0.6500*%
%ADD34R,2.7562X1.0042*%
%ADD35R,2.0500X1.4500*%
%ADD36R,1.5000X0.6500*%
%ADD37R,1.0200X0.7200*%
D18*
X581000Y270000D02*
D03*
X601000D02*
D03*
X808991Y178996D02*
D03*
X788991D02*
D03*
X665991Y639996D02*
D03*
X645991D02*
D03*
D19*
X713000Y243000D02*
D03*
Y316000D02*
D03*
D20*
X678000Y316000D02*
D03*
Y300000D02*
D03*
X727000Y384000D02*
D03*
Y368000D02*
D03*
X707993Y383996D02*
D03*
Y367996D02*
D03*
X719000Y422000D02*
D03*
Y406000D02*
D03*
X678000Y435000D02*
D03*
Y451000D02*
D03*
X737000Y422000D02*
D03*
Y406000D02*
D03*
X600000Y293000D02*
D03*
Y309000D02*
D03*
X658000Y309000D02*
D03*
Y293000D02*
D03*
X423491Y587996D02*
D03*
Y603996D02*
D03*
X422491Y447996D02*
D03*
Y463996D02*
D03*
Y307996D02*
D03*
Y323996D02*
D03*
X423491Y168996D02*
D03*
Y184996D02*
D03*
D21*
X587500Y367500D02*
D03*
Y372500D02*
D03*
Y377500D02*
D03*
Y382500D02*
D03*
Y387500D02*
D03*
Y392500D02*
D03*
Y397500D02*
D03*
Y402500D02*
D03*
Y407500D02*
D03*
Y412500D02*
D03*
Y417500D02*
D03*
Y422500D02*
D03*
X672500D02*
D03*
Y417500D02*
D03*
Y412500D02*
D03*
Y407500D02*
D03*
Y402500D02*
D03*
Y397500D02*
D03*
Y392500D02*
D03*
Y387500D02*
D03*
Y382500D02*
D03*
Y377500D02*
D03*
Y372500D02*
D03*
Y367500D02*
D03*
D22*
X602500Y437500D02*
D03*
X607500D02*
D03*
X612500D02*
D03*
X617500D02*
D03*
X622500D02*
D03*
X627500D02*
D03*
X632500D02*
D03*
X637500D02*
D03*
X642500D02*
D03*
X647500D02*
D03*
X652500D02*
D03*
X657500D02*
D03*
Y352500D02*
D03*
X652500D02*
D03*
X647500D02*
D03*
X642500D02*
D03*
X637500D02*
D03*
X632500D02*
D03*
X627500D02*
D03*
X622500D02*
D03*
X617500D02*
D03*
X612500D02*
D03*
X607500D02*
D03*
X602500D02*
D03*
D23*
X602000Y453000D02*
D03*
X586000D02*
D03*
X587000Y347000D02*
D03*
X571000D02*
D03*
X326991Y548996D02*
D03*
X342991D02*
D03*
X309991Y589996D02*
D03*
X293991D02*
D03*
X461491Y581996D02*
D03*
X445491D02*
D03*
X222991Y556996D02*
D03*
X238991D02*
D03*
X222991Y538996D02*
D03*
X238991D02*
D03*
X325991Y408996D02*
D03*
X341991D02*
D03*
X308991Y449996D02*
D03*
X292991D02*
D03*
X460491Y441996D02*
D03*
X444491D02*
D03*
X221991Y416996D02*
D03*
X237991D02*
D03*
X221991Y398996D02*
D03*
X237991D02*
D03*
X325991Y268996D02*
D03*
X341991D02*
D03*
X308991Y309996D02*
D03*
X292991D02*
D03*
X460491Y301996D02*
D03*
X444491D02*
D03*
X221991Y276996D02*
D03*
X237991D02*
D03*
X221991Y258996D02*
D03*
X237991D02*
D03*
X222991Y119996D02*
D03*
X238991D02*
D03*
X222991Y137996D02*
D03*
X238991D02*
D03*
X461491Y162996D02*
D03*
X445491D02*
D03*
X309991Y170996D02*
D03*
X293991D02*
D03*
X326991Y129996D02*
D03*
X342991D02*
D03*
X552000Y368000D02*
D03*
X901000Y248000D02*
D03*
X917000D02*
D03*
X568000Y368000D02*
D03*
D24*
X600500Y248000D02*
D03*
X613500D02*
D03*
X665500Y618000D02*
D03*
X678500D02*
D03*
X808500Y157000D02*
D03*
X821500D02*
D03*
X314491Y607996D02*
D03*
X301491D02*
D03*
X314491Y624996D02*
D03*
X301491D02*
D03*
X366491Y642996D02*
D03*
X353491D02*
D03*
X391991Y547996D02*
D03*
X378991D02*
D03*
X264991Y631496D02*
D03*
X251991D02*
D03*
X240991D02*
D03*
X227991D02*
D03*
X313491Y467996D02*
D03*
X300491D02*
D03*
X313491Y484996D02*
D03*
X300491D02*
D03*
X365491Y502996D02*
D03*
X352491D02*
D03*
X390991Y407996D02*
D03*
X377991D02*
D03*
X263991Y491496D02*
D03*
X250991D02*
D03*
X239991D02*
D03*
X226991D02*
D03*
X313491Y327996D02*
D03*
X300491D02*
D03*
X313491Y344996D02*
D03*
X300491D02*
D03*
X365491Y362996D02*
D03*
X352491D02*
D03*
X390991Y267996D02*
D03*
X377991D02*
D03*
X263991Y351496D02*
D03*
X250991D02*
D03*
X239991D02*
D03*
X226991D02*
D03*
X240991Y212496D02*
D03*
X227991D02*
D03*
X264991D02*
D03*
X251991D02*
D03*
X391991Y128996D02*
D03*
X378991D02*
D03*
X366491Y223996D02*
D03*
X353491D02*
D03*
X314491Y205996D02*
D03*
X301491D02*
D03*
X314491Y188996D02*
D03*
X301491D02*
D03*
D25*
X641000Y310000D02*
D03*
X618000D02*
D03*
Y291500D02*
D03*
X641000D02*
D03*
D26*
X834750Y230000D02*
D03*
Y207000D02*
D03*
Y184000D02*
D03*
D27*
X893250Y207000D02*
D03*
D28*
X221241Y611496D02*
D03*
X247741D02*
D03*
X220241Y471496D02*
D03*
X246741D02*
D03*
X220241Y331496D02*
D03*
X246741D02*
D03*
X221241Y192496D02*
D03*
X247741D02*
D03*
D29*
X221541Y572496D02*
D03*
Y591496D02*
D03*
X244441D02*
D03*
Y581996D02*
D03*
Y572496D02*
D03*
X220541Y432496D02*
D03*
Y451496D02*
D03*
X243441D02*
D03*
Y441996D02*
D03*
Y432496D02*
D03*
X220541Y292496D02*
D03*
Y311496D02*
D03*
X243441D02*
D03*
Y301996D02*
D03*
Y292496D02*
D03*
X221541Y153496D02*
D03*
Y172496D02*
D03*
X244441D02*
D03*
Y162996D02*
D03*
Y153496D02*
D03*
D30*
X309991Y565496D02*
D03*
Y552496D02*
D03*
X292991Y565496D02*
D03*
Y552496D02*
D03*
X441491Y635496D02*
D03*
Y622496D02*
D03*
X442491Y554496D02*
D03*
Y567496D02*
D03*
X424491Y635496D02*
D03*
Y622496D02*
D03*
Y554496D02*
D03*
Y567496D02*
D03*
X202991Y579496D02*
D03*
Y592496D02*
D03*
X185991Y605496D02*
D03*
Y592496D02*
D03*
X308991Y425496D02*
D03*
Y412496D02*
D03*
X291991Y425496D02*
D03*
Y412496D02*
D03*
X440491Y495496D02*
D03*
Y482496D02*
D03*
X441491Y414496D02*
D03*
Y427496D02*
D03*
X423491Y495496D02*
D03*
Y482496D02*
D03*
Y414496D02*
D03*
Y427496D02*
D03*
X201991Y439496D02*
D03*
Y452496D02*
D03*
X184991Y465496D02*
D03*
Y452496D02*
D03*
X308991Y285496D02*
D03*
Y272496D02*
D03*
X291991Y285496D02*
D03*
Y272496D02*
D03*
X440491Y355496D02*
D03*
Y342496D02*
D03*
X441491Y274496D02*
D03*
Y287496D02*
D03*
X423491Y355496D02*
D03*
Y342496D02*
D03*
Y274496D02*
D03*
Y287496D02*
D03*
X201991Y299496D02*
D03*
Y312496D02*
D03*
X184991Y325496D02*
D03*
Y312496D02*
D03*
X185991Y186496D02*
D03*
Y173496D02*
D03*
X202991Y160496D02*
D03*
Y173496D02*
D03*
X424491Y135496D02*
D03*
Y148496D02*
D03*
Y216496D02*
D03*
Y203496D02*
D03*
X442491Y135496D02*
D03*
Y148496D02*
D03*
X441491Y216496D02*
D03*
Y203496D02*
D03*
X292991Y146496D02*
D03*
Y133496D02*
D03*
X309991Y146496D02*
D03*
Y133496D02*
D03*
X765000Y493500D02*
D03*
Y480500D02*
D03*
D31*
X334943Y624206D02*
D03*
Y617856D02*
D03*
Y611252D02*
D03*
Y604648D02*
D03*
Y598298D02*
D03*
Y591694D02*
D03*
Y585344D02*
D03*
Y578740D02*
D03*
Y572136D02*
D03*
Y565786D02*
D03*
X404539D02*
D03*
Y572136D02*
D03*
Y578740D02*
D03*
Y585344D02*
D03*
Y591694D02*
D03*
Y598298D02*
D03*
Y604648D02*
D03*
Y611252D02*
D03*
Y617856D02*
D03*
Y624206D02*
D03*
X333943Y484206D02*
D03*
Y477856D02*
D03*
Y471252D02*
D03*
Y464648D02*
D03*
Y458298D02*
D03*
Y451694D02*
D03*
Y445344D02*
D03*
Y438740D02*
D03*
Y432136D02*
D03*
Y425786D02*
D03*
X403539D02*
D03*
Y432136D02*
D03*
Y438740D02*
D03*
Y445344D02*
D03*
Y451694D02*
D03*
Y458298D02*
D03*
Y464648D02*
D03*
Y471252D02*
D03*
Y477856D02*
D03*
Y484206D02*
D03*
X333943Y344206D02*
D03*
Y337856D02*
D03*
Y331252D02*
D03*
Y324648D02*
D03*
Y318298D02*
D03*
Y311694D02*
D03*
Y305344D02*
D03*
Y298740D02*
D03*
Y292136D02*
D03*
Y285786D02*
D03*
X403539D02*
D03*
Y292136D02*
D03*
Y298740D02*
D03*
Y305344D02*
D03*
Y311694D02*
D03*
Y318298D02*
D03*
Y324648D02*
D03*
Y331252D02*
D03*
Y337856D02*
D03*
Y344206D02*
D03*
X334943Y205206D02*
D03*
Y198856D02*
D03*
Y192252D02*
D03*
Y185648D02*
D03*
Y179298D02*
D03*
Y172694D02*
D03*
Y166344D02*
D03*
Y159740D02*
D03*
Y153136D02*
D03*
Y146786D02*
D03*
X404539D02*
D03*
Y153136D02*
D03*
Y159740D02*
D03*
Y166344D02*
D03*
Y172694D02*
D03*
Y179298D02*
D03*
Y185648D02*
D03*
Y192252D02*
D03*
Y198856D02*
D03*
Y205206D02*
D03*
D32*
X133741Y186996D02*
D03*
X166241D02*
D03*
X589750Y640000D02*
D03*
X622250D02*
D03*
X133741Y605996D02*
D03*
X166241D02*
D03*
X132741Y465996D02*
D03*
X165241D02*
D03*
X132741Y325996D02*
D03*
X165241D02*
D03*
D33*
X733250Y467950D02*
D03*
Y506050D02*
D03*
Y480650D02*
D03*
Y493350D02*
D03*
X678750Y467950D02*
D03*
Y480650D02*
D03*
Y493350D02*
D03*
D34*
X803000Y239250D02*
D03*
Y206750D02*
D03*
D35*
X765000Y241000D02*
D03*
Y205000D02*
D03*
D36*
X678750Y506050D02*
D03*
D37*
X702000Y407050D02*
D03*
Y420950D02*
D03*
M02*
